<?xml version="1.0" encoding="UTF-8"?>
<svg id="Layer_3" data-name="Layer 3" xmlns="http://www.w3.org/2000/svg" viewBox="0 0 200 200">
  <defs>
    <style>
      .cls-1 {
        fill: #0c0c0c;
      }

      .cls-2 {
        fill: #0f0f0f;
      }

      .cls-3 {
        fill: #646374;
      }
    </style>
  </defs>
  <path class="cls-3" d="m36.75,99.02v-14.44h14.46v14.44h-14.46Zm9.04-10.91c-.14-.07-.27-.13-.41-.2-.13-.07-.27-.13-.4-.2-.07-.07-.13-.14-.2-.21-.13-.07-.27-.13-.4-.2-.1-.12-.2-.24-.2-.24-.09-.35-.15-.55-.2-.76-.14-.09-.28-.19-.43-.28-.03.06-.05.12-.08.18.17.03.35.06.52.09-.11.18-.21.37-.32.55-.05-.03-.09-.05-.14-.08-.05.25-.1.49-.15.74-.07.13-.13.27-.2.4-.07.07-.14.13-.21.2-.07.26-.13.53-.2.79-.13.74-.27,1.49-.44,2.46.4-.28.76-.53,1.11-.78.06.06.13.13.19.19.1.11.22.32.29.3.41-.09.8-.23,1.38-.41.1-.13.32-.41.54-.7.11.13.21.23.17.19.19-.54.35-1.01.52-1.48l.65.65c.36-.98,1.45-1.74.97-3.12-.48.61-.88,1.13-1.28,1.64.16.18.3.33.49.54-.53-.03-.95-.05-1.37-.07-.07-.07-.13-.14-.2-.2Zm-2.39,5.81c-.07.07-.14.13-.21.2-.07.13-.13.27-.2.4-.07.13-.13.27-.2.4-.05.05-.09.1-.14.15.04.01.09.02.13.03-.14.54-.28,1.08-.42,1.62v-1.83c-.53-.17-.87-.27-1.2-.38-.4-.62-.8-.42-1.2,0-.07.14-.13.27-.2.41-.58.59-.53,1.19,0,1.79.07.07.13.13.2.2.69.68,1.46.37,2.22.2.3.75.69.37,1.07.08l.18.17c.45-.17.9-.34,1.36-.52,0,.03,0,.15,0,.28-.02.03-.05.06-.04.05,0,0,.01-.03.03-.06.36-.21.72-.41,1.17-.67-.01,0,.11.08.41.29-.21-.94,1.6-.84.74-1.99-.38-.08-.73-.15-1.09-.22-.14-.07-.27-.13-.41-.2-.14-.07-.27-.13-.41-.2l-.2-.2c-.13-.07-.27-.13-.4-.2-.14-.07-.27-.13-.41-.2-.07-.14-.13-.27-.2-.41,0-.2,0-.39,0-.59-.2,0-.4,0-.6,0,0,.2,0,.39,0,.59.07.14.13.27.2.41-.07.14-.13.27-.2.41Zm-2.42-5.82c.11.1.22.2.32.3.24.9.36,1.76-.79,2.28-.23-.11-.49-.23-.75-.36-.07-.47-.14-.95-.2-1.42.07-.08.13-.17.03-.03.03-.17.01-.06,0,.05.07.46.14.93.2,1.39.54.32,1.08.64,1.52.91,1.19-.89,1.33-1.36.88-2.63-.21-.09-.48-.21-.75-.32-.15-.05-.3-.09-.46-.14-.21-.07-.43-.15-.64-.22,0,.07-.02.13-.02.2.23,0,.45,0,.68,0Zm6.87,6.82c.18-.77.35-1.47.52-2.17-.09-.04-.19-.08-.28-.11-.42.52-.83,1.05-1.24,1.56.31.23.6.43,1,.72Z"/>
  <path class="cls-3" d="m20.07,115.51v-14.35h14.58v14.35h-14.58Zm2.36-3.07c1.66.6,3.19-1.2,4.79.13v-8.13c-1.58-1.51-3.15.26-4.75-.19-.04.48-.08.87-.11,1.2-.46.12-.85.22-1.24.33.01.11.02.21.03.32.39.08.79.15,1.24.24-.02.34-.03.65-.05.93-.46.05-.82.09-1.19.12,0,.11-.01.21-.02.32.4.1.8.19,1.25.3-.02.25-.03.5-.04.71-.45.11-.83.2-1.21.29,0,.1,0,.2.01.29.39.08.78.15,1.21.24v.89c-.45.09-.84.17-1.23.25.01.11.03.22.04.33.4.05.8.1,1.21.16.02.45.04.85.06,1.29Zm5.14-8.08v8.16c1.05-.56,2-.61,3.03-.11.48.23,1.14.11,1.72.14v-8.18c-.78-.13-1.52-.15-2.2-.39-.95-.33-1.76-.21-2.56.38Zm5.98,2.55c-.04-.16-.08-.32-.12-.48l-.81.27c.04.13.08.27.12.4.27-.06.54-.13.81-.19Zm-.06,1.69c0-.16.02-.31.03-.47-.29-.01-.58-.03-.87-.04-.01.14-.03.28-.04.42.29.03.58.06.88.09Zm0,1.46v-.37c-.28.03-.55.05-.82.08,0,.1.01.19.02.29h.81Z"/>
  <path class="cls-1" d="m67.7,106.66c2.32,1.13,3.06,2.23,2.9,4.26-.17,2.07-1.46,3.6-3.57,3.78-2.15.18-4.34.04-6.58.04v-15.21c2.17,0,4.31-.12,6.43.04,1.66.12,2.78,1.41,3.03,3.01.29,1.88-.31,3.07-1.98,3.94-.07.04-.14.1-.22.15Zm-5.78,6.94c1.63-.08,3.17-.04,4.68-.26,1.67-.24,2.54-1.35,2.52-2.84-.02-1.48-1.04-2.76-2.62-2.93-1.5-.16-3.03-.03-4.58-.03v6.06Zm-.03-7.51c1.03,0,1.93.02,2.83,0,.43-.01.86-.07,1.29-.14,1.55-.26,2.41-1.18,2.4-2.57-.01-1.44-.8-2.39-2.39-2.55-1.34-.13-2.71-.03-4.13-.03v5.3Z"/>
  <path class="cls-1" d="m166.75,114.91v-15.7c2.58.16,5.15.06,7.61.53,3.81.73,5.91,4.02,5.61,8.16-.26,3.69-2.85,6.41-6.52,6.86-.46.06-.93.14-1.4.14-1.74.02-3.48,0-5.31,0Zm1.49-1.29c1.73-.1,3.37-.06,4.98-.31,3.22-.49,5.08-2.63,5.26-5.83.17-3.08-1.4-5.6-4.28-6.28-1.92-.45-3.94-.45-5.95-.65v13.06Z"/>
  <path class="cls-1" d="m149.51,107.17c-.03,4.8-3.41,8.18-8.14,8.13-4.68-.04-8.02-3.43-8.04-8.16-.02-4.76,3.47-8.24,8.22-8.2,4.65.04,7.98,3.49,7.96,8.23Zm-1.52-.01c0-3.99-2.68-6.82-6.51-6.84-3.83-.02-6.57,2.79-6.59,6.76-.02,3.98,2.71,6.83,6.51,6.84,3.85,0,6.58-2.8,6.59-6.77Z"/>
  <path class="cls-1" d="m104.21,115v-15.78c2.54.14,5.08-.01,7.5.46,5.85,1.15,6.8,7.54,4.85,11.32-1.08,2.09-2.86,3.34-5.1,3.64-2.37.32-4.78.25-7.26.35Zm1.55-1.38c1.72-.1,3.4-.08,5.03-.33,3.09-.47,5.05-2.73,5.18-5.72.14-3.34-1.44-5.72-4.62-6.44-1.79-.41-3.69-.38-5.6-.55v13.05Z"/>
  <path class="cls-2" d="m74.17,99.51c2.01,0,4.02-.14,6.01.04,2.24.2,3.48,1.67,3.56,3.75.08,2.09-1.07,3.5-3.27,4.03-.16.04-.32.07-.66.13,1.5,2.49,2.96,4.91,4.48,7.41h-1.72c-1.43-2.4-2.9-4.85-4.37-7.31h-2.63v7.29h-1.4v-15.34Zm1.4,6.61c1.36,0,2.62.06,3.88-.01,1.57-.09,2.69-1.16,2.75-2.51.07-1.39-.79-2.51-2.38-2.71-1.4-.17-2.83-.04-4.26-.04v5.27Z"/>
  <path class="cls-1" d="m153.3,99.48c2.02,0,3.93-.14,5.82.03,2.43.23,3.71,1.58,3.8,3.62.1,2.39-.93,3.65-3.46,4.23-.09.02-.18.07-.41.16,1.48,2.45,2.95,4.87,4.46,7.36h-1.72c-1.44-2.42-2.91-4.87-4.37-7.32h-2.58v7.26h-1.54v-15.34Zm1.54,6.64c1.37,0,2.64.07,3.9-.02,1.53-.1,2.58-1.14,2.69-2.48.11-1.35-.76-2.52-2.36-2.73-1.39-.18-2.83-.04-4.23-.04v5.26Z"/>
  <path class="cls-1" d="m89.76,110.8c-.59,1.37-1.17,2.71-1.76,4.07h-1.58c2.28-5.2,4.53-10.33,6.79-15.49h1.57c2.16,5.1,4.34,10.25,6.55,15.48h-1.69c-.56-1.32-1.13-2.68-1.71-4.06h-8.17Zm7.61-1.42c-1.16-2.8-2.27-5.47-3.45-8.31-1.21,2.84-2.36,5.53-3.55,8.31h7Z"/>
  <path class="cls-1" d="m122.37,114.86h-1.46v-15.45h9.23v1.29h-7.75v5.45h7.22c.02.46.04.85.07,1.34h-7.31v7.37Z"/>
  <path class="cls-2" d="m70.5,93.84c-.36.02-.58.03-.87.04v-8.63c.3-.02.65-.04,1.05-.06,1.68,2.4,3.35,4.78,5.03,7.17.06-.02.12-.03.19-.05v-7.05c.33-.03.55-.05.83-.07v8.65h-1.04c-1.65-2.36-3.33-4.75-5.18-7.4v7.4Z"/>
  <path class="cls-3" d="m28.88,90.44h3.55c-.08,1.76-.15,3.46-.23,5.23h-4.14c.27-1.75.54-3.47.82-5.23Z"/>
  <path class="cls-3" d="m42.36,109.58h-3.54c.08-1.75.17-3.44.25-5.19h4.08c-.26,1.74-.52,3.45-.79,5.19Z"/>
  <path class="cls-2" d="m103.57,89.78c.83,1.38,1.62,2.68,2.46,4.07h-.99c-.82-1.37-1.62-2.71-2.43-4.06h-1.41v4.04c-.33.02-.57.03-.85.05v-8.62c1.07,0,2.14-.07,3.2.02,1.33.12,2.05.83,2.17,1.96.12,1.14-.42,1.91-1.7,2.37-.13.05-.25.09-.45.17Zm-2.36-.86c.77,0,1.5.05,2.22-.01.78-.06,1.33-.51,1.38-1.32.05-.79-.36-1.36-1.17-1.48-.8-.12-1.61-.13-2.43-.19v3Z"/>
  <path class="cls-3" d="m42.7,109.53c.28-1.77.55-3.44.83-5.16h4.08c-.48,1.79-.93,3.5-1.37,5.16h-3.53Z"/>
  <path class="cls-3" d="m28.52,90.46c-.28,1.77-.55,3.5-.83,5.24h-4.13c.49-1.81.95-3.52,1.42-5.24h3.54Z"/>
  <path class="cls-2" d="m92.09,93.86v-8.61h5.19c.04.16.09.36.16.69h-4.49v2.95h4.11c.03.3.05.52.08.84h-4.17v3.3h4.57v.82h-5.45Z"/>
  <path class="cls-2" d="m113.59,85.83c-.47.4-.67.57-.9.76-.72-.65-1.53-1.16-2.45-.68-.5.26-1.1.81-1.15,1.29-.05.47.42,1.14.86,1.49.44.35,1.1.43,1.67.62,1.35.46,1.97,1.28,1.86,2.49-.1,1.21-.85,1.96-2.19,2.23-1.23.24-2.42-.2-3.33-1.28.23-.18.45-.35.71-.56.78.93,1.73,1.43,2.84.87.48-.24.97-.89,1.02-1.39.04-.43-.47-1.03-.89-1.35-.43-.33-1.04-.42-1.58-.61-1.51-.54-2.15-1.53-1.86-2.86.26-1.18,1.55-2.09,2.93-1.88.78.12,1.51.51,2.47.86Z"/>
  <path class="cls-1" d="m65.91,85.25h.77c0,2.13.12,4.26-.04,6.36-.13,1.64-1.52,2.56-3.22,2.48-1.65-.08-2.84-1.08-2.92-2.71-.1-2.02-.02-4.05-.02-6.14.25-.01.47-.03.7-.04.04.12.11.21.11.3,0,1.66-.08,3.34.05,4.99.06.78.34,1.69.84,2.24,1.04,1.15,3.13.54,3.5-1,.24-1.02.2-2.11.23-3.17.03-1.09,0-2.18,0-3.32Z"/>
  <path class="cls-2" d="m89.1,85.24h.92c-1.11,2.92-2.19,5.75-3.28,8.61h-.86c-1.06-2.83-2.12-5.65-3.22-8.59.36-.02.63-.04.92-.05.91,2.45,1.8,4.84,2.75,7.42.96-2.56,1.86-4.96,2.77-7.38Z"/>
  <path class="cls-3" d="m26.15,87.98c-.43.67-.86,1.34-1.32,2.06h-1.44c.62-1.39,3.1-3.33,3.91-3.05.26-.24.53-.49.83-.76h2.15c-.33.69-.65,1.3-.91,1.93-.25.61-.45,1.24-.68,1.88h-3.38c.37-.7.69-1.3,1.01-1.9.09-.11.19-.22.28-.33.05-.08.1-.16.15-.24.08-.13.16-.26.23-.4-.08-.06-.15-.13-.23-.19-.07.14-.13.28-.2.42-.05.08-.1.16-.14.24-.09.11-.17.23-.26.34Z"/>
  <path class="cls-2" d="m122.23,85.96h-2.97v-.7h6.73c.02.21.03.39.06.68h-3v7.91h-.82v-7.89Z"/>
  <path class="cls-2" d="m134.23,85.26c-.84,1.3-1.57,2.52-2.39,3.68-.56.79-.88,1.59-.78,2.58.08.75.01,1.52.01,2.31h-1.07c1.18-3.59-1.34-5.84-2.94-8.54.19-.04.33-.09.48-.09.16,0,.33.03.53.04.83,1.28,1.66,2.57,2.56,3.97.89-1.35,1.75-2.64,2.61-3.94h.98Z"/>
  <path class="cls-2" d="m141.07,88.07c1.77.01,2.94,1.19,2.93,2.95,0,1.79-1.21,2.95-3.05,2.93-1.78-.01-2.92-1.16-2.92-2.95,0-1.81,1.18-2.95,3.04-2.93Zm2.13,2.94c0-1.3-.9-2.24-2.16-2.26-1.23-.02-2.21.95-2.25,2.21-.04,1.28.98,2.33,2.25,2.31,1.26-.02,2.16-.96,2.17-2.26Z"/>
  <path class="cls-3" d="m20.22,95.68c.86-1.85,1.67-3.57,2.43-5.2h1.94c-.46,1.74-.91,3.43-1.38,5.2h-3Z"/>
  <path class="cls-3" d="m47.97,104.36h2.69c-.3,1.96-1.21,3.61-2.3,5.21h-1.74c.45-1.74.89-3.42,1.35-5.21Z"/>
  <path class="cls-3" d="m23.44,99.03c.05-.99.1-1.9.15-2.86h4.03v2.86h-4.19Z"/>
  <path class="cls-3" d="m27.95,99.02c.04-.99.09-1.9.13-2.86h4.01v2.86h-4.14Z"/>
  <path class="cls-3" d="m32.47,90.04h-3.5c.58-1.35,1.11-2.6,1.63-3.8h2.41c-.18,1.27-.36,2.48-.54,3.8Z"/>
  <path class="cls-3" d="m34.6,90.47v5.22h-2.08c.09-1.72.18-3.43.28-5.22h1.8Z"/>
  <path class="cls-3" d="m36.69,104.36h2.06c-.09,1.74-.18,3.44-.28,5.21h-1.78v-5.21Z"/>
  <path class="cls-3" d="m43.61,103.87v-2.72h4.01v2.72h-4.01Z"/>
  <path class="cls-3" d="m43.14,101.16v2.73h-3.97v-2.73h3.97Z"/>
  <path class="cls-3" d="m43.4,113.75h-2.36c.51-1.24,1.01-2.45,1.53-3.72h3.46c-.96,1.35-1.82,2.56-2.64,3.72Z"/>
  <path class="cls-3" d="m42.24,110.04c-.56,1.32-1.07,2.51-1.56,3.67h-2.41c.17-1.24.34-2.42.52-3.67h3.45Z"/>
  <path class="cls-2" d="m148.86,85.25c-1.59-.17-1.86.33-1.63,2.87h1.2c.02.29.04.5.06.78h-1.32v4.9c-.28.03-.49.06-.79.1v-4.97h-1.12v-.74c.32-.03.65-.06,1.03-.09.31-1.08-.41-2.47.77-3.3.44-.31,1.11-.29,1.79-.45v.89Z"/>
  <path class="cls-3" d="m20,99.01c.09-.96.18-1.87.27-2.83h2.98c-.07.94-.13,1.84-.2,2.83h-3.05Z"/>
  <path class="cls-2" d="m80.53,93.83h-.81v-8.56c.25-.01.51-.03.81-.05v8.61Z"/>
  <path class="cls-2" d="m116.94,93.83h-.81v-8.56c.25-.01.52-.03.81-.04v8.6Z"/>
  <path class="cls-3" d="m48.05,103.91v-2.75h3.05c-.07.94-.15,1.83-.22,2.75h-2.83Z"/>
  <path class="cls-3" d="m34.58,99.04h-1.99v-2.85h1.99v2.85Z"/>
  <path class="cls-3" d="m34.59,90.04h-1.74c.17-1.27.33-2.47.5-3.78.42-.02.8-.04,1.23-.06v3.84Z"/>
  <path class="cls-3" d="m38.7,103.92h-2.01v-2.75h2.01v2.75Z"/>
  <path class="cls-3" d="m37.92,113.72h-1.24v-3.68h1.72c-.15,1.19-.31,2.38-.48,3.68Z"/>
  <path class="cls-3" d="m31.61,85.24c.57-.25,1.14-.5,1.81-.8.04.42.07.65.09.88,0,0,.01-.02.01-.02-.17.18-.34.36-.38.41h-2.29c-.46.05-1.17.14-1.89.22-.02-.12-.05-.24-.07-.36.86-.17,1.72-.35,2.58-.52-.05.07-.11.14-.29.37.27-.13.35-.16.43-.2Z"/>
  <path class="cls-3" d="m44.72,112.66c.54-.88,1.08-1.75,1.62-2.64h1.43l.18.27c-1.02.86-2.04,1.72-3.06,2.58-.06-.07-.12-.14-.18-.21Z"/>
  <path class="cls-3" d="m37.75,114.73c.16-.19.32-.37.52-.61.57.31,1.4-.52,1.88.43l.02-.02-.42.2h0c-.59.26-1.19.52-1.89.84-.05-.44-.08-.65-.1-.86,0,0-.01.02-.01.02Z"/>
  <path class="cls-3" d="m37.77,114.72c-.29.27-.58.54-1.07,1.01v-1.55c.31-.02.62-.03.95-.05.04.24.07.42.11.6,0,0,.01-.02.01-.02Z"/>
  <path class="cls-3" d="m33.51,85.32c.29-.29.58-.57,1.06-1.05v1.56c-.31.01-.6.03-.93.04-.05-.22-.08-.39-.12-.57,0,0-.01.02-.01.02Z"/>
  <path class="cls-3" d="m40.15,114.55l2.15-.58c.03.12.07.23.1.35-.73.24-1.45.5-2.19.7-.12.03-.3-.19-.45-.29,0,0,0,.01,0,.01.14-.07.28-.14.42-.2l-.02.02Z"/>
  <path class="cls-3" d="m44.9,112.87c-.08.04-.16.09-.24.13-.04-.04-.07-.07-.11-.11.06-.08.11-.16.17-.24.06.07.12.14.18.21Z"/>
  <path class="cls-3" d="m44.66,113c-.06.04-.13.08-.44.27.24-.27.28-.32.33-.38.04.04.07.07.11.11Z"/>
  <path class="cls-3" d="m44.8,87.5c.07.07.13.13.2.2.13.07.27.13.4.2.14.07.27.13.41.2.07.07.13.13.2.2-.53.92-1.44.74-2.27.75-.32,0-.65-.09-.97-.13.07-.27.14-.55.2-.82.07-.07.13-.13.2-.2.07-.13.13-.27.2-.4.15-.11.3-.22.44-.33.21.05.39.09.58.13.14.07.27.13.41.2Z"/>
  <path class="cls-3" d="m44.81,90.45c-.04.1-.09.19-.13.29-.04-.01-.08-.02-.12-.03.02-.12.04-.24.06-.35.06.03.13.06.19.09Z"/>
  <path class="cls-3" d="m43.45,90.58c.07-.08.15-.16.22-.25.04.02.08.04.12.06-.05.12-.1.25-.14.37-.06-.06-.13-.13-.19-.19Z"/>
  <path class="cls-3" d="m42.77,95.12c0-.07,0-.14,0-.21.07-.13.13-.27.2-.4.07-.13.13-.27.2-.4.07-.07.14-.13.2-.2.07-.13.13-.27.2-.4.21,0,.41,0,.62,0,.13.07.27.13.4.2.13.07.27.13.4.2.07.07.13.13.2.2.13.07.27.13.4.2.13.07.27.13.4.2-.36.27-.7.71-1.08.76-.71.08-1.44-.08-2.16-.14Z"/>
  <path class="cls-3" d="m43.26,97.2c.12-.17.25-.34.37-.51.06.04.12.08.18.11-.12.19-.25.38-.37.57-.06-.06-.12-.11-.18-.17Z"/>
  <path class="cls-3" d="m42.17,97.13c.07-.14.14-.28.21-.42-.07.14-.14.28-.21.42Z"/>
  <path class="cls-3" d="m39.95,96.93c-.07-.07-.13-.13-.2-.2,0-.6,0-1.21,0-1.81.07-.13.13-.27.2-.4.41,0,.81,0,1.22,0,.65,1.52.2,2.41-1.22,2.42Z"/>
  <path class="cls-3" d="m43.37,92.5c.21,0,.41,0,.62,0,0,.21,0,.41,0,.62-.21,0-.41,0-.62,0,0-.21,0-.41,0-.62Z"/>
  <path class="cls-3" d="m22.91,107.78c1.17-.11,2.22-1.13,3.71-.36-.79.08-1.39.11-1.97.22-.57.11-1.12.31-1.67.47-.02-.11-.04-.21-.07-.32Z"/>
  <path class="cls-3" d="m22.9,110.21c1.2.03,2.26-1.23,3.66-.3-.72.08-1.34.11-1.94.22-.56.1-1.11.28-1.66.42-.02-.11-.04-.23-.06-.34Z"/>
  <path class="cls-3" d="m22.91,105.38c1.17-.09,2.22-1.14,3.59-.4-1.25.23-2.4.44-3.55.65-.01-.08-.02-.17-.03-.25Z"/>
  <path class="cls-3" d="m22.91,106.54c1.18.02,2.25-1.19,3.53-.36-1.2.22-2.35.43-3.5.64-.01-.09-.02-.19-.03-.28Z"/>
  <path class="cls-3" d="m22.91,108.97c1.17-.06,2.22-1.15,3.69-.34-.78.08-1.38.1-1.96.21-.57.11-1.12.3-1.67.46-.02-.11-.04-.22-.06-.33Z"/>
  <path class="cls-3" d="m26.65,111.04c-.86.09-1.47.12-2.08.23-.54.1-1.06.28-1.62.27,1.14-.27,2.21-1.32,3.7-.5Z"/>
  <path class="cls-3" d="m31.86,106.82c-1.15-.2-2.3-.41-3.49-.62,1.28-.84,2.34.3,3.52.37,0,.08-.02.17-.03.25Z"/>
  <path class="cls-3" d="m28.34,110.99c1.32-.83,2.38.33,3.56.37,0,.09-.02.17-.02.26-1.15-.2-2.31-.41-3.53-.63Z"/>
  <path class="cls-3" d="m31.85,105.63c-1.15-.21-2.29-.42-3.44-.63-.02-.05-.04-.1-.06-.15.59-.01,1.2-.11,1.78,0,.6.1,1.16.39,1.74.6,0,.06-.01.13-.02.19Z"/>
  <path class="cls-3" d="m28.39,107.37c1.29-.8,2.35.33,3.52.39-.01.09-.02.17-.03.26-1.14-.21-2.29-.42-3.49-.65Z"/>
  <path class="cls-3" d="m28.46,109.86q.57-.35,3.43.62c-1.15-.21-2.3-.41-3.43-.62Z"/>
  <path class="cls-3" d="m28.43,108.58c1.24-.87,2.29.4,3.46.34-.01.1-.02.19-.03.29-1.14-.21-2.27-.42-3.43-.63Z"/>
</svg>