<?xml version="1.0" encoding="UTF-8"?>
<svg id="Layer_1" data-name="Layer 1" xmlns="http://www.w3.org/2000/svg" viewBox="0 0 1449.84 425.05">
  <defs>
    <style>
      .cls-1 {
        fill: #9796b1;
      }

      .cls-2 {
        fill: #2e2d62;
      }
    </style>
  </defs>
  <path class="cls-2" d="m424.88,0v425.05H0V0h424.88ZM111.82,212.2H47.07v165.83h49.53v-60.67h21.47c15.17,20.33,30.29,40.6,45.34,60.78h214.67v-33.78h-57.41v-98.25h57.55v-44.21c-23.48-24.07-47.04-48.22-70.71-72.49,23.9-24.4,47.42-48.42,70.8-72.29.12-3.66.41-6.95-.2-10.45h-49.65c-21.78,23.18-43.61,46.4-65.43,69.62-.34-.14-.68-.29-1.02-.43V46.69h-95.69c-.91,1.65-.56,3.17-.56,4.63-.02,29.5.02,59-.03,88.51-.03,17.16-9.41,28.99-26.31,31.96-23.55,4.13-43.95-7.84-43.16-34.52.84-28.31.2-56.67.17-85,0-1.79.43-3.67-.62-5.55h-48.8c-.1,1.06-.25,1.87-.25,2.67-.01,32.17-.1,64.34.05,96.51.05,9.97,2.76,19.44,7.71,28.11,12.69,22.24,33.02,32.9,57.31,37.42.14.26.14.52,0,.79Z"/>
  <path class="cls-2" d="m783.44,151.64c7.78,12.98,15.26,25.47,23.04,38.46h-20.72c-6.64-11.4-13.48-23.14-20.35-34.95-3.72-.57-7.34-.35-11.44-.12v35.05h-17.24c-.81-3.8-1.05-89.14-.22-96.8,8.36,0,16.8-.03,25.24.01,4.33.02,8.7-.21,12.98.31,12.72,1.53,22.02,9.65,24.89,21.29,3.2,12.97-1.4,26.11-11.84,33.76-1.33.97-2.7,1.87-4.34,3Zm-29.2-40.58v26.22c5.46,0,10.61.15,15.74-.04,6.93-.26,11.86-5.87,12.02-13.36.16-7.31-3.8-12.18-11.07-12.74-5.44-.42-10.94-.08-16.68-.08Z"/>
  <path class="cls-2" d="m576.28,93.44h18.55c.23.45.51.74.51,1.03-.08,20.99,1.13,42.01-.55,62.94-1.77,22.03-19,35.23-42.22,33.34-21.4-1.74-34.23-15.32-35.03-38.56-.65-19.14-.12-38.32-.1-57.48,0-.3.21-.61.42-1.17h18.29c1.16,1.59.55,3.49.56,5.24.1,16.83.16,33.66.16,50.49,0,2.7.45,5.3,1.03,7.9,2.19,9.78,9.01,15.3,18.79,15.25,9.52-.06,16.07-5.53,18.23-15.23.69-3.1,1.02-6.22,1.01-9.41-.04-17.66,0-35.33.01-52.99,0-.31.14-.62.33-1.35Z"/>
  <path class="cls-2" d="m688.31,190.2h-21.63c-9.31-13.44-18.68-26.97-28.1-40.58h-7.58v40.39h-18.73v-96.38h18.28v36.98c2.63,1.23,5.09.5,7.72.64,8.11-12.57,16.2-25.13,24.35-37.75h21.48c-10.11,15.8-19.94,31.16-30.02,46.9,11.24,16.35,22.5,32.74,34.24,49.81Z"/>
  <path class="cls-2" d="m721.81,267.9v-34.26h17.04v97.58h-13.24c-.66-1.77-1.39-3.75-2.11-5.66-1.11-.56-1.9-.13-2.76.51-14.08,10.43-33.08,7.33-42.59-7.51-8.63-13.47-8.9-27.77-.93-41.6,9.09-15.76,27.02-19.33,44.6-9.05Zm-.06,29.04c-.01-10.82-6.01-18.01-15.05-18.04-9.52-.03-16.69,7.62-16.79,17.92-.1,10.45,7.29,18.46,16.92,18.34,8.96-.11,14.92-7.4,14.91-18.23Z"/>
  <path class="cls-2" d="m1249.81,127.81c3.07.61,4.01-1.36,5.4-2.39,15.54-11.43,36.77-4.23,41.8,14.27.61,2.24,1.05,4.55,1.25,6.86,1.1,13.13.25,26.29.51,39.43.02,1.29,0,2.59,0,4.09h-18.28c-1.04-1.33-.53-2.88-.53-4.31-.05-10.49-.02-20.98-.03-31.47,0-1.5.02-3-.08-4.49-.51-7.54-2.99-11.43-8.15-12.87-5.67-1.58-13.12,1.26-16.72,6.36-3.22,4.56-4.02,9.77-4.03,15.17-.02,10.45,0,20.91,0,31.6h-18.49v-97.53h17.38v35.28Z"/>
  <path class="cls-2" d="m1017.45,161.13h-49.76c1.26,6.2,4.52,10.13,9.92,12.32,7.87,3.2,14.94,1.83,21.09-3.98h16.96c-3.63,14.81-21.87,24.43-38.87,20.64-18.34-4.09-30.04-22.31-26.62-41.47,3.34-18.76,20.21-30.91,39.05-28.13,19.42,2.86,30.89,19.08,28.23,40.62Zm-18.75-14.62c-1.75-7.06-6.44-10.81-13.52-11.04-7.27-.23-13.74,4.26-15.77,11.04h29.3Z"/>
  <path class="cls-2" d="m876.72,161.13h-49.61c2.8,14.19,18.48,18.16,31.1,8.28h16.49c-2,13.48-19.35,23.4-36.55,21-18.6-2.6-31.56-20.53-28.99-40.12,2.54-19.37,18.92-32.03,38.62-29.85,19.49,2.16,31.06,18.1,28.94,40.69Zm-48.62-14.61h29.7c-1.38-6.73-5.48-10.26-12.47-11-7-.74-13.57,3.34-17.23,11Z"/>
  <path class="cls-2" d="m583.57,318.64v12.16c-9.23,2.01-15.12-.1-20.2-7.3-8.59,9.14-19.29,10.22-30.77,7.8-9.41-1.98-15.46-8.37-16.56-17.05-1.11-8.78,3.09-16.11,11.85-20.58,6.32-3.22,13.18-4.51,20.15-5.34,3.3-.39,6.6-.67,9.88-1,.15-5.32-1.35-7.99-5.27-9.55-5.97-2.37-12.19-.59-16.76,4.82-5.46,0-10.92,0-16.67,0,.98-9.01,5.7-14.94,13.64-18.24,8.09-3.36,16.52-3.61,24.94-1.34,10.11,2.73,15.54,9.67,17.16,19.83,1.35,8.45.6,16.97.75,25.45.13,7.19.9,8.31,7.84,10.33Zm-25.48-17.26c-6.82.74-13.41,1.21-19.56,3.89-2.87,1.25-5.26,3.07-4.72,6.73.56,3.78,3.34,5.04,6.66,5.58,9.84,1.61,18.47-7.02,17.62-16.2Z"/>
  <path class="cls-2" d="m1187.65,323.34c-9.75,11.72-29.1,10.45-38.09,5.04-11.68-7.02-12.51-23.88-1.47-32.09,7.19-5.35,15.71-6.89,24.34-7.96,3.43-.43,6.88-.73,10.43-1.09-.13-4.9-2.09-8.26-6.58-9.75-6-1.99-11.62-.14-16.06,5.3h-16.45c.37-6.8,3.23-11.63,8.02-15.31,9.06-6.97,26.68-7.88,36.54-2,8.49,5.06,11.24,13.21,11.57,22.43.24,6.82,0,13.65.06,20.48.06,6.72,1.29,8.26,7.98,10.24v12.59c-8.1.86-15.42.27-20.27-7.87Zm-5.16-22.09c-7.12,1.02-13.96,1.27-20.19,4.3-2.46,1.2-4.66,3.01-4.27,6.11.42,3.37,2.78,5.05,6,5.79,7.98,1.84,18.76-4.06,18.46-16.21Z"/>
  <path class="cls-2" d="m1073.9,182.28c-10.74,10.3-22.9,10.48-35.53,5.87-6.71-2.45-10.73-7.71-11.53-15.03-.84-7.72,1.47-14.16,8.05-18.67,8.73-5.97,18.86-7.02,28.97-8.11,1.62-.17,3.35.35,4.86-.63.05-5.43-1.62-8.06-6.07-9.54-6.3-2.09-11.8-.38-15.85,5h-16.73c.08-5.96,2.7-10.54,6.89-14.23,9.25-8.15,28.96-9.09,39-2,6.98,4.93,9.76,12.06,10.06,20.23.26,7.15-.04,14.33.1,21.49.14,6.99,1.44,8.62,7.85,10.45.88,4.1.28,8.36.4,12.92-8.35.85-15.64-.33-20.46-7.77Zm-5.2-22.17c-6.96.41-13.49,1.14-19.64,3.8-2.87,1.24-5.22,3.15-4.64,6.74.6,3.68,3.38,5.14,6.7,5.6,10.04,1.41,18.3-7.06,17.57-16.14Z"/>
  <path class="cls-2" d="m910.44,262.51h14.09c.88,2.82,1.7,5.49,2.47,7.95,1.7.49,2.48-.31,3.36-1.14,7.68-7.24,16.86-8.98,26.87-6.85,7.29,1.55,12.46,6.04,15.74,12.71,1.93,3.93,3.12,8.1,3.39,12.44.91,14.44.17,28.89.44,43.61h-18.71c0-3.79,0-7.41,0-11.03-.02-9.5.13-19-.13-28.49-.2-7.35-3.75-12.23-9.04-13.41-6.66-1.49-13.49,1.56-17.05,7.55-2.57,4.32-3.1,9.07-3.1,13.95,0,10.31,0,20.62,0,31.32h-18.32v-68.61Z"/>
  <path class="cls-2" d="m829.47,262.53h13.59c1.89,2.35,1.22,5.8,3.22,8.06,1.42.32,2.24-.5,3.1-1.32,7.83-7.49,17.24-8.98,27.35-6.66,9.88,2.26,16.84,11.31,18.24,23.19,1.76,14.94.25,29.93.92,45.3h-18.91c0-11.2-.02-22.48.01-33.76,0-3.16.07-6.3-.77-9.41-2.34-8.65-8.76-12.04-17.19-8.98-6.9,2.5-11.12,8.97-11.24,17.8-.14,10.33-.04,20.66-.04,30.99,0,.98,0,1.97,0,3.36h-18.29v-68.56Z"/>
  <path class="cls-2" d="m1059.09,296.99c-.05,20.58-15.08,35.42-35.78,35.34-20.38-.08-34.99-14.98-34.86-35.58.12-20.07,15.19-35,35.56-35.26,20.06-.25,35.13,15,35.07,35.49Zm-52.36-.03c.08,1.1.11,2.1.22,3.09,1.06,9.1,8.07,15.84,16.76,16.11,8.15.26,14.55-5.29,16.62-14.28,1.08-4.7.55-9.23-1.21-13.64-3.83-9.56-14.65-13.25-23.54-7.96-6.33,3.77-8.66,9.73-8.84,16.69Z"/>
  <path class="cls-2" d="m1372.09,297.08c-.08,20.57-15.12,35.37-35.85,35.26-20.36-.1-34.91-15.02-34.79-35.66.12-20.01,15.35-35.03,35.65-35.17,20.12-.14,35.06,15.06,34.98,35.58Zm-52.32.63c.05.65.07,1.82.24,2.96,1.13,7.65,6.13,13.2,13.41,14.89,6.69,1.56,13.23-.93,17-6.46,4.81-7.06,4.61-18-.51-24.87-2.6-3.49-6.05-5.57-10.43-6.04-11.36-1.22-19.78,6.88-19.71,19.51Z"/>
  <path class="cls-2" d="m594.04,262.45h13.41c2.08,2.23,1.37,5.7,3.21,7.96,1.51.61,2.3-.35,3.14-1.13,7.55-7.1,16.57-8.86,26.42-6.89,8.76,1.76,14.32,7.42,17.36,15.62.98,2.63,1.87,5.43,2.06,8.2,1,14.94.18,29.89.5,45.07h-18.38c0-5.87.1-11.65-.02-17.42-.17-7.82.67-15.67-.52-23.46-1.17-7.69-4.16-11.31-9.76-12.21-6.6-1.07-13.16,2.07-16.41,8.01-2.29,4.19-2.95,8.8-2.95,13.52,0,10.33,0,20.66,0,31.39h-18.04v-68.66Z"/>
  <path class="cls-2" d="m1384.04,262.45h13.5c1.84,2.29,1.42,5.62,2.93,7.91,1.63.66,2.45-.24,3.29-1.04,7.68-7.28,16.89-8.97,26.87-6.84,7.86,1.68,13.17,6.71,16.36,14.06,1.47,3.4,2.67,6.97,2.72,10.58.22,14.61.09,29.23.09,44.12h-18.17c0-11.28-.12-22.38.07-33.48.06-3.55-.2-7.04-1.03-10.4-2.36-9.56-13.38-12.56-21.5-6-5.56,4.49-6.97,10.74-7.05,17.41-.11,10.65-.03,21.31-.03,32.35h-18.05v-68.66Z"/>
  <path class="cls-2" d="m1220.99,146.31h-18.23c-7.7-10.09-18-11.96-26.07-4.8-7.64,6.77-7.99,20.07-.73,27.43,7.59,7.69,17.55,6.64,26.11-2.96h18.2c-.36,11.07-14.82,25.36-32.97,24.88-18.73-.5-33.84-14.38-34.54-32.53-.78-20.32,12.48-36.15,31.77-37.92,17.91-1.65,34.08,9.65,36.45,25.9Z"/>
  <path class="cls-2" d="m1081.36,262.45c5.44,17.1,10.82,34.04,16.2,50.97.65.02,1.3.04,1.95.06,6.07-16.81,10.66-34.15,16.5-51.05h17.69c-.15,3.86-18.02,60.19-21.83,68.83h-26.85c-7.33-22.59-14.72-45.41-22.26-68.67,6.38-.52,12.4-.27,18.6-.15Z"/>
  <path class="cls-2" d="m886.29,166.46h16.71c3.19,7.87,7.7,10.57,14.9,9.07,2.86-.6,4.92-2.02,5.38-5.1.44-3-.82-5.23-3.42-6.62-2.51-1.35-5.3-1.91-8.07-2.52-5.05-1.11-10.03-2.42-14.49-5.17-11.37-7.02-12.12-22.18-1.49-30.23,9.9-7.5,27.28-7.61,37.09-.06,4.92,3.79,8.1,8.67,8.33,15.41h-16.62c-2.46-4.99-6.92-6.85-12.57-5.82-2.75.5-5.13,1.81-5.45,5-.31,3.04,1.78,4.62,4.2,5.49,2.8,1.01,5.75,1.64,8.66,2.3,3.25.74,6.42,1.69,9.5,2.95,6.78,2.76,11.53,7.18,12.31,14.91.83,8.29-1.79,15.12-8.66,20.03-11.5,8.21-31.49,5.7-40.67-5.04-3.47-4.07-5.23-8.81-5.62-14.59Z"/>
  <path class="cls-2" d="m1222.09,277.36h-13.39c-.5-4.63-.47-9.01-.03-13.37,2.14-.91,4.14-.42,6.1-.5,5.66-.22,8.14-2.59,8.3-8.32.12-4.31.02-8.63.02-13.32h17.01v20.35h17.14v14.97h-17.09c0,11.02-.24,21.47.11,31.91.17,4.95,5.45,8.1,10.72,7.05,1.92-.38,3.77-1.15,6.05-1.86,2.11,3.87,4.22,7.76,6.29,11.56-5.35,6.23-16.11,8.28-25.48,5.02-9.83-3.42-15.64-11.42-15.73-21.96-.09-10.31-.02-20.63-.02-31.53Z"/>
  <path class="cls-2" d="m793.15,234.97h18.59v96.14h-18.59v-96.14Z"/>
  <path class="cls-2" d="m1104.72,121.3h13.9c.85,2.34,1.68,4.65,2.84,7.87,8.06-6.18,16.56-10.25,26.99-8.53v17.34c-3.62-.09-7.03-.61-10.52.07-9.62,1.87-14.94,7.84-14.99,17.59-.07,11.32-.02,22.64-.02,34.32h-18.2v-68.66Z"/>
  <path class="cls-2" d="m1271.05,331.41v-68.79h17.6v68.59c-5.7.59-11.43.23-17.6.2Z"/>
  <path class="cls-2" d="m1279.57,231.32c6.7-.12,12.18,5.29,12.12,11.95-.06,6.2-5.22,11.36-11.52,11.52-6.85.17-12.24-4.96-12.26-11.67-.02-6.52,5.08-11.68,11.65-11.8Z"/>
  <path class="cls-1" d="m111.82,211.42c1.11-.24,2.19-.23,3.24.39-1.04.62-2.12.63-3.24.39.14-.26.14-.52,0-.79Z"/>
  <path class="cls-2" d="m172,314.71c40.15-10.28,49.78-25.07,44.78-68.28h53.39v97.89h-57.53v21.53c-.41.16-.82.31-1.23.47-13.03-17.07-26.07-34.13-39.41-51.61Z"/>
  <path class="cls-2" d="m96.65,283.36v-36.5c1.22-.99,2.43-.68,3.56-.68,14.33-.02,28.66-.02,42.99,0,4.35,0,8.64.55,12.76,2.02,7.69,2.74,11.71,8.26,11.79,16.12.08,7.95-3.76,13.61-11.22,16.6-2.81,1.13-5.77,1.82-8.73,1.99-16.95.95-33.91.2-51.14.47Z"/>
  <path class="cls-2" d="m262.41,141.92c22.11,23.61,43.59,46.55,65.57,70.03h-65.57v-70.03Z"/>
  <path class="cls-2" d="m149.97,211.39c22.75-4.32,42.21-14.04,55.45-33.9,2.31-3.46,4.2-7.17,5.59-11.11l1.4.21v69.4c-.7,0-1.17.13-1.28-.02-10.56-13.85-25.7-18.86-41.94-21.55-6.39-1.06-12.89-1.39-19.35-2.05.05-.33.09-.66.14-.99Z"/>
  <path class="cls-1" d="m212.4,166.6l-1.4-.21c-.21-1.14.43-1.8,1.21-2.5,1.09.99.58,1.85.19,2.71Z"/>
  <path class="cls-1" d="m149.97,211.39c-.05.33-.09.66-.14.99-1.13.31-2.2.36-3.12-.59,1.03-.68,2.14-.61,3.25-.4Z"/>
</svg>