<?xml version="1.0" encoding="UTF-8"?>
<svg id="Layer_3" data-name="Layer 3" xmlns="http://www.w3.org/2000/svg" viewBox="0 0 200 200">
  <defs>
    <style>
      .cls-1 {
        fill: #fff;
      }

      .cls-2 {
        fill: #c2444d;
      }
    </style>
  </defs>
  <g>
    <rect class="cls-2" x="20.1" y="101.78" width="159.9" height="78.22"/>
    <path class="cls-1" d="m165.35,126.31c-.86.52-4.21.55-6.2.55v-7.59c0-1.35,0-2.8.12-4.21,0-.71-.18-1.08-1.47-1.08h-1.54c.12,1.84.18,3.6.18,5.35v3.94c0,1.38,0,2.77-.12,4.21,0,.55,0,1.08,1.35,1.08h6.73c.52-.09.92-.52.98-1.05,0-.03-.03-.4-.03-1.2Zm-34.59-4.95h-1.6c.18,1.05.25,2.12.18,3.2v2.15c-.98.34-2.06.52-3.1.49-2.95.15-5.47-2.12-5.62-5.07v-.74c0-3.35,1.9-5.97,5.44-5.97,1.78.12,3.47.83,4.79,2.03l.46-1.29c.22-.49,0-1.05-.49-1.29-1.51-.68-3.13-1.01-4.79-.98-4.79,0-8.42,2.28-8.42,7.47s3.66,7.44,8.32,7.44c2.06-.09,4.09-.43,6.05-1.05v-5.32c0-.58-.46-1.08-1.08-1.08-.06-.03-.12,0-.15,0Zm14.22,17.8h-2.4c.03.4-.03.83-.18,1.2-.49,1.01-1.08,2.06-1.6,3.07s-1.81,3.07-2.4,4c-1.44-2.37-2.7-4.8-3.99-7.23-.37-.68-1.11-1.11-1.87-1.01h-2.98c2.52,3.6,4.45,6.86,6.54,10.42,0,2.06,0,4.8-.15,6.92-.03.52.37,1.01.92,1.05.09,0,.18,0,.28-.03h2.67c-.31-2.61-.31-5.63-.31-8.15,1.72-3.11,3.72-6,5.84-9.13.15-.18.22-.4.18-.65,0-.28-.25-.49-.52-.49h-.03v.03Zm-38.21-21.86c.06-1.2,1.11-2.12,2.3-2.06h.06c1.29,0,2.52.71,3.19,1.81.4-.52.68-1.14.77-1.81,0-1.23-2.8-1.6-3.75-1.6-2.52,0-4.98,1.38-4.98,4.12,0,4.8,6.82,3.51,6.82,6.7.06,1.32-.98,2.43-2.3,2.49h-.31c-1.66.03-3.23-.74-4.24-2.09-.18.58-.31,1.17-.37,1.75-.06.55.28,1.08.77,1.32.95.46,2,.71,3.07.71,2.89,0,5.65-1.6,5.65-4.8.09-4.55-6.7-3.17-6.7-6.55Zm-5.87-3.38h-1.94c-.37,1.2-.89,2.31-1.6,3.35-.83,1.32-1.6,2.61-2.03,3.2-1.17-1.88-2.27-3.78-3.41-5.66-.31-.58-.95-.89-1.6-.83h-2.4c2.03,2.77,3.9,5.63,5.71,8.55v1.6c0,1.35-.12,2.8-.12,3.6.03.46.4.8.86.77h2.09c-.18-2.09-.28-4.18-.22-6.3,1.04-1.78,2.21-3.54,3.44-5.2.49-.74,1.04-1.48,1.6-2.18.09-.15.18-.31.18-.49-.03-.25-.25-.43-.49-.4-.03-.03-.06-.03-.09,0Zm-16.62.06h-8.26c0,.77.12,1.51.18,2.28v5.38c0,2.52-.12,3.84-.12,5.81-.06.52.31,1.01.83,1.08h2.09c-.03-1.69-.18-3.32-.18-5.01v-1.91c1.94-.03,3.87.09,5.77.37,0-.68.18-1.94-.83-1.94s-2.95.22-4.95.22v-4.74c2.09-.09,4.15.06,6.17.52.15-.77.37-2.03-.71-2.06h0Zm-15.27,6.52c0-2.89.15-3.57.15-5.35.12-.55-.25-1.11-.8-1.23-.12-.03-.25-.03-.4,0h-1.72c.18,2.24.28,4.49.22,6.73,0,3.6-.15,4.4-.15,6.61-.09.58.31,1.11.89,1.2h2.03c-.12-1.63-.22-4.06-.22-7.96h0Zm11.4,30.16c-1.81.65-3.75.92-5.65.74-.55,0-.65-.34-.68-1.01v-5.23c1.84-.09,3.72.09,5.5.52v-1.17c0-.77-.43-1.08-1.51-1.08s-2.58.18-4.12.18v-5.57c4.36,0,5.47.37,6.11.65v-.86c.03-.74-.52-1.38-1.26-1.48h-8.29c.34.77.46,1.6.43,2.46v7.99c0,1.57-.03,3.17-.12,4.8,0,.83.15,1.32,1.01,1.32h7.13c.65.15,1.26-.25,1.41-.86,0-.06.03-.12.03-.18v-1.23h0Zm-24.97-14.45c-2.76-1.35-5.77-2.06-8.85-2.06-10.04,0-16.71,8.12-16.71,17.99s7.31,15.84,16.65,15.84c3.47.06,6.85-.92,9.77-2.8l-.37-3.2c-2.06,1.91-4.7,3.04-7.49,3.2-8.26,0-13.79-6.86-13.79-14.85,0-6.83,3.9-13.56,11.4-13.56,2.52-.06,4.98.8,6.94,2.43,1.08.92,1.84,2.15,2.18,3.54.98-1.26,1.63-2.74,1.9-4.3-.09-1.01-.74-1.84-1.63-2.21Zm88.71-22.39c-4.79,0-7.99,2.55-7.99,7.47,0,4.61,3.59,7.41,7.99,7.41s8.11-2.77,8.11-7.35-3.62-7.53-8.11-7.53h0Zm0,13.38c-3.38,0-5.07-2.86-5.07-5.93s1.69-5.97,5.07-5.97,5.07,2.86,5.07,6.03c.03,3.41-1.2,5.9-5.07,5.87h0Zm14.38,9.19h-8.14c.37.58.55,1.23.58,1.91.18,2.49.31,4.89.31,7.38h-7.8c.34.58.55,1.23.61,1.91.22,2.68.31,5.17.31,7.84,0,3.41,0,6.86-.22,10.27,0,.52.43.92.95.89h6.14c6.54,0,11.43-3.54,11.76-10.12,4.33-1.38,7.19-5.5,6.91-10.05.06-7.16-4.61-10.02-11.27-10.02h-.15Zm4.45,17.9c-.52-5.1-3.72-7.59-8.32-8.33,0-2.8.12-5.26.22-7.84.74-.12,1.47-.18,2.21-.18,5.41,0,9.12,3.2,9.12,8.76.25,2.89-.92,5.75-3.16,7.59h-.06Zm-4.52,1.29h-2.55c-.49.06-.95-.28-1.01-.77v-.09c-.15-2.24-.28-4.49-.28-6.52,2.92,1.26,4.79,4.15,4.79,7.35l-.95.03Zm-6.85,9.32h-2.52c-.49.09-.95-.25-1.04-.74v-.09c-.15-2.49-.22-4.8-.22-7.23,0-3.11,0-6.4.25-9.38.74-.12,1.47-.15,2.21-.15.37-.03.74-.03,1.08,0,0,3.04-.06,6.09-.22,9.1.03.49.46.89.95.86h7.31c-.34,4.4-2.73,7.63-7.71,7.63h-.09Zm-36.06-28.38h-9.86c.55.77.77,2.28.95,5.32.12,2.21.18,4.46.18,6.7,0,2.74-.03,5.47-.12,8.21,0,1.51-.18,2.95-.18,4.46,0,.61.52,1.11,1.14,1.11h7.59c8.32,0,14.53-4.61,14.53-13.35s-5.87-12.45-14.22-12.45Zm0,23.65h-3.19c-.61.09-1.17-.31-1.26-.92v-.09c-.12-.74-.15-1.84-.18-2.61,0-1.69-.12-4.21-.12-6.3,0-3.87.18-7.72.34-11.53.95-.15,1.9-.25,2.86-.25,6.67,0,11.27,3.78,11.27,10.79.06,6.18-2.95,10.92-9.55,10.92h-.15Zm-20.12-7.9c3.93-.95,6.73-4.46,6.79-8.52,0-5.41-4.79-7.38-9.58-7.38-3.04,0-6.11,0-9.18.12.37.95.55,1.94.52,2.95v9.66c0,7.16-.34,11.28-.34,12.64,0,.55.22.65.71.65h4.79c-.28-.43-.46-.92-.49-1.41-.34-2.58-.49-5.23-.49-7.84h3.19c1.32,2.09,2.98,4.55,4.79,7.01,2.83,3.72,6.67,7.99,11.18,7.99,1.14-.09,2.3-.22,3.44-.43-5.25-1.81-12.07-10.73-15.2-15.47l-.12.03Zm-4.67-1.08h-2.61v-4.49c0-2.71,0-5.78.22-8.39.77,0,1.69-.15,2.55-.15,3.81,0,6.88,2.03,6.88,6.15.12,3.69-2.8,6.8-6.48,6.89h-.55Zm-33.91-28.9c2.06-.4,3.53-2.18,3.62-4.27,0-3.11-2.73-4-5.31-4h-5.22c.18.31.31.61.34.98.12,1.6,0,4.09,0,6.12v6.4c-.03.49.31.92.8.95h2.18c-.22-1.88-.31-3.78-.28-5.66h1.6c.98,1.78,2.09,3.38,3.38,5.17.92,1.41,2.52,2.21,4.21,2.09h.71c-2.3-2.37-4.3-4.98-6.02-7.78Zm-3.19-.8h-.83v-6.24h1.29c1.84-.22,3.47,1.11,3.69,2.95,0,.09,0,.15.03.25.06,2.4-2.12,3.11-4.18,3.04h0Zm-12.78-7.44h-5.28c.25.86.37,1.72.34,2.61v10.64c-.09.55.28,1.08.83,1.2.06,0,.15.03.22,0h1.81c-.15-1.75-.18-3.78-.18-5.66h1.35c2.95,0,6.17-1.41,6.17-4.8-.09-3.07-2.67-3.94-5.25-4h0Zm-1.2,7.63h-1.17v-6.3h1.44c1.9,0,3.38.74,3.38,2.89.06,1.84-1.38,3.38-3.23,3.41h-.43Zm30.81,36.44l-7.77-17.77c-.09-.65-.65-1.11-1.29-1.11h-.49l-8.97,19.16c-.15.28-.22.58-.22.89.06.34.4.52.74.46h2c-.03-.15-.03-.31,0-.46,0-.37.09-.77.22-1.11l1.9-4.64h7.68l2.09,5.2c.12.58.65,1.01,1.26.98h3.81c-.4-.46-.74-.98-.95-1.6Zm-13.12-6.4l3.19-7.56,3.04,7.56h-6.24Z"/>
  </g>
  <g>
    <rect class="cls-2" x="20" y="20" width="159.67" height="75"/>
    <path class="cls-1" d="m168.19,29.89h-15.42c.52,4.95.71,9.93.55,14.91,0,5.14-.43,13.84-.43,15.37-.09.77.46,1.45,1.23,1.51h4.3c-.25-.71-.4-1.45-.43-2.18-.34-4.61-.46-9.32-.46-13.9l2.37-.15c2.46-.15,4.95.15,7.31.86.25-.49.4-1.05.46-1.6-.15-.95-1.08-1.6-2.03-1.45-.03,0-.09,0-.12.03h-7.99c0-3.75.15-7.5.31-11.19h2.49c2.21,0,7.99,0,9.74,1.08.15-.55.18-1.14.15-1.72-.09-.95-.92-1.69-1.9-1.6-.06,0-.09,0-.12.03Zm-19.69,1.63h-13.39c.74,1.32.71,10.61.71,12.55,0,4-.37,9.75-.37,12.02-.12.68.34,1.35,1.04,1.45.06,0,.12,0,.15.03h3.96c-.46-1.69-.68-3.44-.65-5.17v-7.59c.55,0,1.6-.12,2.33-.12,2.06-.12,4.15.15,6.11.86,0-.55.15-1.11.15-1.69-.03-.74-.65-1.29-1.38-1.26-.06,0-.12,0-.22.03h-7.03c0-2.95.15-5.87.25-8.86h2.58c2.73-.15,5.5.22,8.11,1.08v-.15c0-1.69-.46-3.17-2.37-3.17Zm-18.77,13.44c0-2.15,0-4.27.12-6.4,0-1.11.15-2.28.15-3.41-.06-.52-.52-.92-1.04-.86h-3.66c.43,3.29.58,6.61.49,9.93,0,2.06,0,4.15-.12,6.27v2.89c-.03.65.43,1.2,1.08,1.23h3.53c-.46-3.2-.65-6.43-.61-9.66h.06Zm35.45,24.66h-1.9c-.37,1.2-.89,2.31-1.6,3.35-.77,1.32-1.6,2.61-1.97,3.11-1.2-1.84-2.27-3.75-3.44-5.63-.31-.58-.95-.92-1.6-.83h-2.4c2.06,2.77,3.93,5.63,5.74,8.55v1.6c0,1.38-.15,2.77-.15,3.57.03.46.46.8.92.77.03,0,.06,0,.09-.03h1.94c-.18-2.06-.22-4.12-.22-6.21,1.04-1.81,2.24-3.54,3.44-5.2.52-.74,1.04-1.48,1.6-2.18.06-.12.09-.25.09-.4,0-.25-.18-.46-.43-.46h-.12Zm-14.13,0h-10.6c-.77-.09-1.51.46-1.6,1.23v.83c1.6-.22,3.19-.28,4.79-.25.09,1.84.09,3.44.09,5.2,0,2.95-.15,4.34-.15,6.52-.03.52.37.95.89,1.01.09,0,.18,0,.28-.03h1.81c-.22-2.46-.28-4.92-.22-7.38v-5.23c1.41,0,2.8.18,3.81.18.58-.09,1.01-.65.92-1.23v-.8h0v-.06h-.03Zm-14.59,6.52c0-2.89.15-3.57.15-5.35.12-.55-.25-1.11-.8-1.23-.12-.03-.25-.03-.4,0h-1.72c.18,2.24.28,4.49.22,6.73,0,3.6-.15,4.43-.15,6.61-.09.58.31,1.11.89,1.2h2.03c-.15-1.63-.25-4.06-.25-7.93l.03-.03Zm-13.15-3.2c.06-1.2,1.08-2.09,2.27-2.03h.12c1.29,0,2.49.68,3.19,1.75.4-.52.68-1.14.77-1.81,0-1.23-2.8-1.51-3.72-1.51-2.55,0-5.01,1.35-5.01,4.09,0,4.8,6.82,3.54,6.82,6.7.06,1.35-1.01,2.46-2.33,2.52h-.28c-1.66-.03-3.19-.83-4.15-2.18-.18.58-.31,1.17-.37,1.75-.06.55.28,1.08.77,1.32.95.49,2,.74,3.07.74,2.89,0,5.65-1.6,5.65-4.8-.06-4.61-6.82-3.14-6.82-6.55h0Zm-20.89,9.04c-1.41.49-2.89.68-4.36.61h-1.01c-.55,0-.55-.31-.55-.77v-4.52c1.78-.06,3.53.09,5.28.46v-1.17c0-.49-.4-.89-.86-.89-.06,0-.15,0-.22.03-1.38,0-2.89.15-4.27.15v-2.55c0-.71,0-1.48.12-2.21,1.94-.09,3.87.09,5.77.52,0-.86,0-1.97-1.26-1.97h-7.59c.15.25.28.52.31.83.12,1.75.12,3.54.12,5.29,0,2.46-.12,4.8-.12,7.32-.09.43.15.86.58.95.09.03.18.03.28.03h6.7c.55.06,1.04-.31,1.11-.86v-1.26h-.03Zm-11.98-12.39h-2.03c.03.8-.12,1.6-.49,2.31-1.14,2.77-2.64,6.24-3.78,8.61-.74-1.6-1.9-4.4-2.86-6.64-.49-1.14-.86-2.12-1.35-3.2-.31-.74-1.04-1.17-1.84-1.05h-1.87c2.24,4.8,4.48,9.59,6.48,14.61h1.9c1.9-4.64,4.09-9.13,6.2-13.74.03-.09.03-.18,0-.25.09-.28-.06-.55-.34-.65.03,0,0,0-.03,0h0ZM54.94,31.31c-2.73-1.35-5.74-2.06-8.79-2.06-10.04,0-16.71,8.12-16.71,17.99s7.31,15.84,16.65,15.84c3.47.06,6.91-.92,9.83-2.8l-.37-3.2c-2.06,1.94-4.73,3.07-7.53,3.2-8.23,0-13.76-6.86-13.76-14.85,0-6.83,3.9-13.53,11.4-13.53,2.52-.06,4.98.8,6.94,2.43,1.08.92,1.84,2.15,2.18,3.54.95-1.29,1.63-2.77,1.9-4.34-.15-1.05-.8-1.88-1.75-2.21Zm18.25,44.86c0-2.89.15-3.57.15-5.35.12-.55-.22-1.11-.77-1.23-.12-.03-.25-.03-.4,0h-1.75c.18,2.24.28,4.49.22,6.73,0,3.6-.15,4.43-.15,6.61-.09.58.31,1.11.89,1.2h2.09c-.18-1.66-.28-4.09-.28-7.96Zm-7.86-6.52h-1.44c.12,2.43.15,4.8.15,7.32v2.52c-3.5-3.2-6.79-6.61-10.23-9.96h-1.11v2.09c0,2.8,0,6.64-.12,8.43s-.25,2.4-.25,3.44c-.03.34.18.61.52.65.09,0,.15,0,.25-.03h1.6c-.18-1.54-.28-3.11-.25-4.64v-5.29c3.47,3.41,6.94,6.61,10.23,10.21h1.14c0-2.46-.12-4.8-.12-7.29,0-1.35.12-2.58.15-3.81s.18-2.21.18-2.86c.06-.37-.15-.71-.52-.77-.06,0-.12,0-.18,0Zm-17.94,0h-1.35c.22,1.32.31,2.64.28,3.97v3.69c0,2.95-.89,5.29-4.33,5.29-3.96,0-4.36-2.4-4.36-5.78,0-2.18.22-4.8.22-6.55.03-.37-.28-.68-.61-.68h-2.33c.12,1.6.15,2.68.15,5.17v3.57c0,4.3,2.43,6.03,6.54,6.03s6.39-2.09,6.57-6.12c.18-4,.34-6.61.34-7.87.03-.43-.28-.83-.71-.86-.12,0-.25,0-.37.03v.12h-.03Zm60.02-38.01l-9.86.09c.52.83.74,2.34.89,5.35.15,2.21.18,4.46.18,6.7,0,2.74,0,5.44-.12,8.18,0,1.51-.15,3.01-.15,4.49.03.65.58,1.11,1.2,1.08h7.46c8.35,0,14.59-4.61,14.59-13.35s-5.87-12.55-14.19-12.55Zm0,23.65h-3.19c-.58.12-1.14-.28-1.26-.83,0-.06-.03-.15-.03-.22-.12-.86-.18-1.72-.18-2.58,0-1.69-.12-4.21-.12-6.3,0-3.87.15-7.72.31-11.59.92-.12,1.87-.22,2.8-.18,6.67,0,11.18,3.78,11.18,10.79.15,6.18-2.8,10.95-9.46,10.95l-.03-.03Zm5.77,22.63c2.06-.37,3.56-2.15,3.66-4.24,0-3.11-2.7-4-5.31-4h-5.22c.22.28.31.61.34.98.12,1.6,0,4.06,0,6.09v6.4c-.06.46.28.89.77.95.09,0,.22,0,.31-.03h1.9c-.22-1.88-.31-3.78-.25-5.66h1.6c1.11,1.81,2.21,3.47,3.5,5.23.92,1.41,2.52,2.21,4.21,2.09h.77c-2.3-2.4-4.36-5.01-6.14-7.84h-.12v.03Zm-3.19-.77h-.74v-1.45c0-1.08,0-3.72.12-4.8h1.26c1.84-.22,3.47,1.11,3.69,2.95,0,.09,0,.15.03.25-.03,2.37-2.18,3.04-4.24,3.04h-.12Zm-38.58-23.98l-7.71-17.77c-.09-.65-.65-1.11-1.29-1.11h-.49l-8.97,19.1c-.15.28-.25.61-.22.95,0,.34.43.43.74.43h1.97c-.03-.15-.03-.31,0-.46,0-.37.09-.77.22-1.11l1.84-4.67h7.68l2.15,5.23c.15.58.71.98,1.32.95h3.81c-.43-.4-.74-.92-.98-1.45l-.06-.09Zm-13.21-6.4l3.32-7.56,3.01,7.56h-6.33Zm28.35.58c3.9-1.01,6.67-4.52,6.7-8.55,0-5.41-4.79-7.38-9.58-7.38-3.04,0-6.11,0-9.18.12.37.95.55,1.94.52,2.95v9.66c0,7.16-.34,11.28-.34,12.64,0,.55.22.65.71.65h4.79c-.22-.43-.34-.89-.34-1.38-.34-2.58-.49-5.23-.49-7.84h3.19c1.32,2.09,2.98,4.55,4.79,7.01,2.83,3.72,6.67,7.99,11.18,7.99,1.11-.03,2.21-.09,3.32-.22-5.25-1.94-12.07-10.85-15.2-15.56l-.06-.09Zm-4.67-1.05h-2.61v-4.43c0-2.71,0-5.78.22-8.39.86-.09,1.75-.15,2.61-.15,3.81,0,6.91,2.03,6.91,6.15.12,3.69-2.76,6.8-6.48,6.92h-.58l-.06-.09Z"/>
  </g>
</svg>