<?xml version="1.0" encoding="UTF-8"?>
<svg id="Layer_3" data-name="Layer 3" xmlns="http://www.w3.org/2000/svg" viewBox="0 0 200 200">
  <defs>
    <style>
      .cls-1 {
        fill: #fff;
      }

      .cls-2 {
        fill: #0b2144;
      }
    </style>
  </defs>
  <path class="cls-2" d="m20,20h160v160H20V20Z"/>
  <g>
    <path class="cls-1" d="m55.78,152.24c0,6.06-4.67,10.46-10.5,10.46s-10.5-4.45-10.5-10.24,4.67-10.46,10.5-10.46,10.5,4.45,10.5,10.24Zm-3.33.11c0-5.51-2.67-9.35-7.17-9.35-4.89,0-7.17,4.62-7.17,9.35,0,5.51,2.67,9.35,7.17,9.35,4.89-.06,7.17-4.62,7.17-9.35Zm67.39-.11c0,6.06-4.67,10.46-10.5,10.46s-10.5-4.45-10.5-10.24,4.67-10.46,10.5-10.46,10.5,4.45,10.5,10.24Zm-3.33.11c0-5.51-2.67-9.35-7.17-9.35-4.89,0-7.17,4.62-7.17,9.35,0,5.51,2.67,9.35,7.17,9.35,4.89-.06,7.17-4.62,7.17-9.35Zm11.44.11h2.5c3.78,0,4.61-2.39,4.61-4.67,0-1.72-.78-3.34-2.56-4.12-.94-.39-1.83-.39-3.06-.39h-1.5v9.18Zm4.61,3.17c-1.17-1.67-1.61-2.28-3.06-2.28h-1.56v6.79c0,.56.22.83.83.95l2.28.5v.72h-8.94v-.72l2.06-.5c.61-.17.83-.39.83-.95v-15.69c0-.56-.22-.78-.83-.95l-2.06-.5v-.72h8.72c1.83,0,3.11.17,4.17.56,2.17.83,3.39,2.89,3.39,4.84,0,2.45-1.83,4.51-4.89,5.23v.11c.61.28.94.67,3.11,3.5l2.72,3.62c.39.56.89.89,1.5,1l2,.45v.72h-4.78c-.56,0-.83-.17-1.33-.83l-4.17-5.84Zm-39.17-6.45h.83v6.68h-.83l-.5-2c-.17-.72-.61-1-1.28-1h-4.83v7.34c0,.56.22.83.83.95l2.28.5v.72h-8.94v-.72l2.06-.5c.61-.17.83-.39.83-.95v-15.69c0-.56-.22-.78-.83-.95l-2.06-.5v-.72h15.11v5.01h-.83l-.94-3c-.22-.78-.56-1.06-1.22-1.06h-6.28v8.62h4.83c.67,0,1.06-.28,1.28-1l.5-1.72Zm51.06,13.13v-.72l2.06-.5c.61-.17.83-.39.83-.95v-15.69c0-.56-.22-.78-.83-.95l-2.06-.5v-.72h9.39c2.56,0,4.39.33,5.89,1,3.78,1.72,5.5,5.45,5.5,9.12s-1.33,6.9-4.72,8.68c-1.56.83-3.72,1.22-6.56,1.22h-9.5Zm5.83-19.03v17.25c0,.72.17.89.89.89h2.44c2.33,0,4.06-.33,5.28-1.22,2.06-1.5,3-4.23,3-7.68s-.94-6.73-3.72-8.34c-1.17-.67-2.67-.89-5-.89h-2.89Zm-86.67,18.3v.72h-7.06v-.72l1.78-.45c.67-.17,1.11-.39,1.56-.89l6.11-7.68-6.11-8.12c-.39-.56-.89-.83-1.5-1l-1.67-.45v-.72h8.78v.72l-1.89.39c-.67.11-.5.39-.17.83l4.5,6.45h.11l4.61-6.45c.33-.45.44-.61-.17-.78l-1.78-.45v-.72h7.06v.72l-1.78.45c-.67.17-1.11.39-1.56.89l-5.78,7.29,6.44,8.51c.39.56.89.83,1.5,1l1.67.45v.72h-8.83v-.72l1.89-.39c.67-.11.56-.33.22-.78l-4.89-6.9h-.11l-4.89,6.9c-.33.45-.44.61.17.78l1.78.39Zm-21.06-28.71c-.56.56-1.39.95-2.56.95-1,0-1.94-.33-2.56-.95-.89-.89-.83-1.95-.83-3.12v-5.56h1.11v5.95c0,.78,0,1.5.56,2.06.39.39,1,.61,1.72.61s1.28-.22,1.61-.61c.67-.67.61-1.34.61-3.06v-5.01h1.11v4.73c.06,1.78.17,3.12-.78,4.01h0Zm10.06.78l-4.56-7.79.06,7.79h-1.06v-9.46h1.17l4.56,7.84v-7.9h1.06v9.46h-1.22v.06Zm5.11,0v-9.46h1.17v9.46h-1.17Zm8.22,0h-1.28l-3.28-9.46h1.17l2.78,8.34,2.83-8.34h1.11l-3.33,9.46Zm5.94,0v-9.46h5.17v.95h-4.06v3.12h3.78v.95h-3.78v3.5h4.17v1l-5.28-.06Zm12.44-8.07c-.56-.56-1.22-.5-2-.5h-1.06v3.56h.39c.94,0,2,.06,2.61-.61.33-.33.5-.78.5-1.22,0-.56-.22-1-.44-1.22h0Zm1.06,8.07l-1.11-2.45c-.67-1.5-1-1.67-2.33-1.67h-.67v4.12h-1.11v-9.46h2.06c1.28,0,2.22,0,2.94.72.5.5.72,1.11.72,1.89,0,.67-.17,1.22-.61,1.61-.33.39-.89.67-1.5.72.33,0,.61.22.78.39.28.28.44.67.72,1.28l1.28,2.84h-1.17Zm12.22,0v-9.46h1.17v9.46h-1.17Zm7.61-8.57v8.51h-1.17v-8.51h-2.83v-.95h6.78v.95h-2.78Zm8.28,4.78v3.73h-1.11v-3.73l-3-5.73h1.28l2.33,4.45,2.28-4.45h1.22l-3,5.73Zm13.61-4.95c-1.83,0-3.06,1.56-3.06,3.95s1.33,3.95,3.11,3.95c2,0,3.06-1.67,3.06-4.06.06-2.28-1.28-3.84-3.11-3.84h0Zm0,8.9c-2.44,0-4.22-2-4.22-4.9s1.78-4.95,4.33-4.95,4.22,2,4.22,4.9-1.72,4.95-4.33,4.95Zm8.61-8.73v3.12h3.67v.95h-3.67v4.51h-1.11v-9.46h5.06v.95h-3.94v-.06Zm-46.89,1.39c0-1.45,1.17-2.5,2.89-2.5s2.56.89,2.67,1l-.56.67c-.22-.17-.94-.72-2-.72-1.22,0-1.89.61-1.89,1.5,0,.39.17.72.44.95.33.28.78.5,1.33.72.61.28,1.5.61,2.11,1.22.39.45.72.95.72,1.72,0,1.56-1.11,2.78-3.06,2.78-1.67,0-2.72-.95-2.83-1l.5-.78c.28.22,1.33.83,2.28.83,1.44,0,1.94-.78,1.94-1.72,0-.45-.22-.78-.5-1.06-.44-.45-1.11-.72-1.78-1-.61-.28-1.22-.61-1.67-1.06-.33-.33-.61-.83-.61-1.56h0Zm55.94-68.6v14.19h-10.22l-.11.28c-.17.45-.5.83-1.61.83s-1.44-.39-1.61-.83l-.11-.28h-10.22v-14.19h-.94v.45l-.89-.28c-.11-.33-.44-.61-.78-.61-.44,0-.83.39-.83.83s.39.83.83.83c.22,0,.39-.06.56-.22l1.17.33v1.11l-.89-.17c-.11-.28-.44-.5-.78-.5-.44,0-.83.39-.83.83s.39.83.83.83c.22,0,.44-.11.61-.28l1.06.17v1.17l-.89-.06c-.17-.22-.39-.39-.72-.39-.44,0-.83.39-.83.83s.39.83.83.83c.28,0,.5-.17.67-.33l.94.06v1.28l-.94.06c-.17-.22-.39-.33-.67-.33-.44,0-.83.39-.83.83s.39.83.83.83c.28,0,.56-.17.72-.39l.89-.06v1.17l-1,.17c-.17-.17-.39-.28-.61-.28-.44,0-.83.39-.83.83s.39.83.83.83c.33,0,.67-.22.78-.5l.83-.17v1.17l-1.11.33c-.17-.11-.33-.22-.56-.22-.44,0-.83.39-.83.83s.39.83.83.83c.39,0,.72-.28.78-.61l.83-.28v1.11l-1.22.56c-.11-.11-.28-.17-.44-.17-.44,0-.83.39-.83.83s.39.83.83.83c.39,0,.78-.28.83-.72l.89-.39v1h10.61c.44.78,1.17,1.17,2.28,1.17s1.89-.39,2.28-1.17h10.61v-14.85h-1Z"/>
    <ellipse class="cls-1" cx="125.83" cy="53.94" rx="3.89" ry=".72"/>
    <path class="cls-1" d="m131.17,48.54l-2.22,1.56v.17l.56.22c.11.06.11.11.06.17l-1.39,1.17h-.11l-1-1.45c-.06-.11-.06-.17.06-.22l.67-.11v-.17l-1.72-2.45h-.28l-1.72,2.45v.17l.67.11c.11,0,.17.11.06.22l-1,1.45h-.11l-1.33-1.17c-.06-.06-.06-.11.06-.17l.56-.22v-.17l-2.33-1.56-.17.06,1.39,4.17c.72-.33,2.28-.56,4.17-.56s3.44.22,4.17.56l1.39-4.17-.39-.06Z"/>
    <ellipse class="cls-1" cx="132.78" cy="81.97" rx="3.89" ry=".72"/>
    <path class="cls-1" d="m138.11,76.63l-2.22,1.56v.17l.56.22c.11.06.11.11.06.17l-1.39,1.17h-.11l-1-1.45c-.06-.11-.06-.17.06-.22l.67-.11v-.17l-1.72-2.45h-.28l-1.72,2.45v.17l.67.11c.11,0,.17.11.06.22l-1,1.45h-.11l-1.33-1.17c-.06-.06-.06-.11.06-.17l.56-.22v-.17l-2.33-1.56-.17.06,1.39,4.17c.72-.33,2.28-.56,4.17-.56s3.44.22,4.17.56l1.39-4.17-.39-.06Z"/>
    <ellipse class="cls-1" cx="139.72" cy="53.94" rx="3.89" ry=".72"/>
    <path class="cls-1" d="m145.06,48.54l-2.22,1.56v.17l.56.22c.11.06.11.11.06.17l-1.39,1.17h-.11l-1-1.45c-.06-.11-.06-.17.06-.22l.67-.11v-.17l-1.72-2.45h-.28l-1.72,2.45v.17l.67.11c.11,0,.17.11.06.22l-1,1.45h-.11l-1.33-1.22c-.06-.06-.06-.11.06-.17l.56-.22v-.17l-2.33-1.56-.17.06,1.39,4.17c.72-.33,2.28-.56,4.17-.56s3.44.22,4.17.56l1.39-4.17h-.39Zm-12.72,11.46c0-1.17-.39-2.17-1.28-2.67-.56-.33-1.28-.45-2.22-.45h-6.61v13.41h7.22c1.67,0,2.67.39,2.72,1.89h.17v-12.18Zm-4.89.83c.17,0,.22-.06.22-.17s.06-.22.06-.5l.06-.61q0-.39-.22-.45v-.11h.67l.5,1.17.44-1.17h.72v.11c-.22,0-.22.06-.22.33l.06,1q0,.33.22.33v.11h-.94v-.11c.22,0,.22-.06.22-.33v-1.06l-.56,1.5h-.17l-.56-1.39v1.17c0,.11.06.11.28.17v.11h-.72l-.06-.11Zm1.72,2.95c-.28-.11-.56-.28-.56-.61s.22-.61.72-.61c.11,0,.17,0,.28.06.06,0,.11.06.17.06,0,.11.06.28.06.45h-.11c-.06-.17-.17-.39-.39-.39-.17,0-.28.11-.28.28s.11.22.28.33l.06.06c.28.11.5.28.5.61,0,.39-.28.61-.72.61-.11,0-.22,0-.33-.06s-.17-.06-.17-.06c0-.11-.06-.28-.11-.5l.11-.06c.06.17.22.5.5.5.17,0,.28-.11.28-.28,0-.22-.11-.33-.28-.39h0Zm-1.94-.95c.06.17.28.72.39,1.06.11-.28.28-.83.33-.95.06-.17.06-.22-.11-.22h-.11v-.11h.72v.11c-.17,0-.22.06-.33.28,0,.06-.39.95-.61,1.5h-.22c-.22-.56-.5-1.28-.61-1.56s-.17-.28-.28-.28v-.11h.94v.11h-.11c-.06.06-.06.11,0,.17Zm-.89-3.84c.56,0,.94.39.94,1s-.44,1-1,1c-.61,0-1-.45-1-1,.06-.45.39-1,1.06-1h0Zm-3.28,1.95v-.11c.22,0,.22-.06.22-.33v-1q0-.33-.22-.33v-.11h.89c.39,0,.67.06.89.28.17.11.28.33.28.61,0,.72-.56,1.06-1.22,1.06h-.83v-.06Zm2,5.29c-.22,0-.22.06-.22.33v1q0,.33.22.33v.11h-.94v-.11c.22,0,.22-.06.22-.33v-1q0-.33-.22-.33v-.11h.94v.11Zm0-1.72h-.72v-.11c.11,0,.22-.06.22-.17v-1.11c0-.22,0-.28-.06-.33s-.11-.06-.22-.11v-.11h.67l1,1.22v-.95c0-.11-.11-.17-.28-.17v-.11h.78v.11c-.17,0-.22.06-.22.17v1.67h-.28l-1.11-1.39v1.11c0,.11.11.17.28.17l-.06.11Zm1.61,3.56h-1.44v-.11c.22,0,.22-.06.22-.33v-1q0-.33-.22-.33v-.11h.94v.11c-.22,0-.22.06-.22.33v1c0,.17,0,.22.06.28h.22c.11,0,.22,0,.28-.11.06-.06.11-.11.17-.28h.11c0,.17-.06.45-.11.56h0Zm1.67,0h-1.44v-.11c.22,0,.22-.06.22-.33v-1q0-.33-.22-.33v-.11h.94v.11c-.22,0-.22.06-.22.33v1c0,.17,0,.22.06.28h.22c.11,0,.22,0,.28-.11.06-.06.11-.11.17-.28h.11c0,.17-.11.45-.11.56h0Zm1.83-1.84c-.17,0-.22.06-.33.28,0,.06-.39.95-.61,1.5h-.22c-.22-.56-.5-1.28-.61-1.56s-.17-.28-.28-.28v-.11h.94v.11h-.11c-.11,0-.11.06-.06.17.06.17.28.72.39,1.06.11-.28.28-.83.33-.95.06-.17.06-.22-.11-.22h-.11v-.11h.72l.06.11Zm.94-7.07c-.22,0-.22.06-.22.33v1q0,.33.22.33v.11h-.94v-.11c.22,0,.22-.06.22-.33v-1q0-.33-.22-.33v-.11h.94v.11Z"/>
    <path class="cls-1" d="m123.94,59.22h-.11v1.28c0,.28.06.33.22.33.28,0,.5-.28.5-.78-.06-.67-.33-.83-.61-.83h0Zm2.44,1.61c.28,0,.39-.22.39-.78,0-.61-.22-.95-.44-.95s-.39.28-.39.78c-.06.56.11.95.44.95Zm14.06,5.9l-.17.56h.39l-.22-.56Zm.72-7.07l-.22.56h.39l-.17-.56Zm-1.67,3.84c0,.56.22.95.5.95s.39-.22.39-.78c0-.61-.22-.95-.44-.95-.28,0-.44.22-.44.78h0Z"/>
    <path class="cls-1" d="m136.72,56.94c-.89,0-1.67.11-2.22.45-.89.5-1.28,1.45-1.28,2.67v12.18h.17c.11-1.5,1.06-1.89,2.72-1.89h7.28v-13.41h-6.67Zm1.56,2.11h.67l1,1.22v-.95c0-.11-.11-.17-.28-.17v-.11h.78v.11c-.17,0-.22.06-.22.17v1.67h-.28l-1.11-1.39v1.11c0,.11.11.17.28.17v.11h-.78v-.11c.11,0,.22-.06.22-.17v-1.11c0-.22,0-.28-.06-.33s-.11-.06-.22-.11v-.11Zm2.67,4.45c0,.61-.44,1-1,1-.61,0-1-.45-1-1,0-.5.33-1.06,1-1.06.56.11,1,.5,1,1.06Zm-2.22.89v.11h-.94v-.11c.22,0,.22-.06.22-.33v-1q0-.33-.22-.33v-.11h.94v.11c-.22,0-.22.06-.22.33v1c0,.28,0,.33.22.33Zm-1.56-3.56c.22,0,.22-.06.22-.33v-1q0-.33-.22-.33v-.11h.94v.11c-.22,0-.22.06-.22.33v1q0,.33.22.33v.11h-.94v-.11Zm.06,3.56v.11h-1.06v-.11c.22,0,.28-.06.28-.33v-1.28h-.06c-.22,0-.28.06-.33.11s-.06.11-.11.28h-.11c0-.22.06-.45.06-.61h.11q.06.06.17.06h1.17c.06,0,.11,0,.17-.06h.11c0,.11,0,.39.06.61h-.11c-.06-.17-.06-.28-.11-.28-.06-.06-.17-.06-.28-.06h-.06v1.28c-.17.22-.17.28.11.28h0Zm-2-3.45h-.72v-.11c.17,0,.22-.06.22-.17s.06-.22.06-.5l.06-.61q0-.39-.22-.45v-.11h.67l.5,1.17.44-1.17h.72v.11c-.22,0-.22.06-.22.33l.06,1q0,.33.22.33v.11h-.94v-.11c.22,0,.22-.06.22-.33v-1.06l-.56,1.5h-.17l-.56-1.39v1.17c0,.11.06.11.28.17l-.06.11Zm2.61,7.12h-.94v-.11c.22,0,.22-.06.22-.33v-1.06l-.56,1.5h-.17l-.56-1.39v1.17c0,.11.06.11.28.17v.11h-.72v-.11c.17,0,.22-.06.22-.17s.06-.22.06-.5l.06-.61q0-.39-.22-.45v-.11h.67l.5,1.17.44-1.17h.72v.11c-.22,0-.22.06-.22.33l.06,1q0,.33.22.33l-.06.11Zm1.67,0h-1.5v-.11c.22,0,.28-.06.28-.33v-1q0-.33-.22-.33v-.11h1.39c0,.06,0,.28.06.5h-.11c-.06-.17-.06-.22-.11-.28s-.17-.06-.28-.06h-.11q-.11,0-.11.11v.56h.17q.28,0,.28-.22h.11v.72h-.11q-.06-.28-.28-.28h-.17v.5c0,.17,0,.22.06.28h.22c.11,0,.22,0,.33-.11.06-.06.11-.17.17-.28h.11c-.06.06-.11.33-.17.45h0Zm2.06,0h-.94v-.11h.11c.11,0,.11-.06.06-.17l-.11-.28h-.5l-.11.28c-.06.11-.06.17.11.17h.11v.11h-.67v-.11c.17,0,.22-.06.28-.28l.61-1.5.22-.06.22.56c.11.33.28.72.39,1s.17.28.28.28l-.06.11Zm.72-7.12h-.94v-.11h.11c.11,0,.11-.06.06-.17l-.11-.28h-.5l-.11.28c-.06.11-.06.17.11.17h.11v.11h-.67v-.11c.17,0,.22-.06.28-.28l.61-1.5.22-.06.22.56c.11.33.28.72.39,1s.17.28.28.28l-.06.11Z"/>
    <circle class="cls-1" cx="129.39" cy="91.82" r=".78"/>
    <circle class="cls-1" cx="137.17" cy="93.1" r=".78"/>
    <circle class="cls-1" cx="132.78" cy="37.25" r=".78"/>
    <circle class="cls-1" cx="151.11" cy="44.48" r=".78"/>
    <path class="cls-1" d="m113.22,77.69c.28.45.44.89.44,1.34,0,.56-.17,1-1.17,1.67l-2.78,2-.5-.72s2.83-2.06,2.89-2.06c.5-.33.72-.61.72-1,0-.22-.11-.5-.28-.78-.28-.39-.61-.56-.94-.56-.28,0-.61.22-1.17.61l-2.61,1.78-.5-.72,2.5-1.67c.67-.5,1.22-.83,1.78-.83.72-.06,1.28.45,1.61.95h0Zm-8.94-5.45l5.28-1.84.28.78-3.06,3.73,3.83-1.5.28.78-5.22,2-.28-.78,3.06-3.73-3.89,1.39-.28-.83Zm-.78-4.23l5.56-.83.11.89-5.56.83-.11-.89Zm-.17-6.73v-.95l5.56,2.28-.06.95-5.67,1.72v-.95l4.61-1.28-4.44-1.78Zm5.06-12.57c-.78,0-1.17.45-1.67,1.39l-.67,1.17,4.94,2.67.44-.78-2.06-1.11.11-.22c.33-.61.44-.72,1.33-.67l1.61.17.44-.83-1.83-.17c-.39-.06-.67-.06-.89,0-.06,0-.17.06-.28.11,0-.11.06-.22.06-.28,0-.17,0-.33-.06-.45-.11-.33-.33-.61-.72-.78-.22-.11-.5-.22-.78-.22h0Zm-1,1.72c.33-.61.56-.83.89-.83.11,0,.28.06.44.11.22.11.39.33.44.5,0,.06.06.17.06.22,0,.33-.17.67-.39,1l-.11.22-1.56-.83.22-.39Zm7.17-9.62l.72-.56,3.39,4.45-.72.56-3.39-4.45Zm3.06-2.23l3.61-1.89.33.67-1.39.72,2.22,4.28-.78.39-2.22-4.28-1.44.72-.33-.61Zm9.06-3.56l.94-.28-.78,3.78.61,2.11-.83.22-.61-2.11-2.67-2.78.94-.28,1.89,2,.5-2.67Zm17.11,7.68l2.83-4.84,2.67,1.56-.39.67-1.89-1.11-.78,1.34,1.78,1.06-.39.67-1.78-1.06-1.28,2.17-.78-.45Zm14.44,12.52l2.06-2.45.33.95-1.5,1.72,2.28.5.28.89-3.11-.72-2.22,2.61-.33-.95,1.67-1.95-2.5-.56-.28-.95,3.33.89Zm-1.61,5.51l5.61-.45.28,3.12-.78.06-.17-2.23-1.56.11.17,2.11-.72.06-.17-2.11-2.56.22-.11-.89Zm2.44,5.01c-.67,0-1.22.17-1.72.5-.83.61-1,1.5-1,2,0,1.89,1.78,2.67,3.11,2.67.67,0,1.22-.17,1.72-.5.94-.67,1-1.72,1-2.06,0-1.67-1.5-2.61-3.11-2.61h0Zm.44,4.28c-1.11,0-2.39-.61-2.39-1.72,0-.39.17-.95.61-1.28.33-.22.78-.39,1.28-.39.56,0,1.56.17,2.11.89.17.22.28.56.28.83,0,.45-.17.95-.61,1.28-.33.28-.78.39-1.28.39Zm-3.67-22.98c-.56,0-1.17.17-1.78.56-1.06.67-1.44,1.67-1.44,2.39,0,.45.11.95.39,1.34.61.95,1.5,1.17,2.11,1.17.56,0,1.17-.17,1.78-.56.67-.45,1.44-1.28,1.44-2.39,0-.45-.11-.89-.39-1.34-.5-.78-1.28-1.17-2.11-1.17Zm-.89,4.56c-.5,0-.94-.22-1.28-.72-.17-.28-.22-.5-.22-.78,0-.61.39-1.28,1.11-1.78.5-.33.94-.45,1.39-.45.56,0,1,.22,1.28.72.17.28.28.56.28.83,0,.61-.39,1.22-1.11,1.67-.5.33-1,.5-1.44.5Zm-14.44-16.13c-1.17,0-2.17.78-2.61,2.17-.11.33-.17.61-.17.89,0,.56.11,1,.33,1.45.5.95,1.44,1.28,2.17,1.28.39,0,.78-.11,1.17-.28.94-.5,1.56-1.72,1.56-2.89,0-.5-.11-.95-.33-1.39-.39-.78-1.22-1.22-2.11-1.22h0Zm-.28,5.01c-.39,0-1-.22-1.33-.78-.17-.28-.22-.67-.22-1,0-1,.67-2.39,1.89-2.39.67,0,1.56.5,1.56,1.78,0,.72-.56,2.39-1.89,2.39h0Zm-30.78,15.35l.78.22-.83,3.06-5.44-1.5.94-3.12.72.22-.67,2.23,1.5.39.56-2.06.72.22-.56,2.06,1.67.45.61-2.17Zm1.44-11.74c.78-.89,1.56-.83,1.56-.83l.11.72s-.61,0-1.11.56c-.22.22-.33.5-.33.72,0,.17.06.33.22.45.39.33,1.06-.06,1.44-.22.33-.11.78-.33,1.22-.33.33,0,.67.11,1,.39.39.33.56.78.56,1.17,0,.5-.17.89-.56,1.34-.72.78-1.67.89-1.67.89l-.17-.78c.56-.11,1-.33,1.28-.67.22-.22.28-.5.28-.72s-.11-.39-.28-.56c-.17-.11-.33-.17-.5-.17-.33,0-.78.22-1.17.33-.67.28-1.39.5-2.06-.06-.33-.28-.5-.67-.5-1.06.11-.28.28-.78.67-1.17h0Zm44.22,28.93l2.11.95-.11.22c-.28.67-.39.78-1.28.78h-1.61l-.39.89h1.83c.39,0,.67,0,.89-.11.06-.06.17-.06.22-.17v.17c0,.22.06.39.11.61.28.61.94.89,1.44.89.89,0,1.22-.56,1.67-1.5,0-.06.5-1.22.5-1.22l-5.11-2.28-.28.78Zm3.33,3.28c-.28,0-.67-.17-.83-.56-.06-.11-.06-.22-.06-.33,0-.33.17-.61.28-.95l.11-.22,1.61.72-.17.45c-.33.72-.56.89-.94.89h0Zm-6.28,2c-.56.72-1,1.39-1,2.23,0,.72.33,1.5,1.17,2.17.56.45,1.17.67,1.78.67.78,0,1.39-.22,2.39-1.45l.89-1.11-4.39-3.5-.83,1Zm2,4.23c-.44,0-.89-.17-1.28-.5-.44-.33-.89-.89-.89-1.61,0-.5.28-.95.67-1.45l.39-.45,3.22,2.56-.22.33c-.72.67-1.11,1.11-1.89,1.11h0Z"/>
    <path class="cls-1" d="m164.94,64.12c0-17.69-14.44-32.16-32.17-32.16s-32.17,14.41-32.17,32.16c0,10.63,5.22,20.53,14,26.54.89,3.23,3.83,5.62,7.28,5.62.94,0,1.89-.17,2.72-.5,1.17.39,2.39.72,3.61.95-.33,1-.83,1.89-1.33,2.73s0,0-.06,0l.67.67c.17-.11.39-.17.56-.17.67,0,1.22.56,1.22,1.22s-.56,1.22-1.22,1.22c-.56,0-1.11-.39-1.33-.78,0,0-.17.56-.17,1.28,0,2.28,2.5,4.95,6,6.06,3.5-1.11,6-3.73,6-6.06,0-.78-.17-1.28-.17-1.28-.28.33-.72.78-1.33.78-.67,0-1.22-.56-1.22-1.22s.56-1.22,1.22-1.22c.22,0,.44.06.61.17l.67-.67c-.39-.89-.61-1.67-.83-2.45,5.78-.78,10.67-3.23,14.56-7.29,8.28-6.18,12.89-15.47,12.89-25.59h0Zm-42.94,31.21c-3.67,0-6.61-3-6.61-6.62,0-1.17.28-2.23.78-3.17.33.33.72.61,1.06.95-.33.67-.5,1.45-.5,2.23,0,2,1,3.62,2.89,4.78,1.11.67,2.33,1.22,3.61,1.72-.33.11-.78.11-1.22.11Zm10.78-9.62c-1.39,0-2.72-.11-4.06-.39-1.28-2.5-3.89-4.12-6.72-4.12-.72,0-1.39.11-2,.28-5.44-4.06-8.72-10.51-8.72-17.3,0-11.91,9.67-21.59,21.56-21.59s21.56,9.68,21.56,21.59-9.72,21.53-21.61,21.53h0Zm4.83.33c-.67.95-1.06,2.23-1.17,3.5-2.06-.5-3.89-1.22-5.5-1.95.33-.61,1.17-1,1.83-1,1.67,0,3.28-.22,4.83-.56Zm-6.83.45c-.28.22-.5.45-.67.72-.83-.39-1.83-.89-2.5-1.28.94.22,2.17.5,3.17.56Zm-8.78-4.45c2.22,0,4.28,1.11,5.5,2.95-1.06-.28-2.11-.61-3.11-1.06h-.06c-.72-.33-1.5-.5-2.28-.5-1.78,0-3.33.89-4.28,2.17-.39-.22-.83-.45-1.22-.72,1.22-1.67,3.17-2.84,5.44-2.84h0Zm15.22,16.97c-1.17,0-2.17.83-2.17,2.11s1,2.11,2.17,2.11c.17,0,.33-.06.5-.06-.22,1.78-2.33,3.78-5,4.67-2.67-.89-4.72-2.89-5-4.67.17.06.33.06.5.06,1.28,0,2.17-.89,2.17-2.11s-.94-2.11-2.11-2.11c.39-.67.72-1.39.94-2.11,1.5.28,2.94.39,4.28.39,1.11,0,2.17-.06,3.22-.17.17.61.33,1.22.61,1.89h-.11Zm-3.67-2.61c-4.33,0-9.67-1.45-13.39-3.67-1.11-.67-2.44-1.89-2.44-4.01,0-.56.11-1.11.33-1.61,1.39,1.17,2.83,2.23,3.72,2.73.22.11.33.17.56.17.56,0,1.06-.45,1.06-1.06,0-.45-.22-.78-.61-.95-.78-.33-2.39-1-4.11-1.89.78-1.06,2.06-1.72,3.44-1.72.67,0,1.28.17,1.83.39l1.17.67c3.78,2.28,13.44,8.18,25.06,4.95-4.44,4.01-9.89,6.01-16.61,6.01Zm18.06-7.4c-5.22,1.84-10.11,1.72-14.28.78.11-1.84.89-3.84,2.06-4.23,9.17-2.84,15.83-11.4,15.83-21.47,0-12.41-10.11-22.48-22.5-22.48s-22.39,10.13-22.39,22.53c0,6.9,3.22,13.46,8.61,17.69-1.28.56-2.39,1.5-3.17,2.61-.39-.28-.83-.56-1.17-.89l-.22.22c.22.28.61.67,1.06,1.11-.67,1.11-1.06,2.45-1.06,3.84,0,.22,0,.45.06.67-8.06-5.9-12.83-15.24-12.83-25.26,0-17.25,14-31.21,31.17-31.21s31.17,14.02,31.17,31.21c.06,9.85-4.44,18.92-12.33,24.87h0Z"/>
  </g>
</svg>