<?xml version="1.0" encoding="UTF-8"?>
<svg id="Layer_3" data-name="Layer 3" xmlns="http://www.w3.org/2000/svg" viewBox="0 0 200 200">
  <defs>
    <style>
      .cls-1 {
        fill: #af3025;
      }

      .cls-2 {
        fill: #55535b;
      }
    </style>
  </defs>
  <path class="cls-1" d="m20,99.99c0-8.38,0-16.76,0-25.13,0-.59-.08-.52.51-.52,11.49,0,22.97,0,34.46,0,.61,0,.52-.08.52.54,0,3.58,0,7.17,0,10.75q0,.52-.5.52c-6.81,0-13.62,0-20.43,0-.59,0-.52-.08-.52.5,0,2.27,0,4.54,0,6.81,0,.09,0,.19,0,.28-.01.16.05.22.21.21.09,0,.19,0,.28,0,2.04,0,4.08,0,6.13,0,.09,0,.19,0,.28,0,.16-.01.21.07.2.22,0,.08,0,.16,0,.24,0,3.73,0,7.47,0,11.2,0,.49.06.45-.46.45-2.03,0-4.06,0-6.09,0-.05,0-.11,0-.16,0-.39,0-.39,0-.39.39,0,2.32,0,4.65,0,6.97,0,.45-.02.41.42.41,6.82,0,13.65,0,20.47,0q.57,0,.57.57c0,3.6,0,7.2,0,10.79,0,.5.06.45-.45.45-11.53,0-23.05,0-34.58,0-.08,0-.16,0-.24,0-.15,0-.23-.05-.22-.21,0-.11,0-.21,0-.32,0-8.38,0-16.76,0-25.13Z"/>
  <path class="cls-2" d="m164.56,84.49c.38-.47.74-.87,1.16-1.21,1.34-1.08,2.88-1.44,4.56-1.29,1.08.1,2.07.42,2.94,1.1,1.08.84,1.67,1.97,1.95,3.28.12.57.18,1.14.18,1.72,0,3.01,0,6.01,0,9.02,0,.07,0,.13,0,.2,0,.14-.06.19-.19.19-.17,0-.35,0-.52,0-.64,0-1.29,0-1.93,0-.19,0-.28-.06-.26-.25,0-.09,0-.19,0-.28,0-2.72,0-5.45,0-8.17,0-.66-.05-1.31-.26-1.95-.44-1.35-1.46-2.09-2.88-2.16-1.99-.1-3.37,1.16-3.72,3.06-.08.42-.09.85-.09,1.28,0,2.66,0,5.32,0,7.97,0,.09,0,.19,0,.28,0,.15-.05.22-.21.22-.83,0-1.67,0-2.5,0-.13,0-.2-.05-.2-.19,0-.11,0-.21,0-.32,0-2.81,0-5.61,0-8.42,0-.62-.09-1.23-.3-1.82-.47-1.29-1.5-2.02-2.87-2.08-1.78-.07-3.2,1.09-3.66,2.89-.11.42-.16.84-.16,1.27,0,2.68,0,5.37,0,8.05,0,.07,0,.13,0,.2,0,.43.01.39-.39.39-.74,0-1.48,0-2.22,0-.29,0-.29,0-.3-.28,0-.07,0-.13,0-.2,0-4.75,0-9.5,0-14.25,0-.55-.07-.48.5-.49.71,0,1.42,0,2.14,0,.2,0,.29.05.28.27-.01.43,0,.85,0,1.39.85-.92,1.78-1.56,2.95-1.82,1.14-.25,2.27-.2,3.37.2,1.13.4,1.99,1.15,2.65,2.19Z"/>
  <path class="cls-2" d="m70.46,87.31c0-3.19,0-6.39,0-9.58,0-.08,0-.16,0-.24,0-.34,0-.35.36-.35,2.55,0,5.1,0,7.65,0,2.12,0,4.24,0,6.37,0,.08,0,.16,0,.24,0,.22-.03.27.09.27.28,0,.72,0,1.45,0,2.17,0,.33,0,.33-.34.33-1.53,0-3.06,0-4.59,0-2.15,0-4.3,0-6.45,0-.08,0-.16,0-.24,0-.29,0-.3,0-.3.28,0,1.79,0,3.57,0,5.36,0,.21.06.28.27.28.54-.01,1.07,0,1.61,0,2.78,0,5.56,0,8.34,0,.48,0,.44-.04.44.43,0,.67,0,1.34,0,2.01,0,.34,0,.35-.36.35-.89,0-1.77,0-2.66,0-2.35,0-4.7,0-7.05,0-.08,0-.16,0-.24,0-.34,0-.35,0-.35.36,0,1.79,0,3.57,0,5.36,0,.37,0,.37.38.37,3.71,0,7.41,0,11.12,0,.64,0,.55-.08.55.56,0,.64,0,1.29,0,1.93,0,.29,0,.29-.29.3-.47,0-.94,0-1.41,0-4.22,0-8.43,0-12.65,0-.09,0-.19,0-.28,0-.4,0-.39.04-.39-.4,0-3.26,0-6.52,0-9.78Z"/>
  <path class="cls-2" d="m168.13,116.43c.21,1.78,1.61,3.94,4.25,4.11,2.02.13,3.75-.52,5.15-1.99.06-.06.12-.11.19-.18.38.34.76.68,1.14,1.02.18.16.36.32.54.49.23.21.23.21.03.43-.61.69-1.3,1.28-2.1,1.74-1.59.92-3.31,1.28-5.14,1.17-3.71-.22-6.57-3.04-7.04-6.73-.3-2.38.14-4.58,1.64-6.49,1.56-2,3.65-2.96,6.19-2.8,3.19.2,5.67,2.24,6.61,5.33.33,1.08.44,2.18.39,3.3-.02.57-.03.57-.59.57-3.6,0-7.2,0-10.8,0-.14,0-.29-.03-.47.04Zm8.83-2.45c-.18-1.12-.62-2.09-1.39-2.9-.84-.87-1.89-1.29-3.1-1.3-1.15-.01-2.12.4-2.92,1.21-.81.83-1.25,1.83-1.43,2.99h8.85Z"/>
  <path class="cls-2" d="m89.1,85.92c-.29-.79-.55-1.54-.83-2.27-.07-.18,0-.23.14-.3,1.15-.54,2.33-.96,3.59-1.14,1.34-.19,2.67-.22,4,.07,2.5.53,4.12,2.33,4.38,4.87.05.47.07.94.07,1.41,0,2.83,0,5.66,0,8.5,0,.48.04.44-.43.44-.68,0-1.37,0-2.05,0-.34,0-.34,0-.35-.36,0-.36,0-.72-.01-1.09,0,0-.02-.01-.06-.03-.1.08-.21.17-.32.26-1.47,1.2-3.17,1.63-5.04,1.49-1-.07-1.95-.34-2.83-.85-1.2-.7-2.01-1.7-2.27-3.07-.4-2.17.43-4.23,2.66-5.28,1.11-.53,2.3-.73,3.51-.75,1.35-.02,2.68.08,3.99.41.1.03.21.04.31.06.18-1.23-.52-2.55-1.65-3.1-.61-.3-1.27-.41-1.95-.43-1.47-.06-2.85.28-4.18.87-.22.1-.44.2-.7.31Zm4.83,4.25c-.21,0-.43-.01-.64,0-.77.05-1.51.2-2.19.59-1.52.87-1.54,3.13-.03,4.01.22.13.45.25.69.32,1.57.47,3.05.26,4.42-.64.75-.49,1.23-1.19,1.41-2.07.09-.45.04-.91.05-1.36,0-.34,0-.35-.33-.42-1.11-.26-2.24-.43-3.38-.42Z"/>
  <path class="cls-2" d="m147.01,88.26c.2-1.13-.46-2.45-1.5-3.02-.65-.36-1.36-.48-2.09-.51-1.54-.06-2.98.31-4.36.95-.52.24-.52.24-.72-.3-.2-.55-.4-1.11-.6-1.66-.1-.27-.09-.28.15-.4,2.09-1.01,4.29-1.42,6.61-1.21.55.05,1.09.16,1.61.34,2.11.71,3.3,2.2,3.67,4.38.09.53.1,1.07.1,1.6,0,2.87,0,5.74,0,8.62,0,.01,0,.03,0,.04,0,.44,0,.39-.39.39-.71,0-1.42,0-2.14,0-.28,0-.29,0-.29-.29,0-.39,0-.78,0-1.17-.16,0-.22.11-.31.19-1.48,1.24-3.2,1.69-5.1,1.55-.92-.06-1.8-.3-2.62-.73-1.35-.71-2.27-1.77-2.51-3.3-.31-2.02.33-3.82,2.24-4.94.82-.49,1.72-.75,2.66-.88,1.76-.23,3.51-.1,5.24.29.08.02.16.03.24.05.04,0,.08,0,.12.01Zm-3.65,1.91c-.21,0-.43-.01-.64,0-.73.05-1.44.18-2.08.54-.82.46-1.25,1.15-1.24,2.1,0,.94.46,1.6,1.26,2.04.16.09.33.17.51.23,1.63.5,3.16.28,4.55-.69.78-.54,1.25-1.31,1.36-2.28.04-.35.03-.7.03-1.04,0-.46.04-.37-.36-.47-1.11-.27-2.23-.44-3.38-.42Z"/>
  <path class="cls-2" d="m124.11,83.92c.07-.1.13-.2.22-.29,1.07-1.08,2.4-1.6,3.9-1.67.93-.05,1.85.07,2.73.42,1.88.75,2.93,2.18,3.35,4.12.12.56.16,1.14.16,1.72,0,2.97,0,5.93,0,8.9,0,.04,0,.08,0,.12.02.19-.05.27-.25.26-.15-.01-.3,0-.44,0-.6,0-1.21,0-1.81,0-.44,0-.4.04-.4-.42,0-.83,0-1.66,0-2.5,0-2.01,0-4.03,0-6.04,0-.51-.08-1.02-.23-1.51-.41-1.36-1.46-2.22-2.87-2.33-.63-.05-1.26-.03-1.87.19-1.43.52-2.23,1.57-2.52,3.03-.07.37-.08.75-.08,1.12,0,2.67,0,5.34,0,8.01,0,.48.04.44-.43.44-.71,0-1.42,0-2.14,0-.34,0-.34,0-.34-.36,0-1.44,0-2.87,0-4.31,0-3.52-.01-7.03-.02-10.55,0-1.5-.02-3.01-.02-4.51,0-.08,0-.16,0-.24,0-.35,0-.35.36-.35.73,0,1.45,0,2.18,0,.47,0,.42-.01.42.41,0,1.95,0,3.89,0,5.84,0,.14,0,.29,0,.43.04.02.08.04.12.07Z"/>
  <path class="cls-2" d="m84.99,109.14c.18-.06.25-.18.34-.27,1.1-1.1,2.44-1.63,3.97-1.7,1.02-.05,2.01.09,2.95.5,1.67.73,2.66,2.03,3.12,3.76.17.65.24,1.32.24,1.99,0,3.03,0,6.07,0,9.1,0,.36,0,.36-.34.36-.77,0-1.53,0-2.3,0-.31,0-.32,0-.32-.31,0-.7,0-1.4,0-2.09,0-2.17,0-4.35,0-6.52,0-.65-.07-1.29-.3-1.9-.43-1.14-1.25-1.82-2.43-2.06-.81-.16-1.61-.13-2.38.16-1.47.56-2.24,1.68-2.49,3.2-.06.38-.07.77-.07,1.16,0,2.6,0,5.21,0,7.81,0,.09,0,.19,0,.28.03.22-.07.27-.28.27-.79,0-1.58,0-2.38,0-.2,0-.31-.05-.28-.27,0-.07,0-.13,0-.2,0-4.82,0-9.64,0-14.45,0-.56-.07-.48.49-.49.7,0,1.4,0,2.09,0,.33,0,.33,0,.34.32,0,.44,0,.87,0,1.33Z"/>
  <path class="cls-2" d="m150.12,121.23c-.12.12-.24.25-.36.37-.99.95-2.17,1.46-3.53,1.58-.98.08-1.96,0-2.9-.33-1.93-.7-3.06-2.1-3.54-4.06-.16-.67-.21-1.35-.21-2.04,0-2.95,0-5.9,0-8.86,0-.07,0-.13,0-.2-.01-.16.06-.21.21-.21.85,0,1.69,0,2.54,0,.16,0,.21.07.2.22,0,.09,0,.19,0,.28,0,2.76,0,5.53,0,8.29,0,.5.03.99.15,1.48.37,1.61,1.45,2.54,3.09,2.69,2.42.21,4.29-1.42,4.41-3.85.01-.28.01-.56.01-.85,0-2.58,0-5.15,0-7.73,0-.09,0-.19,0-.28-.02-.2.07-.25.26-.25.81,0,1.61,0,2.42,0,.01,0,.03,0,.04,0,.14-.01.2.05.19.19,0,.08,0,.16,0,.24,0,4.84,0,9.69,0,14.53,0,.5.05.44-.46.44-.73,0-1.45,0-2.18,0-.21,0-.28-.06-.28-.28.01-.45,0-.91,0-1.36-.03,0-.05-.02-.08-.02Z"/>
  <path class="cls-2" d="m98.72,118.59c.18.04.29.17.42.26,1.14.83,2.39,1.45,3.8,1.65.73.11,1.47.13,2.19-.12.31-.11.59-.26.83-.48.64-.56.92-1.83-.16-2.52-.43-.28-.9-.47-1.39-.63-.95-.32-1.94-.54-2.88-.89-.51-.18-1-.4-1.46-.66-1.97-1.12-2.38-2.97-1.81-4.79.46-1.47,1.54-2.35,2.96-2.85,1.17-.41,2.37-.42,3.58-.23,1.47.23,2.85.75,4.1,1.58.31.21.29.18.11.49-.35.57-.69,1.15-1.04,1.72-.16.27-.17.27-.45.09-.96-.61-1.98-1.07-3.1-1.28-.71-.13-1.41-.17-2.11.04-.37.11-.7.27-.97.55-.63.65-.56,1.56.16,2.09.41.31.89.51,1.37.67.9.3,1.81.58,2.72.88.74.24,1.45.56,2.09,1.01.86.6,1.47,1.39,1.62,2.44.27,1.9-.37,3.63-2.11,4.69-1.09.66-2.29.9-3.55.86-2.3-.07-4.36-.82-6.17-2.24-.28-.22-.28-.22-.08-.5.38-.54.76-1.07,1.14-1.61.06-.09.13-.17.2-.25Z"/>
  <path class="cls-2" d="m76.57,112.61c0,2.39,0,4.78,0,7.17,0,.05,0,.11,0,.16,0,.3,0,.31.32.31.83,0,1.66,0,2.5,0,.35,0,.35,0,.35.36,0,.67,0,1.34,0,2.01,0,.19-.05.27-.25.26-.23-.01-.46,0-.68,0-2.62,0-5.24,0-7.85,0-.09,0-.19,0-.28,0-.15.01-.21-.05-.21-.21,0-.72,0-1.45,0-2.17,0-.2.08-.25.26-.25.82,0,1.64,0,2.46,0,.5,0,.45.05.45-.45,0-4.79,0-9.58,0-14.37,0-.5.05-.45-.46-.45-.81,0-1.61,0-2.42,0-.29,0-.29,0-.29-.29,0-.68,0-1.37,0-2.05,0-.28,0-.29.29-.29,1.52,0,3.03,0,4.55,0,1.34,0,2.69,0,4.03,0,.42,0,.4-.03.4.38,0,.64,0,1.29,0,1.93,0,.3,0,.31-.32.31-.82,0-1.64-.02-2.46-.02-.4,0-.4,0-.4.39,0,2.43,0,4.86,0,7.29h.01Z"/>
  <path class="cls-2" d="m164.35,119.73c.09.08.07.17.07.24,0,.71,0,1.42,0,2.13,0,.2-.06.31-.25.4-.97.49-2,.69-3.08.64-.39-.02-.77-.06-1.15-.16-1.75-.43-2.73-1.67-3-3.39-.06-.4-.07-.8-.07-1.2,0-2.56,0-5.13,0-7.69,0-.09,0-.19,0-.28.02-.19-.06-.26-.25-.26-.48,0-.97,0-1.45,0-.32,0-.33,0-.33-.33,0-.68,0-1.37,0-2.05,0-.3,0-.3.32-.3.47,0,.94,0,1.41,0,.3,0,.3,0,.3-.32,0-1.19,0-2.39,0-3.58,0-.09,0-.19,0-.28-.02-.2.08-.25.26-.25.38.01.75,0,1.13,0,.39,0,.78,0,1.17,0,.44,0,.4-.03.4.42,0,.99,0,1.99,0,2.98,0,.2,0,.4,0,.6,0,.47-.03.42.4.42,1.26,0,2.52,0,3.79,0,.48,0,.43-.06.43.43,0,.66,0,1.32,0,1.97,0,.28,0,.29-.29.29-1.28,0-2.55,0-3.83,0-.09,0-.19,0-.28,0-.15,0-.23.04-.22.21,0,.07,0,.13,0,.2,0,2.58,0,5.15,0,7.73,0,.15,0,.3.01.44.08.98.67,1.56,1.66,1.63.82.06,1.6-.08,2.34-.45.16-.08.32-.19.49-.21Z"/>
  <path class="cls-2" d="m137.89,119.71c0,.86,0,1.68,0,2.5,0,.17-.11.22-.24.29-.59.31-1.21.51-1.87.6-.76.1-1.53.09-2.28-.08-1.71-.38-2.83-1.62-3.07-3.36-.06-.41-.08-.83-.08-1.24,0-2.59,0-5.18,0-7.77,0-.47.07-.46-.46-.46-.43,0-.86,0-1.29,0-.19,0-.29-.04-.29-.26.01-.72,0-1.45,0-2.17,0-.19.05-.26.25-.26.5.01.99,0,1.49,0,.28,0,.29,0,.29-.29,0-1.05,0-2.09,0-3.14,0-.23,0-.46,0-.68,0-.3,0-.31.31-.31.78,0,1.56,0,2.34,0,.3,0,.31,0,.31.32,0,1.11,0,2.23,0,3.34,0,.15,0,.3,0,.44,0,.31,0,.31.3.32.08,0,.16,0,.24,0,1.25,0,2.5,0,3.75,0,.33,0,.33,0,.33.33,0,.68,0,1.37,0,2.05,0,.3,0,.31-.32.31-1.29,0-2.58,0-3.87,0-.46,0-.44-.04-.44.43,0,2.54,0,5.08,0,7.61,0,.17,0,.35.01.52.07.99.66,1.57,1.65,1.64.82.06,1.6-.07,2.34-.44.16-.08.32-.19.57-.23Z"/>
  <path class="cls-2" d="m120.35,119.73v.69c0,.55-.01,1.1,0,1.65,0,.24-.09.36-.29.46-.9.44-1.85.64-2.84.63-.48,0-.96-.06-1.43-.19-1.55-.42-2.48-1.43-2.84-2.98-.11-.47-.15-.95-.15-1.44,0-2.64,0-5.29,0-7.93,0-.49.04-.45-.46-.45-.43,0-.86,0-1.29,0-.2,0-.29-.05-.28-.27.01-.72.01-1.45,0-2.17,0-.2.07-.25.26-.25.5,0,.99,0,1.49,0,.28,0,.28,0,.28-.3,0-1.21,0-2.42,0-3.62,0-.09,0-.19,0-.28-.02-.18.08-.24.24-.22.07,0,.13,0,.2,0,.7,0,1.4,0,2.09,0,.45,0,.42-.04.42.4,0,1.19,0,2.39,0,3.58,0,.49-.04.44.42.44,1.29,0,2.58,0,3.87,0,.33,0,.34,0,.34.32,0,.68,0,1.37,0,2.05,0,.3,0,.31-.31.31-1.29,0-2.58,0-3.87,0-.09,0-.19,0-.28,0-.12,0-.17.06-.17.18,0,.09,0,.19,0,.28,0,2.52,0,5.05,0,7.57,0,.25,0,.51.05.76.18.88.71,1.34,1.61,1.41.82.06,1.6-.07,2.35-.43.17-.09.34-.21.59-.22Z"/>
  <path class="cls-1" d="m48.79,100.04c0-1.87,0-3.73,0-5.6,0-.09,0-.19,0-.28,0-.13.04-.2.18-.2.08,0,.16,0,.24,0,1.95,0,3.9,0,5.84,0,.08,0,.16,0,.24,0,.14,0,.2.05.19.19,0,.08,0,.16,0,.24,0,3.75,0,7.49,0,11.24,0,.49.06.44-.42.44-1.95,0-3.9,0-5.84,0-.08,0-.16,0-.24,0-.13,0-.2-.05-.2-.19,0-.09,0-.19,0-.28,0-1.85,0-3.71,0-5.56Z"/>
  <path class="cls-2" d="m105.74,84.84c.31-.38.58-.75.91-1.06,1.29-1.23,2.81-1.83,4.6-1.76.33.01.33.02.33.34,0,.8,0,1.61,0,2.41,0,.32,0,.33-.34.32-.59-.01-1.18.04-1.75.21-1.73.5-2.79,1.68-3.38,3.33-.26.72-.4,1.48-.41,2.25-.02,2.03-.01,4.05-.02,6.08,0,.11,0,.21,0,.32,0,.15-.06.22-.21.21-.83,0-1.66,0-2.5,0-.13,0-.2-.04-.2-.18,0-.09,0-.19,0-.28,0-4.76,0-9.53,0-14.29,0-.04,0-.08,0-.12,0-.37-.02-.35.35-.35.72,0,1.45,0,2.17,0,.42,0,.38-.01.38.4,0,.6,0,1.21,0,1.81,0,.1-.03.21.05.36Z"/>
  <path class="cls-2" d="m113.62,85.57c0-2.66,0-5.31,0-7.97,0-.03,0-.05,0-.08,0-.35,0-.35.36-.35.75,0,1.5,0,2.26,0,.34,0,.34,0,.34.36,0,2.91,0,5.82,0,8.74,0,2.16,0,4.32,0,6.48,0,.28,0,.56.07.84.19.78.76,1.28,1.57,1.33.25.02.51,0,.76,0,.16,0,.25.02.25.21,0,.71,0,1.42,0,2.13,0,.15-.06.21-.2.25-.26.07-.52.12-.79.13-.63.02-1.26-.05-1.87-.25-1.52-.5-2.34-1.58-2.62-3.12-.07-.38-.09-.77-.09-1.16,0-2.51,0-5.02,0-7.53-.01,0-.03,0-.04,0Z"/>
  <path class="cls-2" d="m125.94,115.22v7.13c0,.08,0,.16,0,.24,0,.29,0,.3-.28.3-.79,0-1.58,0-2.38,0-.21,0-.3-.06-.27-.27,0-.07,0-.13,0-.2,0-4.82,0-9.64,0-14.45,0-.55-.06-.48.46-.48.7,0,1.4,0,2.09,0,.39,0,.37-.03.37.37,0,2.46,0,4.91,0,7.37Z"/>
  <path class="cls-2" d="m122.97,104.65c0-.44,0-.88,0-1.33,0-.22.08-.27.28-.27.82,0,1.63,0,2.45,0,.19,0,.26.04.26.25,0,.9,0,1.79,0,2.69,0,.19-.06.26-.26.26-.82,0-1.63,0-2.45,0-.27,0-.28-.01-.28-.31,0-.43,0-.86,0-1.29Z"/>
</svg>