<?xml version="1.0" encoding="UTF-8"?>
<svg id="Layer_1" data-name="Layer 1" xmlns="http://www.w3.org/2000/svg" viewBox="0 0 113.39 113.39">
  <defs>
    <style>
      .cls-1 {
        fill: #047eaa;
      }

      .cls-2 {
        fill: #023452;
      }
    </style>
  </defs>
  <g id="Design_Doc_Group" data-name="Design Doc Group">
    <g id="Lines_Group" data-name="Lines Group">
      <path id="Line_9" data-name="Line 9" class="cls-1" d="m87.35,101.27H24.29c-.23,0-.43-.21-.43-.46s.19-.46.43-.46h63.06c.24,0,.43.21.43.46s-.19.46-.43.46h0Z"/>
      <path id="Line_8" data-name="Line 8" class="cls-1" d="m87.35,90.65H24.29c-.23,0-.43-.21-.43-.46s.19-.46.43-.46h63.06c.24,0,.43.21.43.46s-.19.46-.43.46h0Z"/>
      <path id="Line_7" data-name="Line 7" class="cls-1" d="m87.35,80.02H24.29c-.23,0-.43-.21-.43-.46s.19-.46.43-.46h63.06c.24,0,.43.21.43.46s-.19.46-.43.46h0Z"/>
      <path id="Line_6" data-name="Line 6" class="cls-1" d="m87.35,69.4H24.29c-.23,0-.43-.21-.43-.46s.19-.46.43-.46h63.06c.24,0,.43.21.43.46s-.19.46-.43.46h0Z"/>
      <path id="Line_5" data-name="Line 5" class="cls-1" d="m87.35,58.78H24.29c-.23,0-.43-.21-.43-.46s.19-.46.43-.46h63.06c.24,0,.43.21.43.46s-.19.46-.43.46h0Z"/>
      <path id="Line_4" data-name="Line 4" class="cls-1" d="m87.35,48.16H24.29c-.23,0-.43-.21-.43-.46s.19-.46.43-.46h63.06c.24,0,.43.21.43.46s-.19.46-.43.46h0Z"/>
      <path id="Line_3" data-name="Line 3" class="cls-1" d="m87.35,37.54H24.29c-.23,0-.43-.21-.43-.46s.19-.46.43-.46h63.06c.24,0,.43.21.43.46s-.19.46-.43.46h0Z"/>
      <path id="Line_2" data-name="Line 2" class="cls-1" d="m87.35,26.91H24.29c-.23,0-.43-.21-.43-.46s.19-.46.43-.46h63.06c.24,0,.43.21.43.46s-.19.46-.43.46h0Z"/>
      <path id="Line_1" data-name="Line 1" class="cls-1" d="m77.5,16.29H24.22c-.2,0-.36-.21-.36-.46s.16-.46.36-.46h53.28c.2,0,.36.21.36.46s-.16.46-.36.46h0Z"/>
      <path id="Vertical_Line" data-name="Vertical Line" class="cls-1" d="m29.59,105.14V9.85c0-.19.21-.34.46-.34s.46.15.46.34v95.29c0,.19-.21.34-.46.34s-.46-.15-.46-.34h0Z"/>
    </g>
    <path id="Fold" class="cls-2" d="m97.01,21.42h-19.03c-.59,0-1.07-.47-1.07-1.06V1.4c0-.59.48-1.06,1.07-1.06s1.06.47,1.06,1.06v17.89h17.97c.59,0,1.07.48,1.07,1.07s-.48,1.06-1.07,1.06h0Z"/>
    <path id="Document" class="cls-2" d="m97.31,113.39H16.08c-.59,0-1.06-.48-1.06-1.07V1.07C15.01.48,15.49,0,16.08,0h61.9C78.26,0,78.53.11,78.73.31l19.33,19.29c.2.2.31.47.31.75v91.96c0,.59-.48,1.07-1.07,1.07h0Zm-80.17-2.13h79.1V20.8L77.54,2.13H17.14v109.12h0Z"/>
    <path class="cls-2" d="m74.41,28.1c-.1-.29-.31-.51-.58-.64l-4.91-2.28c-.56-.26-1.27.03-1.53.6l-2.1,4.58c-.26.04-.5.2-.62.47l-.27.59c-.12.27-.1.56.05.78l-.1.21c-.26.03-.49.2-.62.47l-.27.6c-.12.27-.09.56.05.77l-.1.21c-.26.04-.5.2-.62.47l-.27.59c-.12.27-.1.56.05.78l-22.9,49.86s0,.04-.01.07c0,.03-.02.06-.02.09h0s-.21,8.76-.21,8.76c0,.16.09.3.23.36.05.03.11.04.16.04.09,0,.19-.03.26-.1l6.49-5.84s.07-.08.09-.13l22.9-49.86c.26-.04.5-.2.62-.47l.27-.59c.12-.27.1-.56-.04-.78l.1-.21c.26-.04.5-.2.62-.47l.27-.59c.12-.26.09-.56-.05-.78l.1-.21c.26-.04.49-.2.61-.47l.28-.59c.12-.27.09-.56-.05-.78l2.1-4.58c.14-.3.15-.63.04-.93Z"/>
  </g>
</svg>