<?xml version="1.0" encoding="UTF-8"?>
<svg id="Layer_1" data-name="Layer 1" xmlns="http://www.w3.org/2000/svg" viewBox="0 0 113.39 113.39">
  <defs>
    <style>
      .cls-1 {
        fill: #047eaa;
      }

      .cls-2 {
        fill: #023452;
      }

      .cls-3 {
        fill: #fff;
      }
    </style>
  </defs>
  <path class="cls-2" d="m113.39,58.98c-12.17-.02-22.61-7.4-27.1-17.93-.02,0-.04,0-.07,0-16.29,0-29.5-13.2-29.5-29.49,0-4.08.83-7.97,2.33-11.5-.77-.03-1.55-.05-2.33-.05C25.95,0,.91,24.49.03,55.03h-.03v57.19c0,.64.52,1.16,1.16,1.16h55.95c30.38-.21,55.08-24.29,56.28-54.41Z"/>
  <g>
    <path class="cls-3" d="m14.4,72.96v7.26h-4.56v-19.63h6.39c1.42,0,2.63.15,3.63.44,1,.29,1.82.7,2.45,1.22.63.52,1.09,1.14,1.38,1.85.29.71.43,1.48.43,2.32,0,.64-.09,1.24-.26,1.81s-.42,1.09-.76,1.57c-.34.48-.75.91-1.24,1.29s-1.05.69-1.69.93c.3.15.59.34.86.57.27.23.5.5.69.82l4.18,6.83h-4.12c-.76,0-1.31-.29-1.65-.86l-3.26-5.7c-.14-.25-.31-.43-.5-.54s-.47-.16-.82-.16h-1.16Zm0-3.14h1.83c.62,0,1.15-.08,1.58-.24.44-.16.79-.37,1.07-.65s.48-.6.61-.98c.13-.37.19-.77.19-1.21,0-.86-.28-1.53-.84-2.02-.56-.48-1.43-.73-2.61-.73h-1.83v5.82Z"/>
    <path class="cls-3" d="m45.58,70.41c0,1.42-.25,2.73-.73,3.93s-1.18,2.24-2.07,3.11c-.89.88-1.96,1.56-3.22,2.05-1.25.49-2.64.73-4.17.73h-7.63v-19.63h7.63c1.53,0,2.92.25,4.17.74,1.25.49,2.33,1.18,3.22,2.05.89.87,1.58,1.91,2.07,3.1s.73,2.5.73,3.91Zm-4.66,0c0-.97-.13-1.85-.38-2.63-.25-.78-.61-1.44-1.09-1.99s-1.05-.96-1.73-1.25c-.68-.29-1.46-.44-2.33-.44h-3.05v12.62h3.05c.87,0,1.65-.15,2.33-.44.68-.29,1.26-.71,1.73-1.25.47-.54.83-1.2,1.09-1.99.25-.78.38-1.66.38-2.64Z"/>
    <path class="cls-3" d="m58.33,72.32c.17.37.33.75.48,1.13.15-.4.32-.78.48-1.15.17-.37.35-.73.53-1.09l5.04-9.93c.09-.17.18-.3.28-.4s.2-.16.32-.21c.12-.04.25-.07.4-.07h4v19.62h-4.02v-11.29c0-.55.03-1.14.08-1.78l-5.2,10.09c-.16.32-.38.55-.65.71-.27.16-.59.24-.94.24h-.62c-.35,0-.66-.08-.94-.24s-.49-.4-.65-.71l-5.23-10.1c.04.32.06.63.08.94s.03.6.03.86v11.29h-4.02v-19.62h4c.15,0,.28.02.4.07.12.05.22.11.32.21s.19.23.28.4l5.05,9.97c.18.34.35.7.52,1.07Z"/>
  </g>
  <g>
    <path class="cls-1" d="m24.24,94.14c0,1.11-.19,2.11-.57,3.03s-.89,1.7-1.54,2.35-1.41,1.16-2.28,1.52-1.81.54-2.81.54-1.92-.18-2.8-.55-1.64-.88-2.29-1.54-1.17-1.44-1.55-2.35-.57-1.91-.57-2.99v-12.53h3.61v6.58c.19-.25.43-.46.7-.66s.57-.35.9-.47.65-.22.99-.28.68-.1,1-.1c1,0,1.94.19,2.81.56s1.63.89,2.28,1.56,1.16,1.45,1.54,2.36.57,1.9.57,2.98Zm-3.62,0c0-.54-.09-1.05-.28-1.52s-.45-.87-.77-1.22-.7-.61-1.14-.8-.9-.29-1.39-.29-.95.11-1.39.32-.81.5-1.14.86-.58.76-.76,1.22-.28.94-.28,1.43c0,.54.09,1.05.28,1.51s.44.87.76,1.21.7.61,1.14.81.9.3,1.39.3.95-.1,1.39-.3.81-.47,1.14-.81.58-.75.77-1.21.28-.97.28-1.51Z"/>
    <path class="cls-1" d="m30.46,83.39c0,.33-.06.64-.19.93s-.3.54-.52.76-.48.39-.77.51-.61.19-.94.19-.65-.06-.94-.19-.55-.3-.76-.51-.39-.47-.51-.76-.19-.6-.19-.93.06-.63.19-.93.3-.55.51-.76.47-.39.76-.51.61-.19.94-.19.65.06.94.19.55.3.77.51.39.47.52.76.19.6.19.93Zm-.62,17.92h-3.62v-14.09h3.62v14.09Z"/>
    <path class="cls-1" d="m39.65,101.31c-.87,0-1.68-.16-2.45-.49s-1.43-.78-2.01-1.36-1.03-1.24-1.36-2.01-.49-1.58-.49-2.45v-4.18h-1.75v-3.58h1.75v-5.63h3.58v5.63h5.45v3.58h-5.45v4.18c0,.38.07.73.21,1.06s.33.62.58.86.54.44.87.59.69.22,1.07.22h2.72v3.58h-2.72Z"/>
    <path class="cls-1" d="m50,97.87c.14.04.28.07.42.09s.28.02.42.02c.35,0,.69-.05,1.01-.14s.63-.23.91-.41.54-.4.76-.66.41-.55.55-.86l2.63,2.64c-.33.47-.72.9-1.15,1.28s-.9.7-1.41.96-1.04.46-1.59.6-1.13.2-1.72.2c-.99,0-1.92-.18-2.8-.55s-1.64-.88-2.29-1.54-1.17-1.44-1.55-2.35-.57-1.91-.57-2.99.19-2.13.57-3.05.89-1.71,1.55-2.36,1.42-1.15,2.29-1.51,1.81-.54,2.8-.54c.59,0,1.16.07,1.72.21s1.09.34,1.6.61.98.59,1.41.97.82.81,1.16,1.28l-6.74,8.12Zm1.84-7.41c-.17-.06-.33-.1-.49-.12s-.33-.03-.51-.03c-.49,0-.95.09-1.39.27s-.81.44-1.13.77-.57.73-.76,1.2-.28,1-.28,1.59c0,.13,0,.28.02.45s.04.34.07.51.07.34.11.49.1.3.17.42l4.19-5.55Z"/>
    <path class="cls-1" d="m66.28,101.31h-8.21v-3.58h8.21c.25,0,.46-.09.63-.26s.26-.39.26-.63-.09-.42-.26-.5-.39-.12-.63-.12h-3.74c-.62,0-1.21-.12-1.75-.36s-1.02-.56-1.42-.97-.72-.88-.95-1.43-.35-1.13-.35-1.75.12-1.21.35-1.75.55-1.02.95-1.42.88-.72,1.42-.95,1.13-.35,1.75-.35h7.28v3.58h-7.28c-.25,0-.46.09-.63.26s-.26.39-.26.63.09.47.26.65.39.27.63.27h3.74c.61,0,1.19.1,1.74.31s1.02.49,1.42.86.72.81.96,1.33.36,1.08.36,1.7-.12,1.2-.36,1.74-.56,1.01-.96,1.42-.88.73-1.42.96-1.12.35-1.74.35Z"/>
  </g>
</svg>