<?xml version="1.0" encoding="UTF-8"?>
<svg id="Persona_Woman" data-name="Persona Woman" xmlns="http://www.w3.org/2000/svg" viewBox="0 0 99.21 99.21">
  <defs>
    <style>
      .cls-1 {
        fill: #073452;
      }
    </style>
  </defs>
  <path class="cls-1" d="m79.52,35.43c0-16.5-13.42-29.92-29.92-29.92s-29.92,13.42-29.92,29.92c0,8.63,3.68,16.41,9.54,21.88v37.26l20.38-13.59,20.38,13.59v-37.26c5.86-5.47,9.54-13.25,9.54-21.88Zm-57.84,0c0-15.39,12.52-27.92,27.92-27.92s27.92,12.52,27.92,27.92-12.52,27.92-27.92,27.92-27.92-12.52-27.92-27.92Zm46.3,55.4l-18.38-12.26-18.38,12.26v-31.72c5.24,4.08,11.69,6.31,18.38,6.31s13.14-2.23,18.38-6.31v31.72Z"/>
  <polygon class="cls-1" points="41.17 48.42 49.61 43.98 58.05 48.42 56.43 39.02 63.26 32.37 53.83 31 49.61 22.44 45.39 31 35.95 32.37 42.78 39.02 41.17 48.42"/>
</svg>