<?xml version="1.0" encoding="UTF-8"?>
<svg id="ASTRONAUT" xmlns="http://www.w3.org/2000/svg" viewBox="0 0 863.92 863.91">
  <defs>
    <style>
      .cls-1 {
        fill: #091c29;
        font-family: Lato-Regular, Lato;
        font-size: 55px;
      }

      .cls-1, .cls-2 {
        stroke: #063552;
        stroke-miterlimit: 10;
      }

      .cls-3 {
        fill: #ed7e25;
      }

      .cls-4 {
        fill: #fff;
      }

      .cls-2 {
        fill: none;
        stroke-linecap: round;
        stroke-width: 8px;
      }
    </style>
  </defs>
  <circle class="cls-2" cx="431.99" cy="431.91" r="345"/>
  <path class="cls-4" d="m431.99,100.37c-183.1,0-331.53,148.43-331.53,331.53s148.43,331.53,331.53,331.53,331.53-148.43,331.53-331.53S615.09,100.37,431.99,100.37Zm0,595.73c-145.91,0-264.2-118.29-264.2-264.2s118.29-264.2,264.2-264.2,264.2,118.29,264.2,264.2-118.29,264.2-264.2,264.2Z"/>
  <text class="cls-1" transform="translate(637.97 238.42) rotate(48.22)"><tspan x="0" y="0"> </tspan></text>
  <text class="cls-1" transform="translate(647.16 248.17) rotate(52.66)"><tspan x="0" y="0">d</tspan></text>
  <text class="cls-1" transform="translate(665.24 271.95) rotate(58.39)"><tspan x="0" y="0">a</tspan></text>
  <text class="cls-1" transform="translate(678.9 294.35) rotate(62.93)"><tspan x="0" y="0">t</tspan></text>
  <text class="cls-1" transform="translate(687.83 311.01) rotate(68.26)"><tspan x="0" y="0">a</tspan></text>
  <text class="cls-1" transform="translate(697.73 335.91) rotate(71.5)"><tspan x="0" y="0"> </tspan></text>
  <text class="cls-1" transform="translate(702.71 348.14) rotate(77.31)"><tspan x="0" y="0">m</tspan></text>
  <text class="cls-1" transform="translate(711.92 391.25) rotate(84.48)"><tspan x="0" y="0">a</tspan></text>
  <text class="cls-1" transform="translate(714.59 417.53) rotate(90.21)"><tspan x="0" y="0">n</tspan></text>
  <text class="cls-1" transform="translate(714.44 447.32) rotate(95.93)"><tspan x="0" y="0">a</tspan></text>
  <text class="cls-1" transform="translate(711.78 473.63) rotate(101.42)"><tspan x="0" y="0">g</tspan></text>
  <text class="cls-1" transform="translate(706.45 500.39) rotate(106.97)"><tspan x="0" y="0">e</tspan></text>
  <text class="cls-1" transform="translate(698.86 527.27) rotate(114.22)"><tspan x="0" y="0">m</tspan></text>
  <text class="cls-1" transform="translate(680.37 567.29) rotate(121.48)"><tspan x="0" y="0">e</tspan></text>
  <text class="cls-1" transform="translate(665.77 591.31) rotate(127.33)"><tspan x="0" y="0">n</tspan></text>
  <text class="cls-1" transform="translate(647.73 614.67) rotate(132.22)"><tspan x="0" y="0">t</tspan></text>
  <text class="cls-1" transform="translate(634.79 628.83) rotate(135.55)"><tspan x="0" y="0"> </tspan></text>
  <text class="cls-1" transform="translate(625.54 638.44) rotate(140.09)"><tspan x="0" y="0">•</tspan></text>
  <text class="cls-1" transform="translate(601.42 658.18) rotate(144.64)"><tspan x="0" y="0"> </tspan></text>
  <text class="cls-1" transform="translate(590.72 666.2) rotate(149.06)"><tspan x="0" y="0">d</tspan></text>
  <text class="cls-1" transform="translate(565.06 681.54) rotate(154.74)"><tspan x="0" y="0">a</tspan></text>
  <text class="cls-1" transform="translate(541.27 692.64) rotate(159.22)"><tspan x="0" y="0">t</tspan></text>
  <text class="cls-1" transform="translate(523.58 699.55) rotate(163.8)"><tspan x="0" y="0">a</tspan></text>
  <text class="cls-1" transform="translate(497.92 706.79) rotate(167.87)"><tspan x="0" y="0"> </tspan></text>
  <text class="cls-1" transform="translate(484.79 709.79) rotate(171.61)"><tspan x="0" y="0">s</tspan></text>
  <text class="cls-1" transform="translate(461.9 713.12) rotate(175.91)"><tspan x="0" y="0">t</tspan></text>
  <text class="cls-1" transform="translate(443.15 714.69) rotate(-179.3)"><tspan x="0" y="0">e</tspan></text>
  <text class="cls-1" transform="translate(415.46 714.87) rotate(-172.24)"><tspan x="0" y="0">w</tspan></text>
  <text class="cls-1" transform="translate(374.12 708.84) rotate(-165.39)"><tspan x="0" y="0">a</tspan></text>
  <text class="cls-1" transform="translate(348.44 702.03) rotate(-160.77)"><tspan x="0" y="0">r</tspan></text>
  <text class="cls-1" transform="translate(331.16 696.31) rotate(-156.02)"><tspan x="0" y="0">d</tspan></text>
  <text class="cls-1" transform="translate(303.85 684.03) rotate(-150.69)"><tspan x="0" y="0">s</tspan></text>
  <text class="cls-1" transform="translate(283.74 672.97) rotate(-145.35)"><tspan x="0" y="0">h</tspan></text>
  <text class="cls-1" transform="translate(259.25 655.67) rotate(-141.04)"><tspan x="0" y="0">i</tspan></text>
  <text class="cls-1" transform="translate(249.29 648.09) rotate(-136.71)"><tspan x="0" y="0">p</tspan></text>
  <text class="cls-1" transform="translate(227.58 627.23) rotate(-132.27)"><tspan x="0" y="0"> </tspan></text>
  <text class="cls-1" transform="translate(218.31 617.59) rotate(-127.72)"><tspan x="0" y="0">•</tspan></text>
  <text class="cls-1" transform="translate(199.51 592.76) rotate(-123.18)"><tspan x="0" y="0"> </tspan></text>
  <text class="cls-1" transform="translate(192.01 581.46) rotate(-119.85)"><tspan x="0" y="0">t</tspan></text>
  <text class="cls-1" transform="translate(182.49 564.93) rotate(-115.98)"><tspan x="0" y="0">r</tspan></text>
  <text class="cls-1" transform="translate(174.07 548.08) rotate(-111.49)"><tspan x="0" y="0">a</tspan></text>
  <text class="cls-1" transform="translate(164.48 523.14) rotate(-107.55)"><tspan x="0" y="0">i</tspan></text>
  <text class="cls-1" transform="translate(160.37 511.31) rotate(-103.25)"><tspan x="0" y="0">n</tspan></text>
  <text class="cls-1" transform="translate(153.8 482.07) rotate(-98.92)"><tspan x="0" y="0">i</tspan></text>
  <text class="cls-1" transform="translate(151.5 469.77) rotate(-94.58)"><tspan x="0" y="0">n</tspan></text>
  <text class="cls-1" transform="translate(149.13 440.11) rotate(-88.72)"><tspan x="0" y="0">g</tspan></text>
  <text class="cls-1" transform="translate(150 412.19) rotate(-84.51)"><tspan x="0" y="0"> </tspan></text>
  <text class="cls-1" transform="translate(151.29 398.63) rotate(-81.75)"><tspan x="0" y="0"> </tspan></text>
  <text class="cls-1" transform="translate(152.84 385.34) rotate(-77.24)"><tspan x="0" y="0">•</tspan></text>
  <text class="cls-1" transform="translate(160.03 355.02) rotate(-72.74)"><tspan x="0" y="0"> </tspan></text>
  <text class="cls-1" transform="translate(163.8 342.12) rotate(-68.81)"><tspan x="0" y="0">c</tspan></text>
  <text class="cls-1" transform="translate(172.63 318.84) rotate(-63.3)"><tspan x="0" y="0">o</tspan></text>
  <text class="cls-1" transform="translate(185.65 291.76) rotate(-55.83)"><tspan x="0" y="0">m</tspan></text>
  <text class="cls-1" transform="translate(210.2 255.4) rotate(-46.93)"><tspan x="0" y="0">m</tspan></text>
  <text class="cls-1" transform="translate(240.57 223.5) rotate(-39.43)"><tspan x="0" y="0">u</tspan></text>
  <text class="cls-1" transform="translate(263.48 204.6) rotate(-33.37)"><tspan x="0" y="0">n</tspan></text>
  <text class="cls-1" transform="translate(288.69 188.36) rotate(-29.05)"><tspan x="0" y="0">i</tspan></text>
  <text class="cls-1" transform="translate(299.7 182.12) rotate(-25.85)"><tspan x="0" y="0">t</tspan></text>
  <text class="cls-1" transform="translate(316.69 173.66) rotate(-21.2)"><tspan x="0" y="0">y</tspan></text>
  <text class="cls-1" transform="translate(341.34 164.28) rotate(-17.34)"><tspan x="0" y="0"> </tspan></text>
  <text class="cls-1" transform="translate(354.02 159.96) rotate(-12.94)"><tspan x="0" y="0">b</tspan></text>
  <text class="cls-1" transform="translate(383.1 153.23) rotate(-6.87)"><tspan x="0" y="0">u</tspan></text>
  <text class="cls-1" transform="translate(412.87 149.95) rotate(-2.53)"><tspan x="0" y="0">i</tspan></text>
  <text class="cls-1" transform="translate(425.63 149.38) rotate(.06)"><tspan x="0" y="0">l</tspan></text>
  <text class="cls-1" transform="translate(437.92 149.03) rotate(4.37)"><tspan x="0" y="0">d</tspan></text>
  <text class="cls-1" transform="translate(467.9 151.63) rotate(8.7)"><tspan x="0" y="0">i</tspan></text>
  <text class="cls-1" transform="translate(480.32 153.17) rotate(13)"><tspan x="0" y="0">n</tspan></text>
  <text class="cls-1" transform="translate(509.31 159.87) rotate(18.79)"><tspan x="0" y="0">g</tspan></text>
  <text class="cls-1" transform="translate(535.68 169.1) rotate(22.96)"><tspan x="0" y="0"> </tspan></text>
  <text class="cls-1" transform="translate(548.22 174.4) rotate(25.7)"><tspan x="0" y="0"> </tspan></text>
  <text class="cls-1" transform="translate(560.53 180.3) rotate(28.45)"><tspan x="0" y="0"> </tspan></text>
  <text class="cls-1" transform="translate(572.49 186.78) rotate(31.2)"><tspan x="0" y="0"> </tspan></text>
  <g>
    <path class="cls-4" d="m463.12,458.27c11.18,0,12.3-1.15,14.65-10.55l14.53-58.43c2.95-11.94,2.99-13.97.76-18.91h25.35c-4.7,4.94-5.69,7.04-8.64,18.91l-13.41,53.85c-5.97,23.88-14.69,32.6-37.57,32.6h-53.33c-20.58,0-26.51-10.55-21.02-32.6l13.57-54.65c2.51-10.07,2.19-14.01,1.23-18.11h46.73c-3.97,5.37-6.69,11.55-7.96,18.11l-14.93,59.7c-1.71,6.93.52,9.87,7.56,9.87l32.48.2Z"/>
    <path class="cls-4" d="m615.85,454.05c2.39,7.58,5.73,14.83,9.95,21.57h-49.39l-12.46-44.62-12.18,10.71-3.98,15.92c-2.51,10.03-2.19,14.01-1.23,18.11h-46.69c3.96-5.37,6.68-11.56,7.96-18.11l17.19-69.14c2-5.82,2.42-12.07,1.23-18.11h46.73c-3.97,5.37-6.69,11.55-7.96,18.11l-7.2,29.1,35.42-31.84c5.93-5.29,7.56-7.96,8.44-11.38.29-1.31.51-2.64.64-3.98h36.74c-5.97,2.63-11.51,6.13-16.44,10.39l-24.56,20.74,17.79,52.54Z"/>
  </g>
  <g>
    <path class="cls-4" d="m408.94,496.85v5.35h-16.03v10.7h13.53v5.38h-13.53v14.72h-6.77v-36.15h22.8Z"/>
    <path class="cls-4" d="m422.87,506.95c1.62,0,3.1.26,4.46.77,1.36.52,2.53,1.27,3.51,2.26.98.99,1.75,2.21,2.3,3.65s.83,3.09.83,4.94c0,.47-.02.85-.06,1.16-.04.31-.12.55-.22.73-.11.17-.25.3-.44.38-.18.07-.42.11-.7.11h-15.85c.18,2.63.89,4.57,2.12,5.8s2.87,1.85,4.9,1.85c1,0,1.86-.12,2.59-.35.72-.23,1.36-.49,1.9-.78.54-.28,1.02-.54,1.42-.77s.8-.35,1.19-.35c.25,0,.47.05.65.15s.34.24.47.42l1.8,2.25c-.68.8-1.45,1.47-2.3,2.01-.85.54-1.74.97-2.66,1.3s-1.87.55-2.83.69-1.89.2-2.79.2c-1.78,0-3.44-.3-4.98-.89-1.53-.59-2.87-1.47-4-2.62-1.13-1.16-2.02-2.59-2.67-4.3-.65-1.71-.97-3.69-.97-5.94,0-1.75.28-3.4.85-4.94.57-1.54,1.38-2.88,2.44-4.03,1.06-1.14,2.35-2.04,3.88-2.71,1.53-.67,3.25-1,5.16-1Zm.12,4.42c-1.8,0-3.21.51-4.23,1.53s-1.67,2.46-1.95,4.32h11.6c0-.8-.11-1.55-.33-2.26-.22-.71-.55-1.33-1-1.86-.45-.53-1.02-.95-1.7-1.26s-1.48-.46-2.4-.46Z"/>
    <path class="cls-4" d="m445.57,495.85v37.15h-6.17v-37.15h6.17Z"/>
    <path class="cls-4" d="m459.12,495.85v37.15h-6.17v-37.15h6.17Z"/>
    <path class="cls-4" d="m477.04,506.95c1.92,0,3.65.31,5.21.92,1.56.62,2.89,1.49,3.99,2.62,1.1,1.13,1.95,2.52,2.55,4.15.6,1.63.9,3.46.9,5.47s-.3,3.87-.9,5.5c-.6,1.63-1.45,3.03-2.55,4.17-1.1,1.15-2.43,2.03-3.99,2.65-1.56.62-3.3.92-5.21.92s-3.66-.31-5.22-.92c-1.57-.62-2.9-1.5-4.01-2.65-1.11-1.15-1.97-2.54-2.58-4.17-.61-1.63-.91-3.47-.91-5.5s.3-3.84.91-5.47c.61-1.63,1.47-3.02,2.58-4.15,1.11-1.13,2.45-2.01,4.01-2.62,1.57-.62,3.31-.92,5.22-.92Zm0,21.67c2.13,0,3.71-.72,4.74-2.15,1.03-1.43,1.54-3.53,1.54-6.3s-.51-4.88-1.54-6.33c-1.02-1.45-2.6-2.17-4.74-2.17s-3.77.73-4.8,2.19c-1.03,1.46-1.55,3.56-1.55,6.31s.52,4.85,1.55,6.29c1.03,1.44,2.63,2.16,4.8,2.16Z"/>
    <path class="cls-4" d="m491.39,507.35h4.9c.47,0,.86.11,1.17.33.32.22.52.49.6.83l3.68,13.7c.2.75.36,1.48.49,2.2s.25,1.43.36,2.15c.18-.72.38-1.43.59-2.15.21-.72.43-1.45.66-2.2l4.25-13.75c.1-.33.3-.61.6-.83.3-.22.65-.33,1.05-.33h2.72c.45,0,.83.11,1.12.33s.5.49.6.83l4.2,14c.22.72.41,1.41.59,2.09.17.68.35,1.35.51,2.04.12-.72.25-1.43.39-2.15.14-.72.32-1.46.54-2.22l3.8-13.7c.08-.33.28-.61.6-.83.32-.22.68-.33,1.1-.33h4.67l-8.12,25.65h-4.97c-.53,0-.92-.37-1.15-1.1l-4.62-14.83c-.15-.48-.29-.97-.41-1.46-.12-.49-.23-.98-.31-1.46-.1.5-.21,1-.33,1.49-.12.49-.25.99-.4,1.49l-4.67,14.78c-.23.73-.68,1.1-1.35,1.1h-4.73l-8.12-25.65Z"/>
    <path class="cls-4" d="m549.29,512.35c-.17.27-.34.46-.53.56-.18.11-.42.16-.7.16-.3,0-.62-.08-.96-.25-.34-.17-.74-.35-1.19-.56-.45-.21-.96-.4-1.54-.56s-1.25-.25-2.04-.25c-1.22,0-2.17.26-2.88.77-.7.52-1.05,1.19-1.05,2.03,0,.55.18,1.01.54,1.39s.83.7,1.42.99,1.26.54,2.01.76c.75.22,1.52.47,2.3.74s1.55.57,2.3.91c.75.34,1.42.78,2.01,1.3.59.52,1.07,1.15,1.42,1.89.36.73.54,1.62.54,2.65,0,1.23-.23,2.37-.67,3.41-.45,1.04-1.11,1.94-1.98,2.7-.87.76-1.94,1.35-3.21,1.78-1.28.42-2.74.64-4.39.64-.88,0-1.75-.08-2.59-.24s-1.65-.38-2.42-.66-1.49-.62-2.15-1c-.66-.38-1.24-.8-1.74-1.25l1.42-2.35c.18-.28.4-.5.65-.65s.57-.22.95-.22.75.11,1.09.32c.34.22.74.45,1.19.7.45.25.98.48,1.59.7s1.38.33,2.31.33c.73,0,1.36-.09,1.89-.26.52-.17.96-.4,1.3-.69s.59-.61.75-.99.24-.76.24-1.16c0-.6-.18-1.09-.54-1.47-.36-.38-.83-.72-1.42-1-.59-.28-1.27-.54-2.03-.76-.76-.22-1.53-.47-2.33-.74s-1.57-.58-2.33-.94c-.76-.36-1.43-.81-2.02-1.36-.59-.55-1.07-1.23-1.42-2.03-.36-.8-.54-1.77-.54-2.9,0-1.05.21-2.05.62-3,.42-.95,1.03-1.78,1.84-2.49.81-.71,1.82-1.27,3.02-1.7,1.21-.43,2.6-.64,4.19-.64,1.77,0,3.38.29,4.83.88s2.66,1.35,3.62,2.3l-1.4,2.22Z"/>
    <path class="cls-4" d="m555.91,533v-37.15h6.17v14.28c1-.95,2.1-1.72,3.3-2.3,1.2-.58,2.61-.88,4.22-.88,1.4,0,2.64.24,3.72.71,1.08.48,1.99,1.14,2.71,2,.72.86,1.28,1.88,1.65,3.08.38,1.19.56,2.5.56,3.94v16.33h-6.18v-16.33c0-1.57-.36-2.78-1.09-3.64-.73-.86-1.81-1.29-3.26-1.29-1.07,0-2.07.24-3,.72-.93.48-1.82,1.14-2.65,1.98v18.55h-6.17Z"/>
    <path class="cls-4" d="m591.84,499.88c0,.53-.11,1.03-.33,1.5s-.5.88-.86,1.22c-.36.35-.78.63-1.26.84-.48.21-1,.31-1.55.31s-1.04-.1-1.51-.31c-.47-.21-.89-.49-1.24-.84s-.63-.76-.84-1.22c-.21-.47-.31-.97-.31-1.5s.1-1.07.31-1.55c.21-.48.49-.9.84-1.25s.76-.63,1.24-.84c.48-.21.98-.31,1.51-.31s1.07.1,1.55.31c.48.21.9.49,1.26.84.36.35.65.77.86,1.25s.33,1,.33,1.55Zm-.92,7.47v25.65h-6.17v-25.65h6.17Z"/>
    <path class="cls-4" d="m597.89,541.38v-34.03h3.78c.4,0,.74.09,1.02.28s.47.47.55.85l.5,2.38c1.03-1.18,2.22-2.14,3.56-2.88,1.34-.73,2.91-1.1,4.71-1.1,1.4,0,2.68.29,3.84.88,1.16.58,2.16,1.43,3,2.54.84,1.11,1.49,2.48,1.95,4.1.46,1.62.69,3.49.69,5.59,0,1.92-.26,3.69-.78,5.33-.52,1.63-1.25,3.05-2.21,4.25-.96,1.2-2.12,2.14-3.47,2.81s-2.88,1.01-4.56,1.01c-1.45,0-2.68-.22-3.69-.66-1.01-.44-1.91-1.05-2.71-1.84v10.5h-6.17Zm12-29.62c-1.28,0-2.38.27-3.29.81-.91.54-1.75,1.3-2.54,2.29v11.5c.7.87,1.46,1.47,2.29,1.81.83.34,1.71.51,2.66.51s1.78-.17,2.54-.52c.76-.35,1.4-.88,1.92-1.6.52-.72.93-1.62,1.21-2.71s.43-2.38.43-3.86-.12-2.77-.36-3.81c-.24-1.04-.59-1.89-1.04-2.54s-1-1.12-1.64-1.42-1.37-.45-2.19-.45Z"/>
  </g>
  <g>
    <path class="cls-3" d="m460.29,284.35c-8.33,4.99-16.77,10.09-25.18,15.27-8.11-6.99-20.35-6.08-27.34,2.03-3.06,3.55-4.73,8.1-4.7,12.79.02,1.68.25,3.34.67,4.97-32.25,20.54-63.15,43.12-92.52,67.61-19.29-43.12-44.34-88.89-75.92-132.17-3.26,3.62-6.42,7.33-9.48,11.12,26.44,43.72,48.48,91.96,65.67,137.57-38.23,32.64-77.83,76.07-107.36,121.09,5.17,13.75,11.44,26.97,18.72,39.52,4.5-8.96,9.37-17.74,14.6-26.3h67.18c5.01-.27,8.84-4.55,8.57-9.56-.25-4.63-3.95-8.32-8.57-8.57h-55.64c6.94-10.36,14.71-21.36,23.47-32.6h32.04c5.01-.27,8.84-4.55,8.57-9.56-.25-4.63-3.95-8.32-8.57-8.57h-17.81c10.15-12.46,21.4-25.42,33.75-38.88l.32-.37c24.62,71.34,36.53,132.17,33.91,152.46-.62,7.25-4.93,13.68-11.4,17.01-4.59,2.16-6.49,8.52.72,10.68,22.94,6.76,37.09-16.02,39.62-34.31s-9.99-85.95-43.12-166.45c28.83-28.15,59.64-54.21,92.2-77.97,2.93,1.73,6.26,2.65,9.67,2.67,10.7,0,19.38-8.66,19.41-19.36,0-1.28-.13-2.56-.4-3.82,8.69-6.03,17.29-11.89,25.82-17.57,11.34,9.19,27.99,7.45,37.18-3.9,5.27-6.51,7.15-15.12,5.06-23.23,8.51-5.34,16.74-10.36,24.7-15.06,12.69,13.66,34.04,14.44,47.7,1.76,9.54-8.86,13.13-22.42,9.23-34.84,14.42-8.01,24.94-13.72,30.09-16.63,14.11,20.72,42.35,26.08,63.07,11.96,20.72-14.11,26.08-42.35,11.96-63.07-8.45-12.4-22.48-19.83-37.49-19.84-25.07,0-45.39,20.32-45.39,45.39-.02,7.57,1.87,15.02,5.5,21.65-4.51,2.27-15.03,7.53-29.77,15.19-7.83-16.96-27.93-24.36-44.88-16.53-16.96,7.83-24.36,27.93-16.53,44.88.61,1.27,1.28,2.5,2.03,3.68-7.58,4.2-15.42,8.58-23.52,13.14-7.37-12.65-23.61-16.93-36.26-9.56s-16.93,23.61-9.56,36.26Z"/>
    <path class="cls-3" d="m293.82,581.21c0-5-4.05-9.05-9.05-9.06h-77.07c3.9,6.21,8.05,12.25,12.44,18.1h64.62c5,0,9.05-4.05,9.06-9.05Z"/>
    <path class="cls-3" d="m214.06,719.62c-1.14-.66-36.25-19.68-35.02-73.04-12.29-14.43-23.36-29.92-33.06-46.33-18.68,56.08-10.46,106.36,48.51,131.7,19.09,8.2,27.8-7.5,19.57-12.34Z"/>
    <path class="cls-3" d="m167.52,187.05c6.39,6.88,12.62,14.14,18.68,21.69,1.98-2.17,3.99-4.32,6.03-6.44-6.41-6.95-13.02-13.76-19.85-20.41l-.19-.19c-7.37-7.26-13.35-4.06-4.99,4.99l.32.35Z"/>
  </g>
</svg>