<?xml version="1.0" encoding="utf-8"?>
<!-- Generator: Adobe Illustrator 27.3.1, SVG Export Plug-In . SVG Version: 6.00 Build 0)  -->
<svg version="1.1" id="Layer_1" xmlns="http://www.w3.org/2000/svg" xmlns:xlink="http://www.w3.org/1999/xlink" x="0px" y="0px"
	 viewBox="0 0 4498 720.5" style="enable-background:new 0 0 4498 720.5;" xml:space="preserve">
<style type="text/css">
	.st0{fill:#023452;}
	.st1{fill:#FF7500;}
</style>
<g id="Nodes">
	<path class="st0" d="M286.5,433.4c2-4.4,3.7-9.1,5.7-14.8c2.4-6.5,4.3-13.1,5.7-19.9l20.6-89.2c1.7-9.1,3.2-15.9,3.4-19.9
		c0.6-3.5,0.8-7.2,0.7-10.8v-4H369l-28,123.7c-2,8.8-3.3,15.5-4,20.2c-0.8,4.8-1.1,9.6-1,14.5L286.5,433.4L286.5,433.4z"/>
	<path class="st1" d="M902.4,0c-29.9,0-54.1,24.2-54.1,54.1c0,9,2.2,17.9,6.6,25.8c-5.4,2.7-17.9,9-35.5,18.1
		C810,77.9,786,69,765.8,78.4s-29,33.3-19.7,53.5l0,0c0.7,1.5,1.5,3,2.4,4.4c-9,5-18.4,10.2-28.1,15.7
		c-8.8-15.1-28.2-20.2-43.2-11.4c-15.1,8.8-20.2,28.2-11.4,43.2c-9.9,6-20,12-30,18.2c-9.7-8.3-24.3-7.3-32.6,2.4
		c-3.7,4.2-5.7,9.7-5.6,15.3c0,2,0.3,4,0.8,5.9c-38.5,24.5-75.3,51.4-110.4,80.6c-36.6-81.8-90.5-171.6-165.6-244.7l-0.2-0.2
		c-8.8-8.7-15.9-4.8-6,6l0.4,0.4c63.7,68.5,113.8,167.8,147.9,258.2C335,436.5,192.4,650.6,348.7,717.8c22.8,9.8,33.2-9,23.4-14.7
		c-1.8-1-71.4-38.7-27.1-154.3h111.5c6,0,10.8-4.8,10.8-10.8c0-6-4.8-10.8-10.8-10.8H354c6.6-14,14-27.7,22.1-40.9h80.1
		c6-0.3,10.5-5.4,10.2-11.4c-0.3-5.5-4.7-9.9-10.2-10.2h-66.4c8.3-12.4,17.5-25.5,28-38.9h38.2c6-0.3,10.5-5.4,10.2-11.4
		c-0.3-5.5-4.7-9.9-10.2-10.2h-21.2c12.1-14.9,25.5-30.3,40.3-46.4l0.4-0.5c29.4,85.1,43.6,157.7,40.4,181.9
		c-0.7,8.7-5.9,16.3-13.6,20.3c-5.5,2.6-7.7,10.2,0.9,12.7c27.4,8.1,44.2-19.1,47.3-40.9c3-21.8-11.9-102.5-51.4-198.5
		c34.4-33.6,71.2-64.7,110-93c3.5,2.1,7.5,3.2,11.5,3.2c12.8,0,23.1-10.3,23.2-23.1c0-1.5-0.2-3.1-0.5-4.6
		c10.4-7.2,20.6-14.2,30.8-21c13.5,11,33.4,8.9,44.3-4.6c6.3-7.8,8.5-18,6-27.7c10.2-6.4,20-12.4,29.5-18
		c15.1,16.3,40.6,17.2,56.9,2.1c11.4-10.6,15.7-26.7,11-41.6c17.2-9.6,29.8-16.4,35.9-19.8c16.8,24.7,50.5,31.1,75.2,14.3
		c24.7-16.8,31.1-50.5,14.3-75.2C937,8.9,920.3,0,902.4,0z"/>
	<path class="st0" d="M170.4,433.4H32.5c-13.8,0-23.2-3.2-28.4-9.5c-2.9-4.5-4.3-9.7-4.1-15.1c0.1-5.8,0.9-11.6,2.4-17.2l17.2-74.9
		c3.7-15.2,9.1-26,16.5-32.4c7.4-6.4,18.2-9.5,32.4-9.5h101.9c14.5,0,23.9,3.2,28.7,9.5c3.3,4.5,4.8,10,4.4,15.5
		c-0.1,5.7-0.9,11.4-2.4,16.9L190,366.3H51.4l-7.4,32.4c-0.6,2.5-0.9,5.1-1,7.7c0,1.7,0,3.2,0.7,3.7c1,2,4,3.2,8.8,3.2h101.1
		c8.8,0,17.7-0.9,26.3-2.7L170.4,433.4L170.4,433.4z M159.6,309.6c0.9-2.6,1.3-5.3,1.3-8.1c0-1.1-0.3-2.3-0.7-3.4
		c-1.3-2-4.7-3.2-9.6-3.2H79.3c-3.7-0.3-7.3,0.8-10.1,3.2c-2.9,3.1-4.6,7.2-4.7,11.5L56.1,346h95.1L159.6,309.6L159.6,309.6z"/>
	<path class="st0" d="M204.8,433.4c2.1-4.9,3.9-10.2,6.1-16.6c2.6-7.3,4.6-14.7,6.1-22.3l35.4-164c2.1-10.2,3.6-17.8,4.3-22.3
		c0.6-5.5,0.9-11.1,0.7-16.7h49.4l-44,202.8c-2.1,9.9-3.6,17.4-4.3,22.7c-0.9,5.4-1.2,10.8-1,16.2L204.8,433.4L204.8,433.4z"/>
	<path class="st0" d="M773.6,301.5c-5.1-0.4-10.1-0.7-15.9-0.7h-22.6c-3.6-0.2-7.1,0.7-10.1,2.7c-3,2.7-5,6.4-5.7,10.5l-18.9,84.7
		c-2.8,10.1-4.4,20.5-4.7,31v3.7h-49.1c2-5.1,4-9.8,5.4-14.5s3.2-11.1,5.4-20.2l20.2-89.2c2.4-8.8,3.4-15.5,4.4-20.6
		c0.5-4.7,0.8-9.4,0.7-14.1H724l-1.7,16.2c2.3-5,5.9-9.2,10.5-12.1c5.5-3,11.7-4.4,17.9-4h40.5l9.8,17.5c-2.1,1.9-4.1,4-5.7,6.4
		c-2.4,3.2-4,4.4-5,4.4C784.1,302.6,778.7,302,773.6,301.5L773.6,301.5z"/>
	<path class="st0" d="M555.5,433.4c2-4.4,3.7-9.1,5.7-14.8c2.4-6.5,4.3-13.1,5.7-19.9l20.6-89.2c1.7-9.1,3.2-15.9,3.4-19.9
		c0.6-3.5,0.8-7.2,0.7-10.8v-4h46.5l-28,123.7c-2,8.8-3.4,15.5-4,20.2c-0.8,4.8-1.1,9.6-0.9,14.4L555.5,433.4L555.5,433.4z"/>
	<path class="st0" d="M376.8,219.5c0,12.6-10.2,22.9-22.8,22.9c-12.6,0-22.9-10.2-22.9-22.8s10.2-22.9,22.8-22.9l0,0
		C366.5,196.7,376.8,206.9,376.8,219.5L376.8,219.5L376.8,219.5z"/>
	<g>
		<path class="st0" d="M995.7,322.5c9,0,9.8-0.9,11.7-8.4l11.6-46.8c2.4-9.5,2.4-11.2,0.6-15.1h20.3c-3.8,4-4.6,5.6-6.9,15.1
			l-10.7,43.1c-4.8,19.1-11.8,26.1-30.1,26.1h-42.7c-16.5,0-21.2-8.4-16.8-26.1l10.9-43.7c2-8.1,1.8-11.2,1-14.5h37.4
			c-3.2,4.3-5.4,9.2-6.4,14.5l-11.9,47.8c-1.4,5.5,0.4,7.9,6,7.9L995.7,322.5L995.7,322.5z"/>
		<path class="st0" d="M1060.9,266.8h-0.2l-13.6,54.6c-2.4,9.5-2.4,11.2-0.6,15.2h-20.3c3.7-4,4.6-5.7,6.9-15.2l13.4-54.1
			c2.4-9.5,2.4-11.2,0.6-15.1h45.2l17.1,68.7h0.4l13.3-53.6c2.4-9.5,2.4-11.2,0.6-15.1h20.3c-3.7,4-4.6,5.6-6.9,15.1l-17.2,69.2
			h-41.6L1060.9,266.8L1060.9,266.8z"/>
		<path class="st0" d="M1133.9,336.6c3.2-4.3,5.4-9.2,6.4-14.5l13.8-55.3c2-8.1,1.7-11.2,1-14.5h37.3c-3.2,4.3-5.4,9.2-6.4,14.5
			l-13.8,55.3c-2,8-1.7,11.2-1,14.5H1133.9z"/>
		<path class="st0" d="M1282,252.4l-1.7,17.4c-3.1-2.6-7.1-3.8-11.2-3.4h-14.6l-13.9,55.9c-2,8-1.8,11.2-1,14.5h-37.4
			c3.2-4.3,5.3-9.3,6.4-14.5l13.9-55.9h-14.6c-4.5-0.2-8.9,1-12.7,3.4l6.9-17.4L1282,252.4L1282,252.4z"/>
		<path class="st0" d="M1334.3,322.5c5.1,0.1,10.2-0.7,15-2.2l-6.9,16.2h-74.3c3.2-4.3,5.4-9.2,6.4-14.5l13.8-55.3
			c2-8.1,1.7-11.2,1-14.5h72.8l-1.4,16.2c-4.5-1.6-9.3-2.4-14.1-2.2h-26.2l-4.9,19.8h22.9c5.1,0.1,10.2-0.7,15-2.2l-4.6,18.4
			c-4.4-1.6-9.2-2.4-13.9-2.2H1312l-5.6,22.6L1334.3,322.5L1334.3,322.5z"/>
		<path class="st0" d="M1371.1,266.8c2-8.1,1.7-11.2,1-14.5h65.5c17.9,0,22.5,6.8,18.2,23.9l-9.1,36.4c-4.2,17.1-12.3,24-30.2,24
			h-65.4c3.2-4.3,5.3-9.2,6.4-14.5L1371.1,266.8z M1389.3,322.5h16.8c5.3,0,6.4-1.2,7.8-6.9l10.6-42.7c1.4-5.7,0.9-6.9-4.4-6.9
			h-16.7L1389.3,322.5L1389.3,322.5z"/>
		<path class="st0" d="M1017,451c1.9,6.1,4.6,11.9,8,17.3h-39.5l-10-35.7l-9.8,8.6l-3.2,12.7c-2,8-1.8,11.2-1,14.5h-37.4
			c3.2-4.3,5.3-9.2,6.4-14.5l13.8-55.3c1.6-4.7,1.9-9.7,1-14.5h37.4c-3.2,4.3-5.4,9.2-6.4,14.5l-5.8,23.3l28.3-25.5
			c4.8-4.2,6-6.4,6.8-9.1c0.2-1,0.4-2.1,0.5-3.2h29.4c-4.8,2.1-9.2,4.9-13.2,8.3l-19.7,16.6L1017,451L1017,451z"/>
		<path class="st0" d="M1029.1,468.3c3.2-4.3,5.3-9.2,6.4-14.5l13.8-55.3c2-8,1.7-11.2,1-14.5h37.4c-3.2,4.3-5.4,9.2-6.4,14.5
			l-13.8,55.2c-2,8-1.8,11.2-1,14.5L1029.1,468.3L1029.1,468.3z"/>
		<path class="st0" d="M1112.2,398.5h-0.3l-13.6,54.6c-2.4,9.5-2.4,11.2-0.6,15.2h-20.3c3.8-4,4.6-5.7,6.9-15.2l13.4-54.1
			c2.4-9.5,2.4-11.2,0.6-15.2h45.2l17.1,68.8h0.4l13.4-53.5c2.4-9.5,2.4-11.2,0.6-15.2h20.3c-3.8,4-4.6,5.7-6.9,15.2l-17.2,69.3
			h-41.7L1112.2,398.5L1112.2,398.5z"/>
		<path class="st0" d="M1288.4,417.7c-3.8,3.5-6.3,8.1-7.2,13.1l-5.2,20.8c-2.6,10.4-2.5,12.1-0.7,16.6h-28.3l0.9-7.8h-0.1
			c-2.7,4.9-4.6,7.8-13.7,7.8h-28.4c-13.7,0-19.7-6.6-15.2-24.8l8.7-34.8c4.5-18.2,13.8-24.8,27.5-24.8h61.6l-1.5,16.2
			c-3.9-1.7-8.1-2.5-12.4-2.3h-34.3c-4.2,0-6.7,1.3-7.6,5.4l-11.4,45.6c-1,4.1,0.8,5.4,5,5.4h10.8c4.2,0,6.7-1.3,7.7-5.4l4.3-17.3
			h-12c-2,0.1-4,0.6-5.8,1.6l3.9-15.5L1288.4,417.7L1288.4,417.7z"/>
		<path class="st0" d="M1302.8,398.5c2-8,1.7-11.2,1-14.5h65.5c17.9,0,22.5,6.9,18.2,24l-9.2,36.3c-4.3,17.1-12.3,24-30.2,24h-65.3
			c3.2-4.3,5.4-9.2,6.4-14.5L1302.8,398.5L1302.8,398.5z M1320.9,454.3h16.7c5.3,0,6.4-1.2,7.8-6.9l10.6-42.7
			c1.4-5.6,0.9-6.9-4.4-6.9H1335L1320.9,454.3L1320.9,454.3z"/>
		<path class="st0" d="M1398.8,408.8c4.5-18.2,13.8-24.8,27.5-24.8h48.2c13.7,0,19.7,6.6,15.2,24.8l-8.6,34.8
			c-4.5,18.2-13.8,24.8-27.5,24.8h-48.2c-13.7,0-19.7-6.6-15.2-24.8L1398.8,408.8z M1421.1,448.9c-1,4.1,0.8,5.4,5,5.4h14
			c4.2,0,6.6-1.3,7.6-5.4l11.3-45.6c1-4.1-0.8-5.4-5-5.4h-13.9c-4.2,0-6.7,1.3-7.7,5.4L1421.1,448.9L1421.1,448.9z"/>
		<path class="st0" d="M1583.6,384h43.1c-3.2,4.3-5.4,9.2-6.4,14.5l-13.7,55.2c-2,8-1.7,11.2-0.8,14.5h-37.6
			c3.2-4.3,5.3-9.2,6.4-14.5l12.9-51.9h-0.2l-40.1,66.5h-22.3l-6.1-66.4h-0.2l-12.7,51.2c-2.4,9.5-2.4,11.2-0.6,15.2h-20.3
			c3.8-4,4.6-5.7,6.9-15.2l13.4-54.1c2.4-9.5,2.4-11.2,0.6-15.2h44.6l4.2,47.8h0.3L1583.6,384L1583.6,384z"/>
	</g>
</g>
<g>
	<path class="st0" d="M2101.5,327.5h88.9c12,0,23.4-2.3,34-6.9v59.4c-6.1-3-12.8-5-20-6.3c-7.2-1.2-14.8-1.8-22.8-1.8h-80.1v75.6
		c0,8.1,0.9,15.3,2.6,21.6c1.7,6.3,4.6,12.5,8.6,18.4H1989c3.7-5.4,6.5-11.6,8.4-18.8c1.9-7.1,2.8-14.2,2.8-21.2V258.3
		c0-8.1-0.9-15.3-2.6-21.6c-1.7-6.3-4.6-12.4-8.6-18.4h233.8l8,51c-6.4-2.4-13.8-4.1-22.2-5.1c-8.4-0.9-17.1-1.4-26.2-1.4h-80.9
		V327.5z"/>
	<path class="st0" d="M2340.1,407.2v16.6c0,11.1,2.1,18.2,6.2,21.4c4.1,3.2,11.9,4.9,23.4,4.9h87.7c8.5,0,16.2-0.6,23-1.8
		c6.8-1.2,13.3-3.7,19.4-7.5l-7.2,46.9h-175.8c-25.4,0-43.8-4.9-55.4-14.6c-11.6-9.7-17.4-27.4-17.4-53v-64.3c0-24,5.3-41.2,16-51.8
		c10.7-10.5,27.8-15.8,51.2-15.8h121.3c25.1,0,43.1,4.8,54.1,14.4c10.9,9.6,16.4,27,16.4,52.4v52.2L2340.1,407.2L2340.1,407.2z
		 M2407.8,347.7c0-9.4-1.3-15.4-3.8-18c-2.5-2.6-6.5-3.8-11.8-3.8h-38c-5.3,0-9,1.5-11,4.6s-3,8-3,14.8v23.9h67.7L2407.8,347.7
		L2407.8,347.7z"/>
	<path class="st0" d="M2636.8,437.6c0,5.4,0.1,10.6,0.2,15.8c0.1,5.1,0.6,10.5,1.4,16.1c0.8,5.6,2.9,11.7,6.4,18.2h-112.5
		c3.5-6.2,5.7-12.9,6.6-20c0.9-7.1,1.4-15.7,1.4-25.6V245.4c-0.8-4.3-1.4-7.8-1.8-10.5c-0.4-2.7-1-5.1-1.8-7.3s-2.3-5.2-4.4-9.3
		h104.5L2636.8,437.6L2636.8,437.6z"/>
	<path class="st0" d="M2781.3,437.6c0,5.4,0.1,10.6,0.2,15.8c0.1,5.1,0.6,10.5,1.4,16.1c0.8,5.6,2.9,11.7,6.4,18.2h-112.5
		c3.5-6.2,5.7-12.9,6.6-20c0.9-7.1,1.4-15.7,1.4-25.6V245.4c-0.8-4.3-1.4-7.8-1.8-10.5c-0.4-2.7-1-5.1-1.8-7.3s-2.3-5.2-4.4-9.3
		h104.5L2781.3,437.6L2781.3,437.6z"/>
	<path class="st0" d="M3013.1,288.7c24.6,0,42.9,4.5,55.1,13.5c12.1,9,18.2,25.5,18.2,49.4v79.1c0,18.3-4.8,32.4-14.4,42.4
		c-9.6,10-23.8,14.9-42.4,14.9l-9.6-0.4h-125.3c-24.8,0-43.6-4-56.4-11.9s-19.2-23.7-19.2-47.4V344c0-16.1,5.3-29.5,16-40
		c10.7-10.5,24-15.7,40-15.7l10.8,0.4H3013.1L3013.1,288.7z M2916.2,426.6c0,8.9,1.7,15,5,18.4c3.3,3.4,9.4,5,18.2,5h27.2
		c8.5,0,14.5-2,17.8-5.9c3.3-3.9,5-10.2,5-18.8V351c0-9.2-2-15.6-6-19.4c-4-3.8-10.9-5.7-20.8-5.7h-23.2c-15.5,0-23.2,7.4-23.2,22.2
		L2916.2,426.6L2916.2,426.6z"/>
	<path class="st0" d="M3381.2,288.3l30.9,122.8l17.7-72.5c1.1-4,2-8.6,2.8-13.6c0.8-5,1.2-9.7,1.2-14c0-4-0.3-8.1-1-12.2
		c-0.7-4-1.7-7.6-3-10.5h60.4c-5.3,5.4-9.4,11.1-12.2,17.2s-5.4,13.8-7.8,23.2l-40.4,158.9h-98.9l-39.6-153.2l-39.2,153.2h-98.9
		l-41.6-165.8c-3.2-12.1-8.1-23.3-14.8-33.6h118.9c-1.3,3.7-2.3,6.8-3,9.2c-0.7,2.4-1,5.1-1,8c0,5.6,0.2,10,0.6,13
		c0.4,3.1,1.5,8.2,3.3,15.4l18.4,75.7l30.5-121.4L3381.2,288.3L3381.2,288.3z"/>
	<path class="st0" d="M3747.3,338.4c-7.5-5.7-14.5-9.2-21-10.5c-6.5-1.3-15.7-2-27.4-2h-86.5c-4,0-7.2,0.5-9.6,1.6
		c-2.4,1.1-3.6,3.5-3.6,7.3c0,3,1.1,5.3,3.4,7.1c2.3,1.8,5,2.6,8.2,2.6l4.8-0.4h76.1c19.8,0,34.5,4.4,44.2,13.1
		c9.7,8.8,14.6,23,14.6,42.7v28.3c0,21.3-6.4,36.5-19.2,45.7c-12.8,9.2-30.3,13.8-52.4,13.8h-168.9l-8.8-51
		c10.9,5.7,19.8,9.3,26.6,10.9c6.8,1.6,16.5,2.4,29,2.4h84.5c5.3,0,9.6-0.7,12.8-2c3.2-1.4,4.8-4.5,4.8-9.3c0-4-1.5-6.8-4.4-8.3
		c-2.9-1.5-6.5-2.2-10.8-2.2h-85.7c-34.2,0-51.2-17.5-51.2-52.6v-31.5c0-22.1,7.3-36.9,22-44.5c14.7-7.5,34-11.3,58.1-11.3h151.3
		L3747.3,338.4L3747.3,338.4z"/>
	<path class="st0" d="M3884.6,300c2.7-4.6,5.9-7.7,9.8-9.3s8.6-2.4,14.2-2.4h75.7c20.6,0,36.5,4.9,47.8,14.6
		c11.3,9.7,17,24.9,17,45.7v104.7c0,5.1,0.3,10,1,14.6c0.7,4.6,1.5,8,2.4,10.3c0.9,2.3,2.5,5.5,4.6,9.5h-112.5
		c3.5-6.2,5.7-12.9,6.6-20c0.9-7.1,1.4-15.7,1.4-25.7v-92.2c0-7-1.3-12.7-3.8-17.2c-2.5-4.5-8.6-6.7-18.2-6.7h-26.4
		c-13.1,0-19.6,7.3-19.6,21.8v89.8c0,5.4,0.1,10.6,0.2,15.8c0.1,5.1,0.6,10.5,1.4,16.2c0.8,5.7,2.9,11.7,6.4,18.2h-112.9
		c3.5-6.2,5.7-12.9,6.6-20c0.9-7.1,1.4-15.7,1.4-25.6V245.4c-0.8-4.3-1.4-7.8-1.8-10.5c-0.4-2.7-1-5.1-1.8-7.3s-2.3-5.2-4.4-9.3
		h104.9L3884.6,300L3884.6,300z"/>
	<path class="st0" d="M4191.3,437.5v15.8c0,5.1,0.3,10,1,14.6c0.7,4.6,1.5,8,2.4,10.3c0.9,2.3,2.5,5.5,4.6,9.5h-112.9
		c3.5-6.2,5.7-12.9,6.6-20c0.9-7.1,1.4-15.7,1.4-25.7V315c-0.8-4-1.5-8.1-2-12.1c-0.5-4-2.5-8.9-6-14.6h104.9L4191.3,437.5
		L4191.3,437.5z M4191.3,268.9h-96.9v-50.5h96.9V268.9z"/>
	<path class="st0" d="M4237.7,338.4v-23c-0.8-4.3-1.4-7.8-1.8-10.5c-0.4-2.7-1-5.1-1.8-7.3s-2.3-5.3-4.4-9.3h92.5l4.4,16.2
		c4.3-6.5,9.6-10.8,16-12.9c6.4-2.2,14.5-3.2,24.4-3.2h68.9c20,0,35.4,4.6,46,13.9c10.7,9.3,16,24,16,44.2v86
		c0,16.7-4.5,30.1-13.4,40.1c-9,10.1-21.7,15.1-38.2,15.1H4367c-15.2,0-26.2-6.2-32.8-18.6v38.6c0,12.5,0.4,22.1,1.2,29
		c0.8,6.9,3.1,14,6.8,21.3h-104.5L4237.7,338.4L4237.7,338.4z M4379.9,449.6c8.8,0,14.6-2,17.4-6c2.8-4,4.2-10.8,4.2-20.1v-79
		c0-12.1-6.8-18.1-20.4-18.1h-26.4c-13.6,0-20.4,7.5-20.4,22.6v79.8c0,7.8,1.9,13.2,5.8,16.3c3.9,3.1,9.9,4.6,18.2,4.6L4379.9,449.6
		L4379.9,449.6z"/>
</g>
</svg>
