<?xml version="1.0" encoding="UTF-8"?>
<svg id="Layer_1" data-name="Layer 1" xmlns="http://www.w3.org/2000/svg" viewBox="0 0 1805.5 858.69">
  <defs>
    <style>
      .cls-1 {
        fill: #ff7500;
      }

      .cls-2 {
        fill: #404040;
      }
    </style>
  </defs>
  <g id="Nodes">
    <path class="cls-2" d="m286.45,433.37c2.01-4.36,3.69-9.08,5.73-14.84,2.36-6.48,4.27-13.12,5.7-19.87l20.57-89.18c1.69-9.11,3.18-15.92,3.38-19.91.6-3.55.83-7.16.67-10.77v-4.04h46.53l-28,123.73c-2,8.77-3.34,15.51-4.04,20.22-.81,4.79-1.14,9.64-.99,14.49l-49.56.16Z"/>
    <path class="cls-1" d="m902.41,0c-29.9,0-54.14,24.24-54.14,54.14-.03,9.03,2.23,17.91,6.56,25.83-5.38,2.71-17.93,8.98-35.51,18.12-9.34-20.23-33.31-29.05-53.54-19.71-20.23,9.34-29.05,33.31-19.71,53.54h0c.72,1.51,1.53,2.98,2.42,4.4-9.05,5.01-18.4,10.23-28.06,15.67-8.79-15.09-28.16-20.2-43.25-11.4-15.09,8.79-20.2,28.16-11.4,43.25-9.94,5.96-20,12.04-30.03,18.22-9.67-8.34-24.27-7.26-32.61,2.42-3.65,4.24-5.65,9.66-5.61,15.26.03,2,.29,3.99.8,5.92-38.47,24.5-75.33,51.44-110.36,80.64-36.59-81.79-90.52-171.57-165.62-244.67l-.22-.22c-8.79-8.66-15.92-4.84-5.96,5.96l.38.41c63.7,68.54,113.77,167.75,147.88,258.23-129.4,110.48-272.02,324.58-115.71,391.75,22.77,9.78,33.16-8.95,23.35-14.71-1.75-1.02-71.37-38.66-27.14-154.31h111.47c5.96,0,10.8-4.83,10.8-10.79,0-5.96-4.83-10.8-10.79-10.8h-102.38c6.62-14.02,13.99-27.69,22.07-40.93h80.13c5.97-.32,10.55-5.43,10.23-11.4-.3-5.52-4.71-9.93-10.23-10.23h-66.37c8.28-12.36,17.55-25.48,28-38.89h38.22c5.97-.32,10.55-5.43,10.23-11.4-.3-5.52-4.71-9.93-10.23-10.23h-21.24c12.1-14.86,25.52-30.32,40.26-46.37l.38-.45c29.36,85.1,43.57,157.65,40.45,181.86-.74,8.65-5.88,16.31-13.6,20.29-5.48,2.58-7.74,10.16.86,12.74,27.36,8.06,44.24-19.11,47.26-40.93,3.03-21.82-11.91-102.52-51.44-198.55,34.39-33.58,71.15-64.66,109.98-93,3.49,2.06,7.47,3.16,11.53,3.18,12.76,0,23.12-10.33,23.15-23.09,0-1.53-.16-3.06-.48-4.55,10.36-7.2,20.63-14.18,30.8-20.96,13.53,10.96,33.39,8.88,44.35-4.65,6.29-7.76,8.53-18.04,6.04-27.71,10.15-6.37,19.97-12.36,29.46-17.96,15.13,16.29,40.6,17.23,56.89,2.1,11.38-10.57,15.66-26.74,11.01-41.56,17.2-9.55,29.75-16.37,35.89-19.84,16.83,24.71,50.51,31.1,75.23,14.27,24.71-16.83,31.1-50.51,14.27-75.23C937.05,8.87,920.31.01,902.41,0Z"/>
    <path class="cls-2" d="m170.39,433.37H32.48c-13.82,0-23.25-3.18-28.35-9.55-2.91-4.47-4.35-9.74-4.11-15.06.08-5.81.87-11.58,2.36-17.2l17.2-74.85c3.73-15.16,9.11-25.96,16.53-32.36s18.22-9.55,32.39-9.55h101.92c14.49,0,23.92,3.18,28.66,9.55,3.26,4.48,4.83,9.98,4.43,15.51-.06,5.7-.86,11.36-2.39,16.85l-11.12,49.56H51.37l-7.42,32.36c-.58,2.54-.92,5.13-1.02,7.74,0,1.69,0,3.18.7,3.69.99,2.04,4.01,3.18,8.76,3.18h101.12c8.84.05,17.66-.85,26.31-2.68l-9.43,22.8Zm-10.8-123.73c.86-2.61,1.31-5.34,1.34-8.09-.03-1.15-.26-2.3-.67-3.38-1.34-2.01-4.71-3.18-9.55-3.18h-71.37c-3.65-.31-7.28.83-10.1,3.18-2.93,3.11-4.61,7.19-4.71,11.47l-8.44,36.4h95.07l8.44-36.4Z"/>
    <path class="cls-2" d="m204.75,433.37c2.13-4.9,3.92-10.19,6.08-16.63,2.55-7.28,4.58-14.73,6.08-22.29l35.42-164.02c2.13-10.22,3.57-17.77,4.27-22.29.65-5.53.89-11.09.73-16.66h49.37l-44.02,202.82c-2.12,9.85-3.56,17.42-4.3,22.71-.86,5.37-1.21,10.81-1.05,16.24l-52.58.13Z"/>
    <path class="cls-2" d="m773.64,301.55c-5.06-.35-10.13-.67-15.92-.67h-22.58c-3.57-.23-7.11.71-10.1,2.68-3.03,2.74-5.05,6.42-5.73,10.45l-18.89,84.66c-2.84,10.11-4.42,20.53-4.71,31.02v3.69h-49.14c2.01-5.06,4.04-9.78,5.38-14.49,1.34-4.71,3.18-11.15,5.41-20.22l20.22-89.18c2.36-8.76,3.38-15.51,4.4-20.57.54-4.69.76-9.42.67-14.14h41.4l-1.69,16.18c2.26-4.96,5.88-9.16,10.45-12.13,5.46-2.99,11.65-4.4,17.87-4.04h40.48l9.75,17.52c-2.14,1.91-4.06,4.04-5.73,6.37-2.36,3.18-4.01,4.4-5.03,4.4-6.05-.48-11.47-1.11-16.5-1.5Z"/>
    <path class="cls-2" d="m555.48,433.37c2.01-4.36,3.69-9.08,5.7-14.84,2.39-6.48,4.3-13.12,5.73-19.87l20.57-89.18c1.69-9.11,3.18-15.92,3.38-19.91.6-3.55.83-7.16.67-10.77v-4.04h46.53l-28,123.73c-2.01,8.76-3.38,15.51-4.01,20.22-.79,4.77-1.08,9.6-.89,14.43l-49.68.22Z"/>
    <path class="cls-2" d="m376.83,219.47c.02,12.61-10.19,22.85-22.8,22.87-12.61.02-22.85-10.19-22.87-22.8-.02-12.61,10.19-22.85,22.8-22.87h0c12.59.02,22.79,10.22,22.8,22.8h.06Z"/>
    <path class="cls-2" d="m502.83,712.79c8.95,0,9.84-.92,11.72-8.44l11.62-46.75c2.36-9.55,2.39-11.18.61-15.13h20.29c-3.76,3.95-4.55,5.64-6.91,15.13l-10.73,43.09c-4.78,19.11-11.75,26.08-30.07,26.08h-42.68c-16.47,0-21.21-8.44-16.82-26.08l10.86-43.73c2.01-8.06,1.75-11.21.99-14.49h37.39c-3.18,4.29-5.36,9.25-6.37,14.49l-11.94,47.77c-1.37,5.54.41,7.9,6.05,7.9l25.99.16Z"/>
    <path class="cls-2" d="m568.09,657.08h-.25l-13.63,54.65c-2.36,9.55-2.39,11.18-.61,15.16h-20.29c3.73-3.98,4.55-5.67,6.91-15.16l13.44-54.14c2.36-9.55,2.39-11.18.61-15.13h45.19l17.13,68.73h.38l13.34-53.6c2.36-9.55,2.39-11.18.61-15.13h20.29c-3.73,3.95-4.55,5.64-6.91,15.13l-17.23,69.18h-41.6l-17.39-69.69Z"/>
    <path class="cls-2" d="m641.06,726.89c3.18-4.29,5.36-9.25,6.37-14.49l13.79-55.32c1.97-8.06,1.72-11.21.96-14.49h37.3c-3.19,4.29-5.37,9.24-6.37,14.49l-13.79,55.32c-1.97,8.03-1.72,11.18-.96,14.49h-37.3Z"/>
    <path class="cls-2" d="m789.15,642.72l-1.69,17.39c-3.11-2.58-7.12-3.82-11.15-3.44h-14.62l-13.89,55.86c-2.01,8.03-1.75,11.18-.99,14.49h-37.39c3.15-4.31,5.32-9.26,6.37-14.49l13.89-55.86h-14.62c-4.5-.16-8.93,1.04-12.74,3.44l6.94-17.39h79.88Z"/>
    <path class="cls-2" d="m841.45,712.79c5.1.09,10.18-.66,15.03-2.23l-6.91,16.21h-74.3c3.18-4.29,5.36-9.25,6.37-14.49l13.79-55.32c1.97-8.06,1.72-11.21.96-14.49h72.84l-1.4,16.18c-4.5-1.63-9.26-2.39-14.05-2.23h-26.21l-4.94,19.75h22.93c5.1.07,10.17-.68,15.03-2.23l-4.59,18.44c-4.45-1.63-9.18-2.38-13.92-2.23h-22.93l-5.64,22.64h27.93Z"/>
    <path class="cls-2" d="m878.27,657.08c2.01-8.06,1.72-11.21.96-14.49h65.48c17.9,0,22.52,6.85,18.25,23.95l-9.05,36.37c-4.24,17.1-12.29,23.98-30.19,23.98h-65.45c3.17-4.3,5.34-9.25,6.37-14.49l13.63-55.32Zm18.22,55.7h16.75c5.26,0,6.37-1.18,7.77-6.85l10.61-42.68c1.4-5.67.92-6.85-4.36-6.85h-16.72l-14.05,56.37Z"/>
    <path class="cls-2" d="m524.2,841.33c1.91,6.07,4.59,11.87,7.96,17.26h-39.52l-9.97-35.7-9.75,8.57-3.18,12.74c-2.01,8.03-1.75,11.21-.99,14.49h-37.36c3.17-4.3,5.34-9.25,6.37-14.49l13.76-55.32c1.6-4.66,1.94-9.66.99-14.49h37.39c-3.18,4.29-5.36,9.25-6.37,14.49l-5.76,23.28,28.35-25.48c4.75-4.24,6.05-6.37,6.75-9.11.23-1.05.4-2.11.51-3.18h29.4c-4.77,2.1-9.21,4.9-13.15,8.31l-19.65,16.59,14.24,42.04Z"/>
    <path class="cls-2" d="m536.24,858.59c3.17-4.3,5.34-9.25,6.37-14.49l13.76-55.32c2.01-8.03,1.72-11.21.96-14.49h37.42c-3.18,4.29-5.36,9.25-6.37,14.49l-13.76,55.23c-2.01,8.03-1.75,11.21-.99,14.49l-37.39.1Z"/>
    <path class="cls-2" d="m619.33,788.78h-.29l-13.6,54.59c-2.36,9.55-2.39,11.21-.61,15.16h-20.29c3.76-3.95,4.59-5.67,6.94-15.16l13.44-54.14c2.36-9.55,2.39-11.21.61-15.16h45.19l17.13,68.76h.38l13.38-53.54c2.36-9.55,2.39-11.21.61-15.16h20.29c-3.76,3.95-4.59,5.67-6.94,15.16l-17.17,69.3h-41.72l-17.36-69.81Z"/>
    <path class="cls-2" d="m795.52,808.01c-3.75,3.5-6.28,8.11-7.23,13.15l-5.19,20.83c-2.58,10.41-2.48,12.1-.7,16.59h-28.31l.86-7.77h-.1c-2.68,4.87-4.55,7.77-13.66,7.77h-28.44c-13.7,0-19.71-6.59-15.19-24.78l8.66-34.75c4.52-18.19,13.82-24.78,27.52-24.78h61.63l-1.53,16.21c-3.89-1.68-8.12-2.46-12.36-2.26h-34.27c-4.2,0-6.66,1.34-7.64,5.41l-11.37,45.58c-1.02,4.08.76,5.41,5,5.41h10.8c4.2,0,6.66-1.34,7.68-5.41l4.27-17.26h-11.98c-2.03.09-4.01.64-5.8,1.59l3.95-15.54h53.41Z"/>
    <path class="cls-2" d="m809.92,788.78c1.97-8.03,1.72-11.21.96-14.49h65.48c17.9,0,22.52,6.85,18.25,23.98l-9.17,36.34c-4.27,17.13-12.29,23.98-30.19,23.98h-65.35c3.18-4.29,5.36-9.25,6.37-14.49l13.66-55.32Zm18.19,55.86h16.72c5.29,0,6.37-1.21,7.77-6.88l10.64-42.68c1.4-5.64.89-6.85-4.36-6.85h-16.72l-14.05,56.4Z"/>
    <path class="cls-2" d="m906.01,799.07c4.52-18.19,13.79-24.78,27.49-24.78h48.22c13.7,0,19.68,6.59,15.16,24.78l-8.63,34.75c-4.52,18.19-13.82,24.78-27.52,24.78h-48.22c-13.7,0-19.68-6.59-15.16-24.78l8.66-34.75Zm22.29,40.16c-1.02,4.08.76,5.41,4.97,5.41h13.98c4.2,0,6.62-1.34,7.64-5.41l11.34-45.58c1.02-4.08-.76-5.41-4.97-5.41h-13.95c-4.24,0-6.66,1.34-7.68,5.41l-11.34,45.58Z"/>
    <path class="cls-2" d="m1090.77,774.29h43.09c-3.22,4.27-5.41,9.23-6.37,14.49l-13.73,55.23c-2.01,8.03-1.72,11.21-.83,14.49h-37.61c3.17-4.3,5.34-9.25,6.37-14.49l12.9-51.91h-.25l-40.1,66.5h-22.29l-6.12-66.41h-.25l-12.74,51.18c-2.36,9.55-2.39,11.21-.61,15.16h-20.29c3.76-3.95,4.59-5.67,6.94-15.16l13.44-54.14c2.36-9.55,2.39-11.21.61-15.16h44.59l4.17,47.77h.29l28.79-47.55Z"/>
  </g>
  <g>
    <path class="cls-2" d="m1090.76,301.97c3.76-15.12,3.26-21.06,1.83-27.26h123.16c33.7,0,42.39,12.89,34.37,45.1l-17.03,68.39c-8.02,32.21-23.12,45.1-56.82,45.1h-123.16c4.52-6.2,7.98-12.14,11.74-27.26l25.91-104.07Zm34.3,105.07h31.47c9.91,0,11.95-2.23,14.61-12.89l19.99-80.29c2.65-10.66,1.72-12.89-8.19-12.89h-31.47l-26.41,106.06Z"/>
    <path class="cls-2" d="m1385.9,316.84c28,0,36.19,11.89,28.23,43.86l-12.65,50.8c-2.96,11.89-2.03,17.1.27,21.81h-58.48l.23-12.89h-.5c-5.56,10.41-11.14,12.89-27,12.89h-41.63c-26.27,0-30.99-10.9-24.94-35.19l2.1-8.43c6.05-24.28,16.2-35.19,42.46-35.19h53.28c8.18,0,10.41-1.98,11.76-7.43,1.3-5.2.12-7.43-8.06-7.43h-58.23c-10.9,0-16.72,1.49-24.53,4.96l11.12-27.75h106.55Zm-60.4,60.46c-8.98.25-12.76,1.49-14.86,9.91l-3.33,13.38c-2.1,8.43,1.06,9.66,9.92,9.91h13.63c11.15,0,12.82-1.73,16.52-16.6l4.13-16.6h-26.02Z"/>
    <path class="cls-2" d="m1600.67,306.18c-6.63-3.22-11.59-5.2-23.24-5.2h-56.25c-9.42,0-11.95,1.24-13.37,6.94l-2.22,8.92c-1.48,5.95.5,6.94,9.92,6.94h42.87c25.77,0,37.43,8.92,31.69,31.97l-9.62,38.66c-6.23,25.03-18.61,38.9-47.6,38.9h-109.03l2.82-32.21c5.21,2.97,10.41,5.95,22.31,5.95h58.48c9.42,0,11.65-.99,13.13-6.94l2.71-10.9c1.42-5.7-.25-6.94-9.67-6.94h-49.31c-24.04,0-31.48-7.93-24.88-34.44l8.82-35.44c6.17-24.78,21.52-37.67,42.83-37.67h112.25l-2.63,31.47Z"/>
    <path class="cls-2" d="m1724.29,338.15l9.01-36.18c3.76-15.12,3.26-21.06,1.83-27.26h70.37c-4.52,6.2-7.98,12.14-11.74,27.26l-25.91,104.07c-3.76,15.12-3.26,21.06-1.83,27.26h-70.37c4.52-6.2,7.98-12.14,11.74-27.26l10.37-41.63h-45.1l-10.37,41.63c-3.76,15.12-3.26,21.06-1.83,27.26h-70.37c4.52-6.2,7.98-12.14,11.74-27.26l25.91-104.07c3.76-15.12,3.26-21.06,1.83-27.26h70.37c-4.52,6.2-7.98,12.14-11.74,27.26l-9.01,36.18h45.1Z"/>
  </g>
</svg>