<?xml version="1.0" encoding="UTF-8"?>
<svg id="ASTRONAUT" xmlns="http://www.w3.org/2000/svg" viewBox="0 0 863.92 863.91" width="863.92 px">
  <defs>
    <style>
      .cls-1 {
        fill: #073452;
      }

      .cls-1, .cls-2, .cls-3 {
        stroke-width: 0px;
      }

      .cls-2 {
        fill: #063552;
      }

      .cls-3 {
        fill: #ed7e25;
      }
    </style>
  </defs>
  <path class="cls-2" d="m431.99,780.91c-47.11,0-92.82-9.23-135.85-27.43-41.56-17.58-78.88-42.74-110.93-74.79-32.05-32.05-57.21-69.37-74.79-110.93-18.2-43.03-27.43-88.73-27.43-135.85s9.23-92.82,27.43-135.85c17.58-41.56,42.74-78.88,74.79-110.93,32.05-32.05,69.37-57.21,110.93-74.79,43.03-18.2,88.73-27.43,135.85-27.43s92.82,9.23,135.85,27.43c41.56,17.58,78.88,42.74,110.93,74.79,32.05,32.05,57.21,69.37,74.79,110.93,18.2,43.03,27.43,88.73,27.43,135.85s-9.23,92.82-27.43,135.85c-17.58,41.56-42.74,78.88-74.79,110.93-32.05,32.05-69.37,57.21-110.93,74.79-43.03,18.2-88.73,27.43-135.85,27.43Zm0-690c-91.08,0-176.72,35.47-241.12,99.88-64.41,64.41-99.88,150.04-99.88,241.12s35.47,176.72,99.88,241.12c64.41,64.41,150.04,99.88,241.12,99.88s176.72-35.47,241.12-99.88c64.41-64.41,99.88-150.04,99.88-241.12s-35.47-176.72-99.88-241.12c-64.41-64.41-150.04-99.88-241.12-99.88Z"/>
  <g>
    <path class="cls-2" d="m235.8,640.07c-1.9-1.79-3.98-2.48-6.27-2.09-2.28.39-4.6,1.84-6.95,4.33-1.24,1.32-2.2,2.56-2.85,3.73-.66,1.17-1.05,2.26-1.19,3.29-.13,1.02,0,1.97.37,2.86s.97,1.71,1.79,2.48c1.16,1.09,2.43,1.79,3.81,2.07,1.38.29,2.89.29,4.54.01l9.24-9.81c.18-1.5.05-2.79-.39-3.88-.43-1.09-1.13-2.09-2.09-2.99Z"/>
    <path class="cls-2" d="m130.08,432.17c.82.02,1.58-.1,2.28-.35.69-.25,1.29-.63,1.8-1.13.51-.5.91-1.12,1.2-1.87.29-.74.45-1.61.47-2.6.02-.99-.1-1.86-.35-2.62-.26-.76-.63-1.4-1.11-1.92-.48-.52-1.07-.92-1.75-1.19-.68-.27-1.43-.42-2.26-.44-1.7-.04-3.07.45-4.1,1.46-1.03,1.01-1.57,2.5-1.61,4.46-.04,1.98.43,3.5,1.41,4.56.99,1.06,2.33,1.61,4.04,1.64Z"/>
    <path class="cls-2" d="m318.97,695.43c-.65-.71-1.48-1.29-2.5-1.75-1.47-.66-2.91-.89-4.3-.71-1.39.18-2.82.68-4.29,1.49l-5.47,12.29c.34,1.49.89,2.68,1.67,3.56s1.76,1.58,2.97,2.12c2.36,1.05,4.56,1.01,6.58-.11s3.74-3.25,5.13-6.39c.74-1.66,1.23-3.14,1.47-4.45.24-1.31.25-2.46.04-3.47-.21-1.01-.64-1.87-1.29-2.58Z"/>
    <path class="cls-2" d="m160.51,543.38c.79.76,1.56,1.24,2.31,1.43.75.19,1.47.14,2.19-.14.68-.27,1.23-.61,1.63-1.03s.69-.88.86-1.39c.17-.51.22-1.05.16-1.63-.06-.58-.21-1.17-.44-1.76-.32-.8-.69-1.5-1.11-2.11-.42-.6-.9-1.14-1.44-1.6-.54-.47-1.13-.89-1.76-1.26s-1.33-.7-2.08-1l-5.37,2.12c.89,2.07,1.76,3.79,2.61,5.17.85,1.37,1.67,2.44,2.46,3.2Z"/>
    <path class="cls-2" d="m151.3,434.16c.62.01,1.21-.13,1.76-.44.55-.31,1.03-.79,1.44-1.44.41-.65.74-1.47.99-2.47.25-.99.39-2.17.42-3.53.03-1.32-.06-2.51-.28-3.56-.21-1.05-.53-1.94-.96-2.67s-.93-1.3-1.53-1.7c-.6-.4-1.26-.61-1.99-.62-.68-.02-1.23.16-1.66.54-.43.38-.77.89-1.02,1.53-.25.65-.44,1.4-.56,2.26-.12.86-.22,1.77-.29,2.73s-.15,1.94-.23,2.92c-.08.99-.19,1.94-.34,2.85.45,1.04,1.04,1.89,1.75,2.56.71.67,1.55,1.01,2.52,1.03Z"/>
    <path class="cls-2" d="m517.65,712.61c.83-.72,1.38-1.44,1.63-2.16.26-.72.28-1.46.06-2.19-.2-.7-.5-1.28-.87-1.72-.38-.44-.81-.77-1.3-.98-.49-.21-1.03-.31-1.61-.31-.58,0-1.18.1-1.79.28-.83.24-1.56.54-2.2.91-.64.37-1.21.8-1.73,1.29-.52.49-.99,1.04-1.41,1.64-.43.6-.82,1.26-1.19,1.98l1.61,5.55c2.15-.7,3.94-1.41,5.38-2.12,1.44-.72,2.58-1.43,3.41-2.15Z"/>
    <path class="cls-2" d="m561.26,695.37c.71-.84,1.13-1.64,1.27-2.39s.05-1.48-.28-2.18c-.31-.66-.69-1.18-1.13-1.56-.44-.38-.92-.63-1.44-.76-.52-.13-1.06-.15-1.63-.05-.57.1-1.15.28-1.73.56-.78.37-1.46.78-2.03,1.25-.57.46-1.07.98-1.5,1.55-.43.57-.81,1.18-1.14,1.84-.33.66-.61,1.37-.86,2.14l2.46,5.22c2.01-1.03,3.67-2.01,4.98-2.94,1.31-.93,2.33-1.82,3.03-2.66Z"/>
    <path class="cls-2" d="m420.86,734.51c.31.95.77,1.77,1.37,2.46.61.69,1.35,1.24,2.22,1.62.88.39,1.87.59,2.99.6,2.35.03,4.21-.63,5.59-1.98,1.38-1.35,2.25-3.23,2.61-5.65l-15.23-.19c-.01,1.13.13,2.18.44,3.13Z"/>
    <path class="cls-2" d="m365.54,710.71c-.31-.43-.72-.79-1.22-1.09-.5-.29-1.06-.52-1.68-.68-.83-.22-1.62-.33-2.35-.34-.74-.01-1.45.06-2.15.22-.7.16-1.38.39-2.06.69-.67.3-1.35.66-2.03,1.09l-1.46,5.59c2.2.5,4.1.81,5.71.93s2.95.09,4.03-.1c1.08-.19,1.92-.53,2.51-1.02.59-.49.98-1.11,1.18-1.85.18-.71.23-1.35.13-1.93-.1-.57-.3-1.08-.62-1.51Z"/>
    <path class="cls-2" d="m159.76,303.58c1.02.89,2.27,1.71,3.74,2.45,2.95,1.48,5.55,2.03,7.81,1.64,2.26-.39,4.01-1.83,5.27-4.32,1.24-2.46,1.33-4.71.3-6.75-1.04-2.04-3.03-3.8-5.98-5.28-2.96-1.49-5.58-2.05-7.84-1.67-2.26.38-4.01,1.8-5.25,4.26-.63,1.25-.96,2.44-1,3.58-.04,1.14.19,2.22.68,3.24s1.25,1.97,2.27,2.86Z"/>
    <path class="cls-2" d="m524.22,150.13c.62.5,1.4.91,2.34,1.23.94.32,1.81.47,2.61.45.8-.02,1.52-.18,2.17-.48.64-.3,1.2-.74,1.67-1.31.46-.57.83-1.24,1.09-2.02.55-1.61.5-3.07-.16-4.35s-1.91-2.25-3.77-2.88c-1.88-.64-3.46-.65-4.77-.03-1.31.62-2.23,1.74-2.78,3.35-.26.78-.38,1.54-.35,2.28.03.74.21,1.42.53,2.06.33.63.8,1.2,1.42,1.7Z"/>
    <path class="cls-2" d="m658.79,257.53c.98,1.28,2.12,2.18,3.43,2.69,1.31.51,2.8.76,4.48.75l10.69-8.16c.42-1.47.5-2.78.24-3.92-.26-1.14-.79-2.23-1.59-3.28-1.57-2.05-3.51-3.08-5.83-3.06-2.32.02-4.84,1.06-7.56,3.14-1.44,1.1-2.58,2.17-3.42,3.2-.84,1.03-1.41,2.04-1.7,3.03-.3.99-.33,1.95-.1,2.88.23.93.68,1.84,1.36,2.73Z"/>
    <path class="cls-2" d="m701.4,315.64c-.8-.76-1.57-1.23-2.31-1.42-.75-.19-1.48-.14-2.19.15-.68.27-1.22.62-1.63,1.04-.41.42-.69.88-.85,1.39-.16.51-.21,1.05-.15,1.63s.21,1.16.45,1.76c.32.8.69,1.5,1.12,2.1.43.6.91,1.13,1.45,1.6.54.47,1.13.88,1.77,1.25.64.37,1.33.7,2.08.99l5.36-2.14c-.9-2.07-1.78-3.79-2.63-5.15-.85-1.37-1.67-2.43-2.47-3.19Z"/>
    <path class="cls-2" d="m679.41,274.19c-.91-.61-1.75-.94-2.52-1-.77-.06-1.48.12-2.13.52-.62.38-1.1.82-1.43,1.3-.33.48-.53.99-.6,1.52-.07.53-.03,1.07.13,1.63.16.56.41,1.11.75,1.66.45.73.94,1.36,1.46,1.88.52.52,1.09.96,1.7,1.32.61.37,1.27.67,1.96.93.69.25,1.43.46,2.22.62l4.92-3.03c-1.24-1.88-2.4-3.42-3.48-4.63-1.07-1.2-2.07-2.11-2.98-2.72Z"/>
    <path class="cls-2" d="m364.54,153.28c1.16.24,2.36.22,3.61-.07,2.56-.59,4.3-1.94,5.25-4.06.94-2.12,1.01-4.96.18-8.54-.76-3.32-1.93-5.63-3.49-6.91-1.57-1.29-3.46-1.67-5.7-1.16-1.55.36-2.83,1.02-3.81,2-.99.98-1.82,2.24-2.51,3.77l3.02,13.13c1.15.98,2.3,1.59,3.45,1.83Z"/>
    <path class="cls-2" d="m515.17,167.34c.5.59,1.18,1.15,2.05,1.69.87.54,1.95,1.03,3.24,1.46,1.25.42,2.41.69,3.47.8,1.07.11,2.01.07,2.84-.11s1.52-.5,2.08-.95c.56-.45.96-1.02,1.19-1.71.22-.64.21-1.22-.02-1.75-.23-.52-.61-1-1.15-1.44-.54-.43-1.2-.84-1.98-1.21-.78-.37-1.62-.74-2.51-1.1-.89-.36-1.8-.73-2.72-1.1-.92-.37-1.79-.76-2.62-1.18-1.13.12-2.11.42-2.96.89-.85.48-1.43,1.17-1.74,2.09-.2.59-.24,1.19-.11,1.81.13.61.44,1.21.94,1.8Z"/>
    <path class="cls-2" d="m447.62,143.77c.54.88,1.23,1.54,2.08,1.99.85.45,1.83.72,2.94.8,1.61.12,3.04-.14,4.29-.77,1.25-.64,2.43-1.59,3.54-2.85l1.03-13.41c-.82-1.3-1.74-2.22-2.76-2.79-1.02-.57-2.19-.9-3.51-1-2.58-.2-4.63.57-6.16,2.31-1.53,1.74-2.43,4.32-2.69,7.74-.14,1.81-.1,3.37.11,4.68.21,1.31.59,2.41,1.13,3.29Z"/>
    <path class="cls-2" d="m723.66,399.5c-.55-.95-1.16-1.62-1.82-2.01-.66-.39-1.38-.54-2.15-.47-.73.07-1.35.25-1.85.54-.51.29-.91.66-1.21,1.1-.3.44-.5.95-.6,1.52-.1.57-.12,1.18-.06,1.82.08.86.25,1.63.49,2.33.24.69.56,1.34.95,1.94.39.6.84,1.16,1.35,1.69.51.53,1.09,1.04,1.72,1.53l5.75-.56c-.29-2.24-.65-4.13-1.09-5.68-.44-1.55-.93-2.8-1.48-3.75Z"/>
    <path class="cls-2" d="m708.6,479.1c-.61-.12-1.21-.08-1.81.12-.59.21-1.15.6-1.67,1.16-.52.57-.99,1.32-1.41,2.25-.42.93-.77,2.07-1.04,3.4-.26,1.29-.38,2.48-.35,3.55.03,1.07.18,2.01.47,2.8.29.8.69,1.44,1.21,1.94.52.5,1.13.82,1.85.96.67.13,1.24.05,1.73-.24.49-.29.92-.74,1.28-1.33s.68-1.3.95-2.12c.27-.82.53-1.7.77-2.63.25-.93.49-1.88.74-2.84.25-.96.53-1.88.83-2.75-.26-1.1-.69-2.04-1.27-2.82-.58-.78-1.35-1.27-2.3-1.46Z"/>
    <path class="cls-2" d="m729.13,484.79c-.81-.16-1.58-.18-2.3-.06-.73.12-1.38.39-1.97.79-.59.41-1.09.95-1.51,1.63-.42.68-.73,1.51-.92,2.48-.2.97-.23,1.85-.11,2.64.12.79.37,1.49.76,2.09.38.6.89,1.09,1.51,1.48.62.39,1.34.66,2.15.83,1.67.34,3.1.1,4.3-.72,1.19-.82,1.98-2.19,2.37-4.11.39-1.94.2-3.52-.59-4.73-.78-1.21-2.01-1.99-3.68-2.33Z"/>
    <path class="cls-2" d="m431.99,100.37c-183.1,0-331.53,148.43-331.53,331.53s148.43,331.53,331.53,331.53,331.53-148.43,331.53-331.53S615.09,100.37,431.99,100.37Zm309.5,302.14c.15,1.55.03,2.95-.37,4.21-.4,1.25-1.01,2.33-1.84,3.25-.83.91-1.88,1.64-3.13,2.18-1.26.54-2.66.89-4.21,1.04l-17.74,1.71-.21-2.16c-.05-.47,0-.85.13-1.12.13-.27.42-.5.86-.69l2.57-.8c-.75-.66-1.41-1.32-2-1.96-.59-.64-1.09-1.33-1.52-2.06-.43-.73-.78-1.52-1.06-2.37-.28-.85-.46-1.8-.57-2.86-.1-1.08-.05-2.1.16-3.08.21-.98.58-1.85,1.12-2.61.53-.76,1.24-1.39,2.12-1.89.88-.5,1.95-.81,3.21-.93,1.09-.1,2.18.09,3.25.6,1.07.5,2.06,1.39,2.98,2.67.91,1.27,1.73,2.97,2.44,5.1.71,2.12,1.26,4.76,1.63,7.91l2.16-.21c2.15-.21,3.74-.83,4.75-1.87,1.01-1.04,1.43-2.45,1.26-4.24-.12-1.21-.37-2.2-.75-2.98-.38-.78-.78-1.45-1.22-2.01-.43-.56-.82-1.04-1.16-1.43-.34-.4-.53-.81-.57-1.23-.03-.33.03-.62.18-.87.15-.25.35-.48.59-.66l1.48-1.03c1.63,1.39,2.89,2.93,3.79,4.63.9,1.7,1.46,3.62,1.66,5.78Zm-10.11-53.84c.15.68-.08,1.17-.71,1.48l-2.71.98c1.46.72,2.72,1.62,3.79,2.7,1.07,1.07,1.79,2.43,2.16,4.08.41,1.82.23,3.42-.53,4.79-.76,1.36-1.96,2.49-3.58,3.38,1.07.17,2.03.49,2.89.94.85.46,1.6,1.02,2.24,1.68.64.66,1.16,1.41,1.57,2.22s.72,1.67.92,2.57c.32,1.43.38,2.76.18,3.98-.2,1.22-.66,2.32-1.36,3.29-.7.98-1.65,1.81-2.83,2.51-1.19.7-2.6,1.23-4.25,1.6l-17.31,3.9-1.08-4.8,17.3-3.9c2.13-.48,3.64-1.31,4.53-2.49.89-1.18,1.14-2.64.74-4.4-.18-.79-.48-1.5-.92-2.15-.44-.64-.98-1.17-1.64-1.59s-1.43-.69-2.31-.82c-.88-.13-1.86-.07-2.94.17l-17.3,3.9-1.08-4.8,17.3-3.9c2.18-.49,3.71-1.3,4.59-2.42.88-1.12,1.12-2.52.75-4.2-.27-1.18-.83-2.2-1.69-3.06-.86-.86-1.93-1.59-3.21-2.18l-20.25,4.56-1.08-4.8,27.18-6.12.65,2.87Zm-11.19-30.98c-.03,1.32-.32,2.52-.86,3.63-.55,1.11-1.35,2.1-2.4,2.97-1.05.87-2.3,1.6-3.75,2.18l-16.55,6.6-.8-2.02c-.18-.45-.24-.81-.19-1.11.05-.3.26-.6.63-.9l2.25-1.49c-.9-.43-1.72-.87-2.47-1.32-.74-.45-1.42-.97-2.04-1.55-.62-.58-1.18-1.24-1.68-1.98-.5-.74-.95-1.6-1.34-2.59-.4-1-.64-2.01-.71-3-.07-1,.04-1.94.34-2.82.3-.88.8-1.68,1.51-2.41.71-.73,1.65-1.32,2.82-1.79,1.02-.41,2.12-.52,3.29-.33,1.17.18,2.37.76,3.61,1.73,1.24.97,2.49,2.37,3.77,4.21,1.28,1.84,2.54,4.22,3.78,7.14l2.02-.8c2.01-.8,3.36-1.84,4.04-3.12.68-1.28.69-2.75.03-4.42-.45-1.12-.96-2.01-1.55-2.65-.58-.65-1.16-1.18-1.73-1.59-.57-.42-1.08-.77-1.52-1.05-.44-.29-.74-.63-.89-1.02-.12-.31-.15-.6-.07-.89s.2-.55.38-.8l1.13-1.4c1.95.88,3.59,2.01,4.94,3.39,1.34,1.38,2.41,3.08,3.21,5.08.58,1.45.85,2.83.82,4.14Zm-19.22-32.96c.06-.26.26-.47.58-.64l1.74-.89,2.59,3.8,8.18-2.91c.27-.07.53-.07.77.02.24.09.43.28.58.55l1.13,2.2-8.55,4.37,3.67,7.17-3.16,1.61-3.67-7.18-14.89,7.61c-1.04.53-1.69,1.18-1.94,1.95s-.17,1.55.24,2.35c.23.46.5.82.79,1.09.29.27.58.49.85.66.27.17.51.31.72.42.21.11.35.23.42.36.12.23.08.5-.1.82l-1.43,2.34c-1.09-.39-2.1-1.02-3.04-1.87-.94-.86-1.7-1.85-2.28-2.98-1-1.96-1.22-3.74-.67-5.36s1.86-2.94,3.92-4l15.18-7.76-1.53-2.99c-.13-.26-.17-.52-.1-.78Zm-2.69-11.75c.2,1.3.12,2.54-.23,3.72-.35,1.18-.97,2.29-1.85,3.34-.89,1.04-2,1.97-3.32,2.79l-15.18,9.34-1.14-1.85c-.25-.41-.38-.76-.38-1.06,0-.3.15-.63.47-1l1.96-1.85c-.96-.27-1.85-.56-2.66-.88-.81-.32-1.57-.71-2.28-1.18-.71-.47-1.37-1.02-1.99-1.66-.62-.64-1.21-1.41-1.77-2.32-.57-.92-.97-1.87-1.21-2.84-.24-.97-.29-1.92-.15-2.83.15-.92.5-1.79,1.08-2.63.57-.84,1.4-1.59,2.47-2.25.94-.58,2-.87,3.18-.89,1.18-.02,2.47.34,3.85,1.09,1.38.74,2.86,1.91,4.43,3.5,1.57,1.59,3.22,3.72,4.95,6.38l1.85-1.14c1.84-1.13,2.99-2.39,3.45-3.77.45-1.38.21-2.83-.73-4.36-.63-1.03-1.29-1.81-1.98-2.35-.69-.54-1.34-.96-1.98-1.27-.63-.31-1.19-.57-1.67-.78-.48-.21-.83-.49-1.06-.85-.17-.28-.25-.57-.22-.86.02-.29.1-.58.23-.85l.87-1.57c2.07.53,3.89,1.36,5.44,2.5,1.56,1.13,2.9,2.62,4.04,4.46.82,1.33,1.32,2.64,1.52,3.94Zm-45.37-22.63c.39-1.45,1.14-2.91,2.26-4.39,1.11-1.47,2.59-2.91,4.42-4.31,1.63-1.24,3.32-2.19,5.06-2.82,1.74-.63,3.44-.94,5.1-.91,1.66.03,3.23.41,4.73,1.15,1.5.74,2.81,1.85,3.95,3.34,1.03,1.36,1.69,2.69,1.97,4.01s.3,2.67.06,4.05l12.27-9.36,2.97,3.89-32.21,24.57-1.77-2.32c-.42-.55-.42-1.11,0-1.67l2.42-2.4c-1.86-.08-3.6-.46-5.22-1.13-1.62-.68-3.04-1.81-4.25-3.4-.97-1.27-1.6-2.61-1.9-4.01-.3-1.41-.26-2.84.14-4.29Zm43.28,181.55c0,145.91-118.29,264.2-264.2,264.2s-264.2-118.29-264.2-264.2,118.29-264.2,264.2-264.2,264.2,118.29,264.2,264.2Zm-183.77-271.85c1.12-.62,2.49-.96,4.09-1.02-.66-.61-1.13-1.29-1.39-2.03-.26-.74-.22-1.6.11-2.59.13-.38.33-.75.61-1.11.28-.36.63-.7,1.05-1.01.42-.31.91-.58,1.45-.8.54-.22,1.14-.38,1.79-.47-1.05-1.17-1.74-2.48-2.06-3.94s-.21-2.98.34-4.58c.44-1.29,1.08-2.37,1.93-3.25.85-.88,1.85-1.54,2.98-1.98,1.14-.44,2.38-.65,3.74-.63,1.36.02,2.77.27,4.22.77,1.15.39,2.17.88,3.08,1.47.9.59,1.68,1.26,2.33,2.03l7.16,2.44-.58,1.72c-.19.57-.68.81-1.47.72l-3.13-.63c.2,1.34.06,2.71-.41,4.1-.44,1.29-1.08,2.37-1.93,3.25-.85.88-1.84,1.55-2.96,2-1.12.45-2.36.67-3.71.66-1.35-.01-2.74-.26-4.16-.75-1.23-.42-2.34-.96-3.34-1.63-.67.16-1.22.38-1.65.67-.43.29-.71.63-.85,1.03-.21.63-.12,1.18.29,1.68.4.5,1,.95,1.78,1.38.79.42,1.71.83,2.76,1.23s2.13.83,3.22,1.29c1.09.46,2.14.97,3.14,1.52,1,.55,1.85,1.19,2.53,1.91.69.72,1.15,1.54,1.41,2.48.25.94.17,2.02-.24,3.23-.38,1.13-1.04,2.12-1.96,2.99-.92.87-2.06,1.53-3.39,2-1.34.46-2.86.68-4.57.65s-3.52-.37-5.45-1.03c-1.93-.65-3.55-1.42-4.86-2.29-1.31-.87-2.33-1.79-3.07-2.76s-1.2-1.95-1.39-2.96-.13-1.97.18-2.89c.44-1.3,1.23-2.27,2.35-2.89Zm-22.05-33.15l2.87.66c.68.16,1.02.58,1.03,1.28l-.31,3.03c.74-.53,1.51-.98,2.29-1.36.78-.38,1.59-.68,2.42-.89s1.68-.33,2.56-.34c.88-.01,1.8.09,2.76.31,1.48.34,2.73.89,3.76,1.64,1.02.75,1.81,1.67,2.36,2.75.55,1.08.88,2.3.98,3.66s-.03,2.81-.38,4.34l-3.99,17.28-4.8-1.11,3.99-17.28c.47-2.05.37-3.76-.3-5.11-.68-1.35-1.97-2.25-3.88-2.69-1.41-.33-2.81-.29-4.19.11-1.38.4-2.72,1.06-4.03,1.98l-4.61,19.99-4.8-1.11,6.26-27.14Zm-13.86-10.98c.07-.47.23-.91.48-1.3.25-.4.55-.73.9-1,.36-.27.75-.46,1.19-.58.43-.12.89-.14,1.36-.07.47.07.91.23,1.3.48.4.25.73.55,1,.92.27.37.47.78.59,1.23.12.45.15.92.08,1.39-.07.47-.23.9-.49,1.27-.25.38-.56.7-.93.97-.36.27-.77.46-1.23.58-.45.12-.92.14-1.39.07-.47-.07-.9-.23-1.28-.47-.38-.24-.7-.55-.96-.91-.26-.37-.45-.77-.57-1.2-.12-.44-.14-.89-.07-1.36Zm-.29,8.8l4.84.74-4.21,27.54-4.84-.74,4.21-27.54Zm-34.88,10.7c.16-2.05.58-3.93,1.26-5.66.68-1.72,1.59-3.19,2.71-4.41,1.12-1.22,2.46-2.14,4-2.77,1.55-.63,3.25-.87,5.12-.73,1.7.13,3.13.53,4.31,1.2s2.19,1.55,3.07,2.65l1.18-15.38,4.88.37-3.09,40.39-2.91-.22c-.69-.05-1.11-.42-1.24-1.11l-.18-3.41c-1.3,1.33-2.74,2.38-4.32,3.14-1.58.76-3.37,1.07-5.37.91-1.59-.12-3.01-.54-4.26-1.25-1.25-.71-2.29-1.7-3.11-2.95-.82-1.26-1.41-2.79-1.77-4.6-.36-1.81-.45-3.87-.27-6.17Zm-11.62-26.54h4.89s-.04,40.51-.04,40.51h-4.89s.04-40.51.04-40.51Zm-12.7,40.89l-1.23-27.83,4.89-.22,1.23,27.83-4.89.21Zm-2.44-37.89c.16-.44.39-.83.69-1.16.3-.33.65-.6,1.05-.8.41-.2.84-.31,1.32-.33.48-.02.93.05,1.37.22.44.16.82.4,1.16.71.33.31.61.67.82,1.09s.33.87.35,1.35-.06.92-.23,1.35c-.17.42-.41.8-.72,1.13-.31.33-.67.6-1.09.81-.42.2-.87.31-1.35.33-.48.02-.92-.05-1.35-.21-.42-.16-.79-.4-1.12-.71-.33-.31-.59-.66-.79-1.07-.2-.4-.31-.84-.33-1.32-.02-.48.05-.93.21-1.37Zm-26.37,12.68l2.12,17.64c.25,2.09.92,3.66,2.02,4.69s2.62,1.43,4.59,1.19c1.44-.17,2.74-.68,3.9-1.51,1.16-.83,2.2-1.91,3.11-3.24l-2.45-20.37,4.86-.59,3.33,27.66-2.89.35c-.69.08-1.17-.2-1.43-.85l-.74-2.93c-1.04,1.47-2.26,2.7-3.66,3.69-1.39.99-3.06,1.6-4.99,1.83-1.51.18-2.88.09-4.09-.27-1.22-.36-2.27-.95-3.16-1.77-.89-.82-1.61-1.85-2.16-3.09-.55-1.24-.92-2.65-1.1-4.22l-2.12-17.64,4.86-.58Zm-34.68-6.04l3.73,16.24c.84-1.58,1.89-2.93,3.15-4.05,1.26-1.12,2.82-1.89,4.7-2.32,1.59-.36,3.09-.39,4.51-.08,1.42.31,2.71.94,3.86,1.89,1.16.95,2.16,2.19,3.01,3.72.85,1.54,1.51,3.33,1.98,5.39.5,2.2.7,4.26.58,6.19-.12,1.93-.54,3.65-1.26,5.16-.72,1.51-1.72,2.78-3,3.82-1.29,1.04-2.83,1.76-4.64,2.18-1.79.41-3.37.42-4.75.03-1.38-.39-2.67-1.09-3.86-2.12l.33,2.52c.01.71-.32,1.15-1,1.3l-3.08.71-9.07-39.48,4.8-1.1Zm-42.42,27.44c.39-.15.74-.17,1.05-.07.31.11.55.26.73.47l13.29,13.66c.55.61,1.07,1.27,1.57,1.99-.07-.9-.11-1.76-.12-2.58l.41-18.95c0-.31.08-.61.26-.88s.42-.47.73-.59l3.62-1.4-1.44,39.26c-.02.4-.11.75-.26,1.04-.15.29-.47.54-.94.72l-3.38,1.31.74-12.15-20.21-20.3,3.95-1.53Zm-20.9.8c-.07-.27-.06-.53.04-.77.1-.24.29-.43.57-.57l2.23-1.08,4.18,8.64,7.25-3.51,1.55,3.19-7.25,3.51,7.29,15.05c.51,1.06,1.15,1.72,1.91,1.98s1.54.2,2.35-.19c.46-.22.83-.48,1.11-.77.28-.29.5-.57.68-.83.18-.27.32-.51.43-.71.11-.21.24-.34.37-.41.23-.11.5-.07.82.12l2.31,1.48c-.42,1.08-1.06,2.08-1.94,3-.88.92-1.88,1.66-3.02,2.21-1.98.96-3.77,1.14-5.37.55-1.6-.59-2.9-1.92-3.91-4l-7.43-15.34-3.02,1.46c-.26.13-.52.16-.78.09-.26-.07-.47-.27-.63-.6l-.85-1.76,3.86-2.51-2.74-8.24Zm6.39,37.22l-4.28,2.38-13.53-24.35,4.28-2.38,13.53,24.35Zm-23.29-31.78c.12-.43.31-.83.58-1.19.27-.36.62-.66,1.03-.89s.86-.37,1.32-.42c.47-.05.92-.01,1.35.11.44.12.84.33,1.22.61.38.28.68.63.91,1.05.23.42.36.85.39,1.31.03.46-.01.9-.14,1.34-.12.44-.33.84-.62,1.21-.29.37-.64.67-1.06.9-.42.23-.85.37-1.3.41-.45.04-.89,0-1.32-.13-.43-.13-.82-.33-1.18-.6-.36-.27-.66-.62-.89-1.03s-.37-.86-.42-1.33c-.05-.46-.01-.91.1-1.34Zm-19.46,25.4c.58-.38,1.13-.34,1.64.14l1.98,2.31c.13-.9.33-1.76.59-2.6.26-.83.61-1.62,1.02-2.37s.93-1.44,1.52-2.09c.6-.64,1.31-1.24,2.13-1.78,1.27-.84,2.53-1.37,3.78-1.59,1.25-.22,2.45-.16,3.61.19,1.16.34,2.27.95,3.32,1.81,1.05.87,2.01,1.96,2.88,3.27l9.76,14.81-4.11,2.71-9.76-14.81c-1.16-1.76-2.46-2.86-3.9-3.31-1.44-.44-2.99-.12-4.62.95-1.21.8-2.15,1.83-2.81,3.1-.67,1.27-1.12,2.7-1.35,4.28l11.28,17.13-4.11,2.71-15.32-23.26,2.46-1.62Zm-24.41,19l11.28,13.72c1.34,1.63,2.75,2.58,4.22,2.86,1.48.28,2.98-.21,4.51-1.47,1.12-.92,1.94-2.04,2.48-3.37.53-1.33.83-2.8.88-4.41l-13.03-15.85,3.78-3.11,17.69,21.52-2.25,1.85c-.54.44-1.09.46-1.67.05l-2.2-2.07c-.08,1.8-.45,3.5-1.09,5.08-.64,1.58-1.72,2.99-3.22,4.23-1.17.96-2.37,1.62-3.59,1.97-1.22.35-2.42.42-3.62.21-1.19-.21-2.35-.69-3.48-1.44-1.13-.75-2.2-1.74-3.2-2.96l-11.28-13.72,3.78-3.11Zm-34.93,34.81c.48-.51,1.02-.59,1.63-.25l2.33,1.69c-.22-1.61-.19-3.16.1-4.65.29-1.49,1.01-2.85,2.16-4.08,1.28-1.37,2.69-2.12,4.25-2.25,1.56-.14,3.16.21,4.81,1.05-.46-.98-.74-1.96-.85-2.92-.1-.96-.06-1.89.13-2.8.19-.9.51-1.75.95-2.55.45-.8.98-1.53,1.61-2.2,1-1.07,2.06-1.87,3.19-2.38,1.12-.52,2.29-.76,3.49-.73,1.2.03,2.42.34,3.67.93,1.25.59,2.49,1.46,3.72,2.61l12.96,12.11-3.36,3.59-12.96-12.11c-1.59-1.49-3.13-2.27-4.6-2.35-1.47-.07-2.83.55-4.05,1.86-.55.59-.97,1.25-1.26,1.97-.29.72-.42,1.47-.39,2.25.03.78.23,1.57.62,2.37.39.8.99,1.58,1.79,2.33l12.96,12.11-3.36,3.6-12.96-12.11c-1.63-1.53-3.16-2.34-4.58-2.43-1.42-.09-2.71.49-3.89,1.75-.83.88-1.35,1.92-1.58,3.12-.23,1.2-.22,2.49,0,3.88l15.17,14.18-3.36,3.6-20.35-19.02,2.01-2.15Zm-28.07,39.08c.39-.58.91-.74,1.57-.5l2.57,1.31c-.47-1.56-.68-3.1-.62-4.61.05-1.51.55-2.97,1.5-4.37,1.05-1.55,2.33-2.51,3.85-2.88,1.52-.38,3.16-.28,4.92.3-.61-.9-1.04-1.82-1.29-2.75-.25-.94-.35-1.86-.3-2.78.05-.92.23-1.81.55-2.67.32-.86.73-1.67,1.25-2.43.82-1.21,1.75-2.16,2.78-2.85s2.14-1.11,3.33-1.26c1.19-.16,2.45-.04,3.77.35,1.32.39,2.68,1.05,4.08,2l14.68,9.96-2.76,4.07-14.68-9.96c-1.8-1.23-3.44-1.76-4.91-1.61-1.47.16-2.71.98-3.72,2.46-.45.67-.76,1.38-.94,2.14-.17.76-.18,1.52-.04,2.28.15.76.47,1.51.98,2.25.51.73,1.22,1.41,2.13,2.03l14.67,9.96-2.77,4.07-14.67-9.96c-1.85-1.26-3.48-1.82-4.9-1.7-1.42.13-2.61.9-3.57,2.33-.68,1-1.04,2.11-1.08,3.32-.04,1.22.16,2.49.6,3.83l17.18,11.66-2.76,4.07-23.05-15.65,1.65-2.44Zm-13.65,27.11c.13-1.77.66-3.57,1.58-5.41.91-1.82,2.04-3.3,3.38-4.46,1.34-1.15,2.83-1.96,4.46-2.44,1.63-.47,3.38-.58,5.23-.34,1.86.25,3.76.86,5.71,1.84,1.97.99,3.6,2.15,4.89,3.49,1.3,1.34,2.24,2.81,2.84,4.4s.82,3.27.69,5.03c-.14,1.76-.66,3.54-1.57,5.36-.92,1.84-2.05,3.34-3.39,4.5-1.33,1.17-2.82,1.98-4.45,2.46s-3.37.59-5.22.34c-1.85-.24-3.75-.86-5.72-1.85-1.95-.98-3.58-2.14-4.88-3.49-1.3-1.34-2.25-2.81-2.85-4.4s-.83-3.27-.7-5.04Zm-9.8,19.95c.71-1.83,1.63-3.33,2.76-4.49,1.13-1.16,2.44-2.08,3.94-2.73l1.17,1.84c.14.21.23.4.28.58.05.18.03.38-.06.62-.1.26-.32.5-.65.72-.33.23-.72.52-1.15.87-.43.35-.88.82-1.35,1.39s-.89,1.34-1.26,2.3c-.5,1.28-.71,2.5-.63,3.65.08,1.15.41,2.22,1.01,3.21.6.99,1.44,1.89,2.53,2.69,1.08.8,2.38,1.5,3.88,2.08,1.57.61,3.04.97,4.4,1.09,1.36.11,2.58,0,3.67-.33,1.08-.34,2.02-.89,2.82-1.65.8-.76,1.42-1.72,1.87-2.89.43-1.11.65-2.08.67-2.9.01-.82-.05-1.53-.19-2.12-.14-.59-.29-1.1-.43-1.52s-.15-.78-.04-1.09c.15-.38.4-.61.77-.7l2.16-.63c.48.83.83,1.71,1.05,2.62.22.91.33,1.84.34,2.8s-.08,1.92-.28,2.89c-.2.97-.48,1.92-.84,2.86-.63,1.62-1.51,3.02-2.65,4.18-1.14,1.16-2.48,2.03-4.01,2.62s-3.24.85-5.13.79c-1.88-.06-3.88-.5-6-1.33-1.93-.75-3.61-1.71-5.04-2.88s-2.54-2.51-3.33-4c-.79-1.5-1.22-3.13-1.3-4.9-.08-1.77.26-3.64,1.02-5.61Zm-12.59,46.4c.31-1.38.87-2.61,1.67-3.7.8-1.09,1.75-1.98,2.86-2.68,1.11-.7,2.33-1.17,3.67-1.43,1.33-.25,2.69-.22,4.07.09,1.38.31,2.61.87,3.7,1.67,1.09.8,1.98,1.75,2.67,2.86s1.16,2.32,1.42,3.65c.25,1.33.22,2.68-.09,4.05-.31,1.36-.86,2.58-1.66,3.67-.8,1.09-1.75,1.98-2.85,2.67s-2.31,1.16-3.63,1.42-2.68.22-4.05-.09c-1.38-.31-2.61-.87-3.71-1.67-1.1-.8-1.99-1.75-2.69-2.85-.7-1.1-1.18-2.31-1.43-3.64s-.23-2.67.08-4.03Zm-10.41,118.17c-.12.43-.31.83-.58,1.19-.27.36-.59.66-.97.91-.38.25-.8.4-1.28.48-.47.07-.93.05-1.39-.06-.45-.11-.86-.3-1.23-.56-.36-.26-.67-.58-.91-.96-.25-.38-.4-.8-.48-1.28-.07-.47-.05-.93.06-1.39.11-.45.31-.86.57-1.23.27-.37.6-.68.99-.93.4-.26.83-.42,1.3-.5.47-.07.93-.05,1.36.08.44.13.84.32,1.21.59.37.27.67.6.92,1,.25.4.41.83.48,1.3s.05.92-.06,1.36Zm1.14-56.21c.03-1.21.19-2.33.47-3.37.29-1.04.7-1.98,1.23-2.83l.17-7.56,1.81.04c.61.01.98.41,1.13,1.18l.34,3.17c1.22-.6,2.57-.88,4.04-.85,1.36.03,2.58.32,3.68.87,1.1.55,2.03,1.29,2.8,2.22s1.35,2.05,1.74,3.34c.39,1.29.57,2.69.54,4.19-.03,1.3-.21,2.53-.55,3.67.35.59.73,1.05,1.14,1.37.41.32.82.49,1.24.5.66.01,1.17-.25,1.52-.78.35-.53.61-1.24.78-2.11.17-.88.28-1.88.34-3,.06-1.12.15-2.28.25-3.46.11-1.18.28-2.33.5-3.45.23-1.12.58-2.12,1.06-2.99.48-.87,1.13-1.57,1.94-2.09.82-.52,1.87-.77,3.15-.74,1.19.03,2.34.35,3.44.97,1.1.62,2.08,1.5,2.93,2.64.85,1.14,1.51,2.52,2,4.16.49,1.63.71,3.47.66,5.5-.05,2.03-.29,3.81-.72,5.32-.44,1.51-1.01,2.77-1.71,3.76-.7.99-1.5,1.73-2.4,2.21-.9.48-1.84.72-2.81.69-1.37-.03-2.53-.49-3.46-1.37-.93-.88-1.67-2.08-2.2-3.6-.38.82-.89,1.46-1.51,1.93-.62.47-1.46.7-2.5.67-.4,0-.82-.09-1.25-.25-.43-.16-.85-.39-1.28-.7-.42-.31-.82-.69-1.2-1.14-.37-.45-.7-.97-.98-1.56-.8,1.36-1.85,2.41-3.14,3.15s-2.78,1.09-4.47,1.05c-1.36-.03-2.58-.32-3.68-.87-1.1-.55-2.03-1.3-2.78-2.25-.76-.95-1.33-2.08-1.73-3.38-.39-1.3-.57-2.72-.54-4.26Zm32.03,52.08l-27.52,4.32-.76-4.84,27.52-4.32.76,4.84Zm-29.96-12.77c-.05-.69.25-1.15.91-1.37l2.98-.62c-.72-.55-1.39-1.14-1.99-1.77-.6-.63-1.13-1.31-1.58-2.04-.45-.73-.82-1.51-1.1-2.34-.28-.83-.46-1.74-.54-2.73-.12-1.52.02-2.88.43-4.08.41-1.2,1.04-2.23,1.91-3.08.86-.85,1.92-1.53,3.19-2.03,1.26-.51,2.68-.82,4.25-.95l17.68-1.42.39,4.91-17.68,1.42c-2.1.17-3.69.78-4.78,1.83-1.08,1.05-1.55,2.56-1.39,4.51.12,1.44.57,2.76,1.37,3.96.79,1.2,1.83,2.28,3.1,3.24l20.45-1.64.39,4.91-27.77,2.22-.23-2.93Zm7.87,63.06c-.05.45-.18.87-.39,1.26-.21.39-.49.74-.83,1.04-.34.3-.73.52-1.19.66-.46.14-.92.19-1.38.15-.46-.04-.9-.17-1.3-.37-.4-.2-.75-.47-1.05-.81-.3-.34-.52-.73-.66-1.19-.14-.45-.19-.92-.15-1.38.04-.47.17-.9.38-1.3.21-.4.49-.76.84-1.07.35-.31.76-.54,1.21-.69.46-.14.91-.19,1.36-.13s.88.19,1.28.4c.4.21.76.49,1.06.85s.53.76.67,1.21.19.91.14,1.35Zm.64-17.19c-.16-.68.07-1.17.69-1.49l2.86-1.07c-.8-.43-1.54-.92-2.24-1.45s-1.32-1.13-1.87-1.78c-.56-.65-1.04-1.37-1.44-2.15-.4-.78-.71-1.66-.94-2.62-.35-1.48-.41-2.85-.19-4.09.23-1.25.7-2.36,1.42-3.33.72-.97,1.67-1.8,2.84-2.49,1.17-.69,2.53-1.22,4.06-1.58l17.27-4.06,1.13,4.79-17.27,4.06c-2.05.48-3.53,1.33-4.45,2.53-.91,1.2-1.14,2.76-.7,4.67.33,1.41.98,2.65,1.95,3.71.97,1.06,2.15,1.98,3.55,2.74l19.97-4.7,1.13,4.79-27.12,6.38-.67-2.87Zm3.5,11.86l26.56-8.4,1.48,4.67-26.56,8.4-1.47-4.67Zm7.34,22.48c-.57-1.45-.84-2.83-.8-4.15.03-1.31.33-2.52.88-3.63.55-1.1,1.35-2.09,2.41-2.96,1.06-.87,2.31-1.59,3.76-2.16l16.58-6.53.8,2.02c.17.44.24.81.18,1.11-.05.3-.26.6-.64.9l-2.25,1.48c.9.43,1.72.88,2.46,1.34.74.46,1.42.98,2.04,1.56.62.58,1.17,1.25,1.67,1.99.5.74.94,1.6,1.33,2.59.4,1.01.63,2.01.7,3.01.07,1-.05,1.94-.36,2.81-.3.88-.81,1.68-1.52,2.4-.71.72-1.65,1.32-2.83,1.78-1.02.4-2.12.51-3.29.32s-2.37-.77-3.6-1.75c-1.23-.97-2.48-2.38-3.75-4.23-1.27-1.85-2.52-4.23-3.75-7.15l-2.02.79c-2.01.79-3.36,1.83-4.05,3.1-.69,1.28-.71,2.75-.05,4.42.44,1.12.96,2.01,1.54,2.66.58.65,1.15,1.18,1.72,1.6.57.42,1.07.77,1.51,1.06.44.29.74.63.89,1.02.12.31.14.6.07.89-.07.29-.2.55-.38.8l-1.14,1.39c-1.95-.89-3.58-2.03-4.92-3.41-1.33-1.39-2.4-3.08-3.19-5.1Zm11.77,24.61c.09-.27.35-.55.76-.83l3.66-2.15c-2.1.04-3.91-.28-5.44-.96-1.53-.68-2.69-1.86-3.5-3.52-.26-.53-.45-1.06-.57-1.61-.12-.54-.15-1.06-.09-1.56l3.44-1.28c.46-.1.79.04.98.44.11.23.23.59.35,1.09.12.49.31,1.02.58,1.58.39.79.84,1.44,1.38,1.95.53.5,1.14.89,1.83,1.16.69.27,1.46.43,2.32.49.86.06,1.79.04,2.8-.06l15.82-7.71,2.16,4.42-25.04,12.2-1.23-2.52c-.23-.48-.3-.85-.21-1.12Zm29.1,9.96l-14.79,8.49,1.67,2.91c.15.25.19.51.14.78-.05.26-.24.48-.55.67l-1.69.97-2.77-3.67-8.03,3.31c-.27.09-.52.09-.77.01-.25-.08-.45-.26-.6-.53l-1.23-2.15,8.33-4.78-4.01-6.99,3.08-1.77,4.01,6.99,14.5-8.32c1.02-.58,1.63-1.26,1.84-2.04.21-.77.09-1.55-.36-2.33-.26-.45-.54-.8-.84-1.05-.3-.26-.6-.46-.88-.62-.28-.16-.53-.28-.74-.38-.21-.1-.36-.21-.43-.34-.13-.22-.11-.5.06-.83l1.32-2.4c1.1.34,2.15.91,3.13,1.72.98.81,1.79,1.76,2.42,2.86,1.09,1.91,1.4,3.68.93,5.32-.48,1.64-1.72,3.03-3.72,4.18Zm22.3,36.32c-.16,1.29-.57,2.52-1.22,3.71-.65,1.18-1.53,2.21-2.65,3.07-1.12.86-2.33,1.46-3.65,1.8-1.32.33-2.62.42-3.91.26-1.29-.16-2.53-.56-3.72-1.21-1.18-.65-2.2-1.52-3.05-2.62-.86-1.12-1.46-2.33-1.79-3.64-.33-1.31-.41-2.61-.25-3.91.17-1.3.58-2.54,1.23-3.73.65-1.19,1.54-2.22,2.66-3.08,1.12-.86,2.33-1.46,3.64-1.79,1.31-.33,2.61-.41,3.9-.24,1.29.17,2.53.58,3.71,1.23,1.19.65,2.21,1.53,3.07,2.65.85,1.1,1.44,2.31,1.77,3.62.33,1.31.41,2.61.25,3.89Zm19.51,47.41c-.51-.48-.59-1.02-.24-1.63l1.94-2.7c-1.85.25-3.63.17-5.36-.25-1.72-.42-3.31-1.3-4.75-2.66-1.17-1.11-2.02-2.33-2.55-3.67-.53-1.34-.71-2.76-.55-4.26s.66-3.07,1.52-4.7c.86-1.63,2.08-3.29,3.67-4.97,1.41-1.49,2.92-2.7,4.53-3.61,1.61-.91,3.24-1.48,4.88-1.71,1.64-.23,3.26-.1,4.85.38,1.6.48,3.08,1.37,4.44,2.65,1.24,1.17,2.11,2.38,2.6,3.64.49,1.26.73,2.58.7,3.97l8.45-8.97,3.58,3.38-25.57,27.14-2.14-2.02Zm9.22,17.29c-.12.44-.33.84-.62,1.21-.3.37-.66.67-1.07.88-.41.22-.84.36-1.29.41-.44.05-.88.02-1.32-.1-.44-.12-.84-.33-1.21-.62-.37-.3-.67-.66-.89-1.07s-.35-.85-.4-1.3c-.05-.45-.01-.91.11-1.36.12-.46.33-.87.63-1.24.3-.37.65-.66,1.06-.86.41-.2.84-.32,1.29-.37.45-.05.9,0,1.35.12.45.13.86.34,1.23.64.37.3.66.65.87,1.05.2.4.33.83.37,1.27s0,.89-.11,1.32Zm.25-9.33l17.52-21.66,3.81,3.08-17.51,21.66-3.81-3.08Zm18.77,29.64l9.3-13.46c-1.7.36-3.36.44-4.98.24-1.62-.21-3.21-.84-4.76-1.92-1.25-.87-2.21-1.83-2.88-2.91s-1.06-2.22-1.18-3.42c-.11-1.21.03-2.46.44-3.76.41-1.3,1.06-2.6,1.96-3.9l10.08-14.59,4.05,2.8-10.08,14.59c-1.2,1.73-1.73,3.35-1.6,4.86.13,1.5,1,2.81,2.62,3.93,1.19.82,2.5,1.31,3.93,1.45,1.43.14,2.92.02,4.47-.35l11.66-16.88,4.05,2.8-23.03,33.33-4.05-2.8Zm33.21,2.76c-1.1.23-2.29.24-3.58.03-1.29-.22-2.62-.71-3.99-1.49-1.6-.9-2.89-1.95-3.88-3.17-.99-1.22-1.7-2.53-2.13-3.93l1.83-1.02c.39-.25.78-.25,1.18-.03.24.13.46.37.67.72s.47.75.78,1.21c.32.46.73.96,1.23,1.48.5.52,1.17,1.02,2,1.49.72.4,1.42.68,2.1.82.68.14,1.31.16,1.9.07.59-.09,1.11-.29,1.56-.59.45-.3.82-.7,1.1-1.2.35-.62.46-1.24.34-1.86-.13-.62-.4-1.25-.82-1.88-.42-.64-.94-1.28-1.56-1.93-.62-.65-1.25-1.33-1.9-2.04-.64-.71-1.25-1.43-1.82-2.17-.57-.74-1.02-1.52-1.34-2.33s-.47-1.67-.44-2.56c.03-.9.32-1.83.87-2.81.63-1.12,1.41-2.04,2.34-2.77.93-.73,1.99-1.22,3.16-1.47,1.17-.26,2.44-.26,3.8-.03,1.36.24,2.78.77,4.27,1.61,1.7.95,3.08,2.09,4.14,3.41,1.07,1.32,1.83,2.69,2.31,4.09l-1.92,1.07c-.24.13-.49.21-.72.22s-.49-.06-.77-.21c-.29-.16-.53-.44-.72-.85-.19-.4-.44-.87-.75-1.4-.3-.53-.72-1.09-1.25-1.68s-1.28-1.16-2.26-1.71c-.83-.47-1.62-.77-2.36-.9-.75-.13-1.43-.13-2.05,0-.62.13-1.17.39-1.64.75-.47.37-.86.82-1.16,1.37-.38.67-.51,1.33-.4,1.97.11.64.38,1.29.79,1.93s.94,1.3,1.57,1.95c.63.66,1.27,1.34,1.91,2.04.65.7,1.26,1.43,1.84,2.18s1.02,1.54,1.33,2.37c.31.83.44,1.71.4,2.64s-.36,1.91-.95,2.95c-.52.93-1.21,1.71-2.08,2.35-.86.64-1.85,1.08-2.94,1.31Zm29.58,12.09c-1.47.77-3.03,1.19-4.7,1.26-1.67.07-3.35-.27-5.06-1.03-1.56-.69-2.78-1.55-3.66-2.58-.88-1.02-1.54-2.2-2-3.52l-6.27,14.09-4.47-1.99,16.46-37.01,2.66,1.18c.64.28.9.77.79,1.47l-.97,3.27c1.67-.82,3.38-1.33,5.13-1.51,1.75-.19,3.54.13,5.36.94,1.46.65,2.66,1.52,3.6,2.61.94,1.09,1.59,2.37,1.94,3.83.35,1.46.39,3.1.12,4.93-.27,1.83-.88,3.79-1.81,5.9-.83,1.88-1.86,3.51-3.08,4.9-1.22,1.39-2.57,2.48-4.03,3.25Zm19.35,10.91l-2.65-.92c-.5-.18-.82-.39-.94-.65-.12-.26-.14-.63-.04-1.12l1.08-4.11c-1.46,1.51-2.97,2.56-4.54,3.15-1.56.59-3.22.58-4.97-.03-.55-.19-1.06-.44-1.53-.74-.47-.3-.86-.65-1.16-1.05l1.54-3.34c.26-.4.59-.52,1.01-.38.24.08.58.26,1.01.53.43.27.94.5,1.53.71.83.29,1.61.43,2.35.41.73-.02,1.44-.17,2.12-.47.68-.3,1.34-.73,1.99-1.29.65-.56,1.3-1.23,1.94-2.02l5.8-16.62,4.65,1.62-9.18,26.3Zm29.81-7.21c-1.51.42-3.39.6-5.62.54-2.24-.06-4.9-.46-7.99-1.19l-.55,2.1c-.55,2.09-.51,3.8.12,5.11.62,1.31,1.81,2.19,3.55,2.64,1.17.3,2.19.41,3.05.33.87-.09,1.63-.24,2.31-.45.67-.21,1.25-.41,1.75-.6.49-.18.94-.22,1.35-.12.32.08.57.24.76.47.19.23.33.49.42.78l.46,1.74c-1.87,1.05-3.75,1.7-5.66,1.96-1.9.26-3.91.12-6-.43-1.51-.39-2.78-.99-3.82-1.79-1.04-.8-1.85-1.75-2.41-2.85-.57-1.1-.89-2.33-.97-3.69-.08-1.37.08-2.8.47-4.31l4.5-17.24,2.1.55c.46.12.8.29,1,.5.21.21.33.56.35,1.04l-.13,2.69c.88-.47,1.72-.87,2.53-1.2.81-.33,1.63-.57,2.46-.72s1.7-.21,2.59-.18c.89.03,1.85.19,2.88.45,1.05.27,1.99.68,2.84,1.21.85.53,1.54,1.18,2.06,1.95.53.76.88,1.64,1.04,2.64.17,1,.09,2.11-.23,3.34-.28,1.06-.84,2.01-1.68,2.85-.84.83-2.02,1.46-3.53,1.88Zm41.56,21.99c-.38-.05-.69-.2-.93-.43-.23-.24-.38-.5-.43-.78l-2.86-18.49c-.13-1.35-.21-2.62-.23-3.81-.25.58-.5,1.16-.75,1.76-.26.59-.53,1.19-.82,1.8l-8.27,17.08c-.13.26-.32.47-.57.62-.25.15-.54.2-.87.16l-2.12-.29c-.36-.05-.65-.18-.86-.4-.21-.21-.34-.46-.4-.75l-3.26-18.65c-.11-.66-.21-1.32-.29-1.96-.08-.64-.15-1.27-.21-1.89-.17.59-.37,1.17-.59,1.77-.22.59-.46,1.2-.71,1.83l-7.82,17.03c-.13.28-.33.5-.62.65-.28.16-.59.21-.94.16l-3.65-.5,12.7-26.38,3.84.52c.47.06.76.42.86,1.06l3.55,19.55c.09.44.15.88.18,1.32.03.44.07.87.1,1.3.15-.4.3-.81.44-1.23.15-.42.33-.83.53-1.25l8.76-17.85c.25-.6.65-.85,1.22-.78l3.65.5,5.18,28.82-3.82-.52Zm32.74-7.24c-.62,1.68-1.49,3.13-2.62,4.35s-2.51,2.18-4.13,2.86c-1.62.69-3.44,1.02-5.46.99-1.67-.02-3.21-.32-4.62-.9-1.41-.58-2.63-1.4-3.66-2.46-1.02-1.07-1.82-2.38-2.39-3.93-.57-1.56-.84-3.32-.81-5.3,0-.77.1-1.28.27-1.54.17-.26.48-.38.94-.37l18.62.23c-.03-1.76-.26-3.3-.67-4.6-.42-1.31-1-2.4-1.76-3.28-.76-.88-1.67-1.54-2.73-1.99-1.06-.44-2.25-.67-3.57-.69-1.23-.02-2.29.11-3.18.39-.89.27-1.66.57-2.31.89-.65.32-1.19.62-1.62.9s-.81.42-1.12.41c-.4,0-.71-.17-.93-.48l-1.35-1.8c.61-.73,1.35-1.35,2.2-1.88.85-.53,1.76-.96,2.73-1.3.97-.34,1.96-.59,2.99-.75,1.03-.16,2.05-.24,3.05-.22,1.93.02,3.69.37,5.31,1.04,1.61.67,3,1.64,4.17,2.91,1.17,1.27,2.07,2.83,2.71,4.69.64,1.86.94,3.99.91,6.39-.02,1.94-.34,3.75-.96,5.43Zm18.39,6.23l-.51,8.67c-.03.28-.14.51-.32.7-.18.19-.43.29-.74.32l-2.47.18-.68-9.57-8.04.57-.25-3.54,8.04-.57-1.19-16.68c-.08-1.17-.43-2.02-1.04-2.55-.61-.53-1.36-.76-2.25-.69-.51.04-.95.14-1.32.3-.36.16-.68.34-.94.52-.26.18-.49.35-.67.5-.18.15-.35.23-.49.24-.26.02-.5-.12-.72-.42l-1.59-2.23c.78-.85,1.75-1.54,2.91-2.07,1.16-.53,2.37-.84,3.63-.94,2.19-.16,3.93.34,5.19,1.48,1.27,1.14,1.98,2.86,2.15,5.17l1.21,17.01,3.35-.24c.29-.02.54.05.76.21.21.16.33.42.36.79l.14,1.95-4.51.9Zm26.86-7.53c-.29,1.03-.8,1.98-1.53,2.84-.73.86-1.67,1.59-2.82,2.21-1.15.62-2.51,1.04-4.07,1.27-1.81.27-3.48.22-5.01-.14-1.53-.36-2.89-.96-4.09-1.8l.83-1.93c.16-.43.46-.68.92-.75.27-.04.59.01.97.16.37.15.83.31,1.36.48s1.16.31,1.88.42c.72.11,1.55.09,2.49-.05.82-.12,1.54-.33,2.16-.64.62-.31,1.14-.67,1.55-1.11.41-.43.7-.9.87-1.42.17-.52.22-1.06.14-1.62-.1-.71-.4-1.27-.87-1.68-.48-.41-1.08-.74-1.8-.99-.72-.25-1.53-.44-2.42-.57-.89-.14-1.81-.29-2.75-.46-.94-.17-1.87-.37-2.77-.61-.91-.24-1.73-.58-2.49-1.02-.75-.44-1.39-1.03-1.91-1.76-.52-.73-.87-1.65-1.03-2.75-.19-1.27-.13-2.48.16-3.62.29-1.15.83-2.18,1.6-3.1.77-.92,1.77-1.7,2.99-2.34,1.22-.64,2.67-1.09,4.36-1.34,1.92-.28,3.71-.23,5.36.17,1.65.4,3.09,1,4.33,1.82l-.87,2.02c-.11.26-.26.46-.44.62-.18.16-.43.26-.73.3-.33.05-.69-.03-1.09-.23s-.88-.42-1.44-.65c-.56-.23-1.23-.42-2.02-.56-.78-.14-1.72-.13-2.83.03-.94.14-1.75.38-2.42.73-.67.35-1.21.77-1.62,1.25-.41.49-.69,1.02-.83,1.6-.15.58-.17,1.17-.08,1.79.11.76.41,1.36.89,1.8.48.44,1.08.79,1.81,1.04.72.25,1.54.45,2.44.59.9.13,1.82.28,2.76.44.94.16,1.87.36,2.79.6.92.25,1.75.6,2.51,1.06.75.46,1.39,1.08,1.93,1.84.53.76.88,1.74,1.05,2.92.16,1.05.09,2.1-.21,3.13Zm38.39-5.3c-1.5,1.2-3.29,2.1-5.37,2.71-1.5.43-2.9.57-4.2.42-1.3-.16-2.48-.56-3.53-1.21-1.05-.65-1.96-1.54-2.72-2.67-.77-1.13-1.37-2.45-1.8-3.94l-4.97-17.11,2.09-.61c.46-.13.83-.16,1.12-.08.29.08.57.32.84.72l1.27,2.38c.51-.86,1.03-1.63,1.56-2.33.52-.7,1.11-1.32,1.74-1.88.64-.56,1.35-1.05,2.13-1.48.78-.43,1.69-.79,2.71-1.09,1.04-.3,2.06-.44,3.06-.42,1,.03,1.92.23,2.77.61.85.38,1.6.96,2.25,1.74.65.77,1.16,1.77,1.51,2.98.31,1.06.31,2.16.01,3.3-.3,1.15-.99,2.29-2.07,3.42-1.08,1.14-2.6,2.25-4.56,3.34-1.96,1.09-4.44,2.12-7.47,3.07l.61,2.09c.6,2.08,1.51,3.52,2.72,4.32,1.21.8,2.67.96,4.4.46,1.16-.34,2.09-.77,2.79-1.29.7-.52,1.28-1.04,1.75-1.57s.87-1,1.2-1.41c.33-.41.7-.67,1.1-.79.32-.09.62-.09.89.01.28.1.53.25.76.45l1.28,1.26c-1.06,1.86-2.35,3.38-3.85,4.58Zm24.24.72c.05.28.01.53-.11.76-.12.23-.32.4-.61.51l-2.31.88-3.41-8.97-7.53,2.86-1.26-3.32,7.53-2.86-5.93-15.63c-.42-1.1-.99-1.81-1.72-2.14-.73-.33-1.52-.34-2.36-.02-.48.18-.87.4-1.17.67-.3.26-.55.52-.75.77-.2.25-.36.48-.49.67-.13.2-.27.32-.4.37-.24.09-.51.03-.81-.19l-2.17-1.68c.51-1.04,1.24-1.98,2.2-2.82.96-.84,2.02-1.49,3.21-1.94,2.06-.78,3.86-.81,5.4-.08,1.54.73,2.72,2.17,3.54,4.33l6.05,15.94,3.14-1.19c.27-.1.54-.11.79-.02.25.09.44.31.57.65l.69,1.83-4.06,2.16,2,8.45Zm21.72-19.06c-1.29,1.42-2.92,2.59-4.88,3.52-1.41.67-2.77,1.02-4.08,1.08-1.31.05-2.54-.16-3.68-.64-1.14-.48-2.17-1.21-3.11-2.21-.94-1-1.74-2.2-2.4-3.61l-7.6-16.12,1.96-.93c.43-.2.8-.29,1.09-.26.3.03.61.22.94.58l1.62,2.15c.37-.93.76-1.77,1.17-2.54.41-.77.88-1.48,1.43-2.13.54-.65,1.17-1.25,1.87-1.79.71-.55,1.54-1.05,2.5-1.5.98-.46,1.96-.76,2.95-.89.99-.13,1.94-.08,2.83.17.9.25,1.73.7,2.5,1.36.77.66,1.42,1.56,1.96,2.71.47.99.65,2.08.53,3.26s-.62,2.41-1.51,3.71c-.89,1.29-2.21,2.63-3.97,4.02s-4.06,2.79-6.89,4.21l.93,1.96c.92,1.96,2.04,3.24,3.36,3.84,1.32.6,2.79.52,4.42-.24,1.09-.52,1.95-1.09,2.56-1.71.61-.62,1.1-1.23,1.48-1.82.38-.59.7-1.12.96-1.58.26-.46.58-.78.96-.96.3-.14.59-.18.88-.13.29.06.56.16.82.33l1.47,1.04c-.76,2-1.79,3.71-3.08,5.13Zm29.06-19.86c-.21,1.64-.77,3.17-1.67,4.57-.9,1.4-2.15,2.59-3.76,3.55-1.46.88-2.87,1.38-4.21,1.51-1.34.13-2.69,0-4.03-.39l7.93,13.23-4.2,2.52-20.82-34.75,2.5-1.5c.6-.36,1.15-.29,1.65.19l2.12,2.68c.29-1.84.86-3.53,1.71-5.07.85-1.54,2.14-2.82,3.85-3.85,1.37-.82,2.77-1.3,4.2-1.44,1.43-.14,2.85.06,4.25.61,1.4.55,2.77,1.46,4.11,2.73,1.34,1.27,2.6,2.9,3.79,4.88,1.06,1.76,1.8,3.54,2.24,5.34.44,1.8.55,3.52.34,5.17Zm35.59-27.63c-.11,1.3-.46,2.55-1.07,3.76-.6,1.21-1.44,2.26-2.51,3.15-1.08.91-2.27,1.55-3.57,1.93-1.3.38-2.6.51-3.9.39-1.3-.12-2.56-.48-3.78-1.09-1.21-.61-2.28-1.46-3.18-2.54-.91-1.08-1.55-2.27-1.93-3.57-.38-1.3-.51-2.59-.38-3.89.12-1.3.48-2.55,1.09-3.76.6-1.21,1.45-2.27,2.53-3.17,1.07-.9,2.25-1.53,3.55-1.91,1.3-.38,2.59-.51,3.88-.4,1.29.12,2.54.47,3.75,1.08,1.21.6,2.27,1.45,3.17,2.53.91,1.08,1.55,2.28,1.94,3.58s.52,2.6.41,3.9Zm35.71-16.76l-1.66,1.83-7.11-6.45-5.41,5.97-2.63-2.38,5.41-5.97-12.38-11.23c-.87-.79-1.71-1.16-2.51-1.12-.8.04-1.51.39-2.11,1.06-.35.38-.59.75-.74,1.12-.15.37-.26.71-.32,1.03-.06.31-.11.59-.14.82s-.09.41-.19.52c-.17.19-.44.25-.81.19l-2.69-.51c-.02-1.15.21-2.32.68-3.51.47-1.18,1.13-2.24,1.98-3.18,1.48-1.63,3.07-2.47,4.77-2.52,1.7-.05,3.41.7,5.12,2.25l12.63,11.46,2.25-2.48c.2-.22.43-.34.69-.38s.53.08.8.32l1.45,1.31-2.64,3.77,5.62,6.62c.17.23.25.47.25.73s-.11.5-.31.74Zm14.11-31.77c-.42.55-.95.69-1.59.41l-2.64-1.53c.17.89.27,1.78.3,2.65.03.87-.04,1.73-.18,2.57-.15.84-.4,1.67-.75,2.48-.35.81-.82,1.6-1.42,2.39-.92,1.21-1.94,2.12-3.04,2.75-1.11.62-2.26.96-3.47,1.02-1.21.06-2.45-.15-3.73-.62-1.28-.47-2.54-1.18-3.8-2.14l-14.1-10.76,2.98-3.91,14.11,10.76c1.68,1.28,3.27,1.89,4.78,1.83,1.51-.06,2.86-.87,4.05-2.43.88-1.15,1.42-2.44,1.63-3.86.21-1.42.16-2.92-.14-4.48l-16.31-12.44,2.99-3.91,22.15,16.89-1.79,2.34Zm14.67-23.72c-.24,1.74-.89,3.48-1.94,5.2-.87,1.42-1.92,2.59-3.14,3.51-1.22.92-2.55,1.55-3.99,1.88-1.44.33-2.97.34-4.6.04-1.63-.31-3.29-.98-4.97-2.01-.66-.4-1.05-.74-1.18-1.02-.13-.27-.08-.61.16-1l9.72-15.88c-1.53-.87-2.96-1.46-4.3-1.78-1.34-.31-2.58-.37-3.72-.17-1.14.2-2.18.64-3.1,1.33-.92.68-1.73,1.58-2.42,2.71-.64,1.05-1.07,2.03-1.29,2.93-.22.91-.36,1.72-.41,2.44-.05.72-.07,1.34-.05,1.85s-.06.91-.22,1.17c-.21.35-.51.53-.89.55l-2.24.24c-.31-.9-.48-1.85-.5-2.85-.02-1,.07-2,.28-3.01.21-1,.5-1.99.89-2.95.39-.97.84-1.88,1.37-2.74,1-1.64,2.21-2.98,3.61-4.03,1.4-1.04,2.95-1.74,4.64-2.09,1.69-.35,3.49-.33,5.42.08,1.92.4,3.91,1.23,5.96,2.49,1.66,1.02,3.05,2.22,4.18,3.61,1.13,1.39,1.93,2.88,2.4,4.48.47,1.6.59,3.27.35,5.02Zm23-45c-.29.63-.77.89-1.46.76l-2.75-.85c.73,1.45,1.2,2.93,1.41,4.43.21,1.5-.03,3.02-.72,4.56-.77,1.71-1.87,2.87-3.3,3.51-1.43.63-3.06.82-4.89.56.75.78,1.34,1.61,1.74,2.49.41.88.67,1.77.78,2.69.11.91.08,1.82-.08,2.72-.16.9-.43,1.77-.81,2.6-.6,1.34-1.35,2.43-2.25,3.29-.9.85-1.92,1.46-3.06,1.82-1.15.36-2.4.46-3.77.31-1.37-.15-2.82-.58-4.36-1.27l-16.18-7.28,2.02-4.49,16.18,7.28c1.99.9,3.69,1.14,5.11.73,1.42-.41,2.5-1.43,3.24-3.07.33-.74.51-1.49.55-2.27.04-.78-.08-1.53-.36-2.26-.28-.73-.73-1.41-1.36-2.04-.63-.64-1.45-1.18-2.45-1.63l-16.18-7.28,2.02-4.49,16.18,7.28c2.04.92,3.75,1.19,5.12.82,1.37-.37,2.41-1.34,3.12-2.91.5-1.1.66-2.26.49-3.46-.17-1.2-.59-2.43-1.26-3.67l-18.93-8.52,2.02-4.49,25.41,11.43-1.21,2.68Zm7.59-21.64c-.49,1.59-1.21,2.99-2.15,4.19-.95,1.19-2.08,2.13-3.39,2.82-1.31.68-2.79,1.08-4.45,1.19-1.65.11-3.43-.12-5.32-.7-.74-.22-1.2-.45-1.4-.69-.2-.23-.23-.57-.1-1.01l5.44-17.81c-1.7-.46-3.24-.67-4.61-.64-1.37.03-2.59.29-3.64.77-1.06.48-1.95,1.17-2.67,2.06s-1.28,1.97-1.66,3.23c-.36,1.18-.53,2.23-.52,3.16.01.93.08,1.76.21,2.47.13.71.26,1.31.41,1.81s.17.89.08,1.19c-.12.38-.36.64-.72.76l-2.11.79c-.52-.79-.92-1.67-1.19-2.64s-.43-1.96-.48-2.98c-.05-1.02-.01-2.05.12-3.08.13-1.03.35-2.03.64-3,.56-1.84,1.39-3.44,2.49-4.8,1.1-1.36,2.42-2.42,3.96-3.19,1.55-.76,3.3-1.19,5.27-1.28,1.96-.09,4.09.21,6.39.91,1.86.57,3.51,1.38,4.95,2.44,1.44,1.06,2.59,2.31,3.44,3.74.86,1.43,1.39,3.02,1.59,4.77.2,1.75.01,3.59-.58,5.52Zm7.8-30.72c-.24,1.19-.59,2.26-1.06,3.24-.47.97-1.04,1.83-1.71,2.57l-1.5,7.41-1.78-.36c-.59-.12-.89-.57-.9-1.36l.22-3.18c-1.31.37-2.68.41-4.12.12-1.33-.27-2.49-.77-3.47-1.5-.98-.73-1.77-1.62-2.36-2.68-.59-1.05-.97-2.25-1.13-3.59-.16-1.34-.09-2.75.21-4.22.26-1.28.65-2.45,1.19-3.52-.24-.65-.54-1.17-.88-1.55-.34-.39-.72-.62-1.13-.71-.65-.13-1.19.04-1.63.5-.44.46-.82,1.11-1.14,1.94-.32.83-.61,1.8-.87,2.9-.26,1.1-.55,2.22-.86,3.36-.32,1.14-.68,2.25-1.1,3.31-.42,1.07-.94,1.98-1.57,2.76-.62.77-1.38,1.34-2.28,1.71-.9.37-1.98.43-3.23.17-1.17-.24-2.24-.76-3.22-1.56s-1.78-1.84-2.42-3.11c-.63-1.27-1.04-2.75-1.23-4.44-.19-1.69-.08-3.54.32-5.53.4-1.99.95-3.7,1.65-5.11.7-1.41,1.48-2.54,2.34-3.4.86-.85,1.78-1.44,2.75-1.76s1.93-.38,2.89-.19c1.35.27,2.4.92,3.17,1.96.76,1.03,1.28,2.34,1.54,3.93.52-.74,1.13-1.28,1.83-1.63.7-.36,1.56-.43,2.58-.22.39.08.79.23,1.18.46.39.23.77.53,1.13.92s.69.83.98,1.33c.29.51.52,1.08.69,1.71,1.03-1.2,2.24-2.04,3.64-2.55,1.4-.5,2.93-.59,4.58-.25,1.33.27,2.49.77,3.47,1.5.98.73,1.76,1.63,2.34,2.7.58,1.07.95,2.28,1.1,3.63.16,1.35.08,2.78-.22,4.29Zm4.33-28.32c-.16,1.55-.56,2.9-1.19,4.05-.64,1.15-1.45,2.09-2.45,2.81-1,.73-2.17,1.23-3.5,1.52-1.34.28-2.78.35-4.33.19l-17.72-1.84.22-2.16c.05-.47.17-.83.35-1.07.18-.24.51-.41.98-.51l2.68-.27c-.6-.8-1.12-1.57-1.57-2.32-.45-.75-.81-1.52-1.08-2.32-.28-.8-.46-1.65-.57-2.53-.1-.89-.1-1.86.01-2.92.11-1.08.37-2.07.77-2.99.4-.92.94-1.7,1.61-2.34.67-.64,1.49-1.12,2.46-1.43.96-.31,2.07-.41,3.33-.28,1.09.11,2.12.52,3.06,1.23.95.71,1.75,1.78,2.39,3.21.64,1.43,1.1,3.26,1.38,5.48.28,2.22.29,4.91.03,8.08l2.16.22c2.15.22,3.83-.07,5.03-.89,1.2-.81,1.89-2.12,2.08-3.9.12-1.2.08-2.23-.14-3.07-.22-.84-.48-1.58-.79-2.21-.31-.63-.6-1.18-.85-1.64-.26-.46-.36-.9-.32-1.32.04-.33.15-.6.35-.82.2-.22.43-.4.71-.54l1.65-.71c1.32,1.68,2.25,3.45,2.79,5.29.54,1.84.71,3.84.48,5.99Zm-1.29-21.89c-.93.78-2.05,1.36-3.35,1.76-1.3.4-2.74.59-4.32.59l-17.74-.07.02-4.92,17.74.06c2.11,0,3.75-.47,4.91-1.42,1.17-.96,1.76-2.42,1.76-4.38,0-1.45-.34-2.8-1.03-4.06-.69-1.26-1.63-2.42-2.82-3.49l-20.51-.08.02-4.92,27.86.1v2.94c-.01.7-.36,1.13-1.03,1.29l-3.03.37c.68.61,1.29,1.25,1.84,1.93.55.68,1.02,1.4,1.41,2.16.39.76.69,1.57.9,2.42.21.85.31,1.77.31,2.76,0,1.52-.26,2.86-.77,4.03-.51,1.16-1.23,2.13-2.16,2.91Z"/>
    <path class="cls-2" d="m720.55,512.31l-4.45,14.57c1.09.33,2.13.48,3.13.45s1.91-.24,2.75-.63c.84-.39,1.56-.95,2.18-1.68.62-.73,1.09-1.63,1.42-2.7.68-2.25.57-4.22-.33-5.92-.91-1.71-2.47-3.07-4.69-4.09Z"/>
    <path class="cls-2" d="m724.31,457.73c-.35-1.04-.81-1.82-1.39-2.33-.58-.51-1.24-.81-2.01-.89-.73-.07-1.37-.02-1.92.16s-1.02.46-1.4.84c-.38.38-.68.83-.89,1.37-.21.54-.35,1.13-.42,1.77-.09.86-.08,1.65.01,2.38.1.73.28,1.43.54,2.09.26.66.59,1.31.99,1.93.4.62.86,1.24,1.38,1.84l5.74.6c.16-2.25.18-4.18.06-5.79-.12-1.61-.35-2.93-.71-3.97Z"/>
    <path class="cls-2" d="m588.67,678.13c-.93-.95-1.87-1.62-2.82-2.03-.95-.4-1.9-.54-2.85-.42-.95.12-1.91.47-2.87,1.05-1.38.83-2.4,1.87-3.05,3.11s-1.07,2.7-1.24,4.37l6.91,11.54c1.42.58,2.71.81,3.87.68,1.16-.13,2.31-.54,3.44-1.21,2.22-1.33,3.45-3.15,3.69-5.45.24-2.31-.52-4.93-2.28-7.87-.93-1.56-1.87-2.81-2.8-3.76Z"/>
    <path class="cls-2" d="m691.04,582.36l-7.95,12.99c.97.59,1.94,1,2.91,1.22.97.22,1.91.25,2.82.08.91-.17,1.75-.52,2.53-1.08.78-.55,1.46-1.31,2.05-2.26,1.22-2,1.61-3.94,1.16-5.82-.45-1.88-1.62-3.59-3.52-5.13Z"/>
  </g>
  <g>
    <g>
      <path class="cls-1" d="m463.12,458.27c11.18,0,12.3-1.15,14.65-10.55l14.53-58.43c2.95-11.94,2.99-13.97.76-18.91h25.35c-4.7,4.94-5.69,7.04-8.64,18.91l-13.41,53.85c-5.97,23.88-14.69,32.6-37.57,32.6h-53.33c-20.58,0-26.51-10.55-21.02-32.6l13.57-54.65c2.51-10.07,2.19-14.01,1.23-18.11h46.73c-3.97,5.37-6.69,11.55-7.96,18.11l-14.93,59.7c-1.71,6.93.52,9.87,7.56,9.87l32.48.2Z"/>
      <path class="cls-2" d="m458.78,476.24h-53.33c-9.66,0-16.14-2.29-19.83-7.01-4.18-5.35-4.73-13.93-1.67-26.21l13.57-54.65c2.58-10.37,2.11-14.09,1.23-17.88l-.14-.61h48.35l-.59.8c-3.91,5.27-6.63,11.47-7.87,17.91l-14.93,59.73c-.83,3.37-.69,5.71.44,7.14,1.11,1.42,3.28,2.11,6.64,2.11l32.48.2c11.19,0,11.9-1.15,14.16-10.17l14.53-58.43c2.88-11.67,2.97-13.75.79-18.58l-.32-.71h27.29l-.8.84c-4.66,4.89-5.61,6.99-8.51,18.68l-13.41,53.85c-6.24,24.96-15.49,32.98-38.06,32.98Zm-58.92-105.36c.94,4.35.93,8.5-1.37,17.73l-13.57,54.65c-2.98,11.96-2.49,20.26,1.49,25.35,3.48,4.46,9.71,6.63,19.04,6.63h53.33c21.98,0,30.99-7.83,37.09-32.22l13.41-53.85c2.79-11.24,3.82-13.79,7.97-18.29h-23.43c1.98,4.63,1.78,7.12-1.04,18.53l-14.53,58.43c-2.35,9.41-3.57,10.93-15.13,10.93h0l-32.48-.2c-3.68,0-6.11-.81-7.42-2.49-1.33-1.7-1.53-4.32-.62-8l14.93-59.7c1.2-6.24,3.78-12.27,7.47-17.49h-45.12Z"/>
    </g>
    <g>
      <path class="cls-1" d="m615.85,454.05c2.39,7.58,5.73,14.83,9.95,21.57h-49.39l-12.46-44.62-12.18,10.71-3.98,15.92c-2.51,10.03-2.19,14.01-1.23,18.11h-46.69c3.96-5.37,6.68-11.56,7.96-18.11l17.19-69.14c2-5.82,2.42-12.07,1.23-18.11h46.73c-3.97,5.37-6.69,11.55-7.96,18.11l-7.2,29.1,35.42-31.84c5.93-5.29,7.56-7.96,8.44-11.38.29-1.31.51-2.64.64-3.98h36.74c-5.97,2.63-11.51,6.13-16.44,10.39l-24.56,20.74,17.79,52.54Z"/>
      <path class="cls-2" d="m547.18,476.24h-48.31l.59-.8c3.89-5.28,6.61-11.47,7.87-17.91l17.2-69.16c1.98-5.77,2.4-11.95,1.23-17.89l-.12-.6h48.33l-.59.8c-3.91,5.27-6.63,11.47-7.87,17.91l-6.82,27.54,34.21-30.75c5.96-5.32,7.47-7.92,8.29-11.14.28-1.27.5-2.59.62-3.91l.04-.45h39.57l-2.17.96c-5.92,2.61-11.41,6.08-16.31,10.31l-24.3,20.52,17.69,52.23c2.38,7.54,5.71,14.76,9.9,21.46l.48.77h-50.68l-12.35-44.22-11.46,10.08-3.94,15.77c-2.58,10.33-2.09,14.21-1.23,17.88l.14.61Zm-46.34-1h45.09c-.79-3.63-1.12-7.75,1.38-17.73l4.02-16.07,12.89-11.33,12.57,45.02h48.12c-4.01-6.56-7.22-13.59-9.53-20.92l-17.9-52.86,24.82-20.96c4.39-3.79,9.26-6.99,14.48-9.51h-34.01c-.13,1.2-.33,2.41-.6,3.59-.88,3.42-2.44,6.16-8.59,11.65l-36.63,32.93,7.6-30.67c1.2-6.24,3.78-12.27,7.47-17.49h-45.15c1.06,5.93.59,12.06-1.36,17.77l-17.18,69.09c-1.22,6.24-3.8,12.27-7.47,17.49Z"/>
    </g>
  </g>
  <g>
    <g>
      <path class="cls-1" d="m393.27,502.2v10.7h13.55v5.38h-13.55v14.72h-6.75v-36.15h22.8v5.35h-16.05Z"/>
      <path class="cls-2" d="m393.77,533.5h-7.75v-37.15h23.8v6.35h-16.05v9.7h13.55v6.38h-13.55v14.72Zm-6.75-1h5.75v-14.72h13.55v-4.38h-13.55v-11.7h16.05v-4.35h-21.8v35.15Z"/>
    </g>
    <g>
      <path class="cls-1" d="m416.34,520.95c.1,1.32.33,2.45.7,3.41.37.96.85,1.75,1.45,2.38.6.62,1.31,1.09,2.14,1.4.82.31,1.74.46,2.74.46s1.86-.12,2.59-.35c.73-.23,1.36-.49,1.9-.78.54-.28,1.02-.54,1.42-.77s.8-.35,1.19-.35c.52,0,.9.19,1.15.58l1.77,2.25c-.68.8-1.45,1.47-2.3,2.01-.85.54-1.74.97-2.66,1.3s-1.87.55-2.83.69c-.96.13-1.89.2-2.79.2-1.78,0-3.44-.3-4.98-.89-1.53-.59-2.87-1.47-4-2.62-1.13-1.16-2.02-2.59-2.67-4.3-.65-1.71-.97-3.69-.97-5.94,0-1.75.28-3.4.85-4.94.57-1.54,1.38-2.88,2.44-4.03,1.06-1.14,2.35-2.04,3.88-2.71s3.25-1,5.16-1c1.62,0,3.11.26,4.48.77,1.37.52,2.54,1.27,3.52,2.26.98.99,1.75,2.21,2.31,3.65s.84,3.09.84,4.94c0,.93-.1,1.56-.3,1.89-.2.32-.58.49-1.15.49h-15.88Zm11.78-3.73c0-.8-.11-1.55-.34-2.26-.22-.71-.56-1.33-1.01-1.86-.45-.53-1.02-.95-1.71-1.26-.69-.31-1.5-.46-2.41-.46-1.78,0-3.19.51-4.21,1.53-1.03,1.02-1.68,2.46-1.96,4.32h11.65Z"/>
      <path class="cls-2" d="m422.82,533.88c-1.84,0-3.57-.31-5.16-.92-1.59-.61-3-1.54-4.18-2.74-1.18-1.2-2.11-2.71-2.79-4.47-.67-1.75-1.01-3.81-1.01-6.12,0-1.8.3-3.52.88-5.11.59-1.6,1.44-3.01,2.54-4.19,1.1-1.19,2.46-2.14,4.04-2.83,1.58-.69,3.38-1.04,5.36-1.04,1.67,0,3.23.27,4.65.81,1.43.54,2.67,1.34,3.7,2.38,1.03,1.04,1.84,2.32,2.42,3.82.58,1.49.87,3.21.87,5.12,0,1.05-.12,1.74-.37,2.15-.3.48-.83.73-1.58.73h-15.33c.11,1.04.32,1.96.62,2.73.34.89.79,1.63,1.34,2.21.54.57,1.2,1,1.95,1.28.76.29,1.62.43,2.56.43s1.76-.11,2.43-.33c.7-.22,1.31-.47,1.82-.74.54-.28,1.01-.54,1.41-.77,1.19-.68,2.43-.5,3,.38l2,2.54-.27.31c-.72.84-1.53,1.55-2.41,2.11-.88.56-1.81,1.01-2.76,1.35-.95.33-1.93.57-2.92.71-.98.14-1.94.21-2.86.21Zm-.3-26.42c-1.84,0-3.51.32-4.96.96-1.45.64-2.7,1.51-3.71,2.59-1.01,1.09-1.79,2.39-2.33,3.86-.54,1.48-.82,3.08-.82,4.76,0,2.18.32,4.12.94,5.76.62,1.64,1.49,3.03,2.57,4.13,1.08,1.1,2.36,1.95,3.82,2.51,2.22.86,4.76,1.04,7.51.66.92-.13,1.84-.35,2.73-.66.89-.31,1.75-.73,2.56-1.25.69-.44,1.33-.98,1.92-1.61l-1.52-1.92c-.13-.2-.31-.38-.76-.38-.29,0-.61.1-.94.28-.41.24-.89.5-1.44.78-.56.29-1.23.57-1.98.81-.77.25-1.69.37-2.74.37s-2.04-.17-2.91-.49c-.89-.33-1.67-.85-2.32-1.52-.65-.67-1.17-1.53-1.56-2.54-.38-1-.63-2.19-.73-3.55l-.04-.54h16.42c.38,0,.62-.08.72-.25.07-.11.23-.49.23-1.62,0-1.78-.27-3.38-.8-4.76-.53-1.37-1.27-2.54-2.2-3.48-.93-.93-2.05-1.66-3.35-2.15-1.31-.49-2.75-.74-4.3-.74Zm6.1,10.27h-12.73l.09-.58c.3-1.97,1.01-3.51,2.11-4.6,1.12-1.11,2.65-1.67,4.56-1.67.98,0,1.86.17,2.62.51.76.34,1.4.81,1.89,1.4.49.58.86,1.27,1.11,2.03.24.75.36,1.56.36,2.41v.5Zm-11.55-1h10.54c-.04-.56-.14-1.1-.3-1.61-.2-.64-.51-1.21-.92-1.69-.4-.47-.91-.85-1.53-1.13-.62-.28-1.37-.42-2.21-.42-1.64,0-2.94.46-3.86,1.38-.84.83-1.41,2-1.72,3.47Z"/>
    </g>
    <g>
      <path class="cls-1" d="m444.54,495.85v37.15h-6.17v-37.15h6.17Z"/>
      <path class="cls-2" d="m445.04,533.5h-7.17v-38.15h7.17v38.15Zm-6.17-1h5.17v-36.15h-5.17v36.15Z"/>
    </g>
    <g>
      <path class="cls-1" d="m456.97,495.85v37.15h-6.17v-37.15h6.17Z"/>
      <path class="cls-2" d="m457.47,533.5h-7.17v-38.15h7.17v38.15Zm-6.17-1h5.17v-36.15h-5.17v36.15Z"/>
    </g>
    <g>
      <path class="cls-1" d="m474.49,506.95c1.9,0,3.63.31,5.19.92,1.56.62,2.89,1.49,4,2.62,1.11,1.13,1.96,2.52,2.56,4.15.6,1.63.9,3.46.9,5.47s-.3,3.87-.9,5.5c-.6,1.63-1.46,3.03-2.56,4.17-1.11,1.15-2.44,2.03-4,2.65-1.56.62-3.29.92-5.19.92s-3.66-.31-5.23-.92-2.9-1.5-4.01-2.65c-1.11-1.15-1.97-2.54-2.57-4.17-.61-1.63-.91-3.47-.91-5.5s.3-3.84.91-5.47c.61-1.63,1.47-3.02,2.57-4.15,1.11-1.13,2.45-2.01,4.01-2.62,1.57-.62,3.31-.92,5.23-.92Zm0,21.67c2.13,0,3.71-.72,4.74-2.15,1.02-1.43,1.54-3.53,1.54-6.3s-.51-4.88-1.54-6.33c-1.03-1.45-2.6-2.17-4.74-2.17s-3.77.73-4.81,2.19c-1.04,1.46-1.56,3.56-1.56,6.31s.52,4.85,1.56,6.29c1.04,1.44,2.65,2.16,4.81,2.16Z"/>
      <path class="cls-2" d="m474.49,533.88c-1.97,0-3.79-.32-5.41-.96-1.63-.64-3.04-1.57-4.19-2.77-1.15-1.19-2.05-2.66-2.68-4.35-.63-1.68-.94-3.59-.94-5.67s.32-3.97.94-5.65c.63-1.69,1.53-3.15,2.69-4.33,1.15-1.18,2.56-2.1,4.19-2.74,1.62-.64,3.44-.96,5.41-.96s3.76.32,5.37.96c1.62.64,3.02,1.56,4.17,2.74,1.15,1.18,2.05,2.64,2.67,4.33.62,1.68.93,3.58.93,5.65s-.31,3.99-.93,5.67c-.62,1.69-1.52,3.16-2.67,4.35-1.16,1.2-2.56,2.13-4.18,2.77-1.61.64-3.42.96-5.37.96Zm0-26.42c-1.84,0-3.54.3-5.04.89-1.49.59-2.78,1.43-3.84,2.51-1.05,1.08-1.88,2.42-2.46,3.97-.58,1.57-.88,3.35-.88,5.3s.3,3.76.88,5.33c.58,1.56,1.41,2.91,2.47,4,1.05,1.09,2.34,1.95,3.83,2.53,1.5.59,3.2.89,5.04.89s3.51-.3,5-.89c1.48-.59,2.77-1.44,3.82-2.53,1.05-1.09,1.88-2.44,2.45-4,.58-1.57.87-3.36.87-5.33s-.29-3.73-.87-5.3c-.57-1.56-1.4-2.89-2.45-3.97-1.05-1.08-2.34-1.92-3.83-2.51-1.49-.59-3.18-.89-5-.89Zm0,21.67c-2.33,0-4.08-.8-5.22-2.37-1.1-1.52-1.66-3.74-1.66-6.58s.56-5.06,1.66-6.6c1.14-1.59,2.89-2.4,5.22-2.4s4.03.8,5.15,2.39c1.08,1.53,1.63,3.76,1.63,6.61s-.55,5.08-1.63,6.59c-1.12,1.57-2.85,2.36-5.14,2.36Zm0-16.95c-2.01,0-3.46.65-4.41,1.98-.98,1.37-1.47,3.39-1.47,6.02s.49,4.65,1.47,6c.95,1.32,2.39,1.96,4.41,1.96s3.4-.63,4.33-1.94c.96-1.34,1.44-3.36,1.44-6.01s-.49-4.68-1.45-6.04c-.93-1.32-2.35-1.96-4.33-1.96Z"/>
    </g>
    <g>
      <path class="cls-1" d="m528.07,507.35l-8.15,25.65h-4.95c-.57,0-.96-.37-1.17-1.1l-4.6-14.83c-.15-.5-.29-1-.41-1.49-.12-.49-.23-.99-.31-1.49-.1.5-.21,1-.34,1.51-.12.51-.26,1.01-.41,1.51l-4.67,14.78c-.2.73-.64,1.1-1.33,1.1h-4.75l-8.12-25.65h4.92c.45,0,.83.11,1.15.33.32.22.52.49.62.83l3.67,13.7c.18.75.35,1.48.49,2.2s.26,1.43.36,2.15c.18-.72.38-1.43.59-2.15.21-.72.43-1.45.66-2.2l4.25-13.75c.1-.33.3-.61.59-.83.29-.22.65-.33,1.06-.33h2.72c.43,0,.8.11,1.11.33s.51.49.61.83l4.12,13.75c.22.75.42,1.49.61,2.21.19.73.38,1.45.56,2.16.22-1.42.52-2.88.92-4.38l3.78-13.7c.12-.33.32-.61.62-.83.3-.22.66-.33,1.07-.33h4.7Z"/>
      <path class="cls-2" d="m520.28,533.5h-5.32c-.56,0-1.3-.25-1.65-1.46l-4.6-14.82c-.09-.3-.17-.59-.25-.89-.08.31-.17.62-.26.93l-4.68,14.78c-.25.93-.89,1.45-1.8,1.45h-5.12l-8.44-26.65h5.61c.55,0,1.03.14,1.43.41.41.28.69.65.82,1.09l3.68,13.71c.18.75.34,1.46.48,2.17.21-.71.43-1.44.66-2.18l4.25-13.75c.13-.43.39-.8.77-1.08.38-.28.83-.42,1.36-.42h2.72c.54,0,1.01.14,1.4.42.4.28.67.65.8,1.09l4.12,13.75c.22.75.42,1.49.61,2.21.15-.72.33-1.45.53-2.19l3.78-13.7c.16-.46.43-.82.82-1.1.39-.28.85-.42,1.37-.42h5.38l-8.47,26.65Zm-11.77-22.17l.45,2.69c.08.49.18.97.3,1.45.12.48.26.97.41,1.47l4.6,14.82c.22.75.55.75.7.75h4.58l7.83-24.65h-4.02c-.31,0-.57.08-.78.23-.22.16-.36.35-.45.58l-3.76,13.67c-.39,1.47-.7,2.93-.91,4.32l-.37,2.43-.61-2.38c-.18-.72-.37-1.44-.56-2.16-.19-.72-.39-1.46-.61-2.2l-4.12-13.75c-.07-.22-.21-.41-.42-.56-.22-.16-.49-.23-.83-.23h-2.72c-.31,0-.56.07-.76.23-.21.15-.34.34-.41.57l-4.25,13.75c-.23.75-.45,1.48-.66,2.19-.21.71-.4,1.42-.58,2.13l-.63,2.46-.35-2.51c-.1-.71-.22-1.41-.36-2.12-.14-.71-.3-1.44-.48-2.18l-3.67-13.69c-.06-.21-.2-.39-.42-.54-.24-.16-.52-.24-.87-.24h-4.24l7.81,24.65h4.38c.33,0,.67-.09.84-.73l4.68-14.79c.14-.49.28-.98.4-1.48s.23-1,.33-1.49l.54-2.67Z"/>
    </g>
    <g>
      <path class="cls-1" d="m546.92,512.35c-.17.27-.34.46-.53.56-.18.11-.42.16-.7.16-.3,0-.62-.08-.96-.25-.34-.17-.74-.35-1.19-.56s-.96-.4-1.54-.56c-.57-.17-1.25-.25-2.04-.25-1.22,0-2.17.26-2.86.77-.69.52-1.04,1.19-1.04,2.03,0,.55.18,1.01.54,1.39s.83.7,1.42.99,1.26.54,2.01.76c.75.22,1.51.47,2.29.74.78.27,1.54.57,2.29.91.75.34,1.42.78,2.01,1.3.59.52,1.07,1.15,1.43,1.89.36.73.54,1.62.54,2.65,0,1.23-.22,2.37-.66,3.41-.44,1.04-1.1,1.94-1.96,2.7-.87.76-1.94,1.35-3.21,1.78-1.27.42-2.75.64-4.41.64-.88,0-1.75-.08-2.59-.24s-1.65-.38-2.42-.66c-.77-.28-1.49-.62-2.15-1-.66-.38-1.24-.8-1.74-1.25l1.43-2.35c.18-.28.4-.5.65-.65s.57-.22.95-.22.75.11,1.09.32c.34.22.74.45,1.19.7.45.25.98.48,1.59.7s1.38.33,2.31.33c.73,0,1.36-.09,1.89-.26s.96-.4,1.3-.69.59-.61.75-.99.24-.76.24-1.16c0-.6-.18-1.09-.54-1.47-.36-.38-.83-.72-1.42-1-.59-.28-1.27-.54-2.03-.76-.76-.22-1.53-.47-2.33-.74-.79-.27-1.57-.58-2.32-.94-.76-.36-1.43-.81-2.03-1.36s-1.07-1.23-1.42-2.03-.54-1.77-.54-2.9c0-1.05.21-2.05.62-3,.42-.95,1.03-1.78,1.84-2.49.81-.71,1.82-1.27,3.03-1.7,1.21-.43,2.6-.64,4.19-.64,1.77,0,3.38.29,4.82.88,1.45.58,2.66,1.35,3.62,2.3l-1.4,2.22Z"/>
      <path class="cls-2" d="m538.34,533.9c-.91,0-1.81-.08-2.68-.25-.86-.16-1.71-.39-2.5-.68-.8-.29-1.55-.64-2.23-1.04-.68-.4-1.3-.84-1.82-1.31l-.31-.28,1.64-2.7c.23-.36.5-.63.82-.82.66-.39,1.72-.43,2.56.11.33.21.72.44,1.16.69.42.24.93.46,1.51.67.55.2,1.27.3,2.14.3.67,0,1.26-.08,1.73-.24.46-.15.85-.35,1.14-.6.28-.23.48-.49.61-.8.13-.31.2-.64.2-.97,0-.47-.13-.84-.4-1.13-.31-.33-.74-.63-1.28-.89-.56-.27-1.22-.52-1.95-.73-.76-.23-1.54-.47-2.34-.74-.81-.27-1.61-.59-2.38-.96-.8-.38-1.52-.87-2.15-1.45-.64-.59-1.16-1.33-1.54-2.19-.39-.86-.58-1.91-.58-3.1,0-1.11.22-2.19.67-3.2.44-1.01,1.11-1.91,1.97-2.66.85-.75,1.93-1.35,3.19-1.79,1.25-.44,2.72-.67,4.35-.67,1.82,0,3.51.31,5.01.91,1.5.6,2.78,1.42,3.79,2.41l.29.28-1.61,2.57c-.21.34-.44.58-.7.73-.51.31-1.32.33-2.13-.07-.34-.17-.73-.35-1.18-.56-.42-.2-.92-.38-1.47-.54-.53-.15-1.16-.23-1.9-.23-1.1,0-1.96.23-2.56.67-.56.42-.84.95-.84,1.62,0,.42.13.76.4,1.04.32.33.75.63,1.28.88.56.27,1.22.52,1.94.74.76.23,1.53.47,2.31.74.78.27,1.57.58,2.33.93.79.36,1.51.83,2.14,1.38.64.56,1.15,1.25,1.54,2.04.39.8.59,1.77.59,2.87,0,1.29-.24,2.51-.7,3.61-.47,1.11-1.17,2.08-2.09,2.88-.91.8-2.05,1.43-3.38,1.87-1.32.44-2.86.66-4.57.66Zm-8.25-3.75c.4.33.85.64,1.34.92.63.37,1.33.69,2.07.96.75.27,1.54.49,2.35.64s1.65.23,2.5.23c1.6,0,3.04-.21,4.25-.61,1.21-.4,2.23-.97,3.04-1.68.8-.7,1.42-1.55,1.83-2.52.41-.97.62-2.06.62-3.22,0-.95-.16-1.77-.49-2.43-.33-.67-.77-1.25-1.31-1.73-.55-.49-1.19-.9-1.89-1.22-.74-.33-1.49-.64-2.24-.89-.77-.26-1.52-.51-2.27-.73-.77-.23-1.47-.5-2.08-.79-.64-.31-1.17-.68-1.57-1.09-.45-.47-.68-1.05-.68-1.73,0-1,.42-1.81,1.24-2.43.78-.58,1.84-.87,3.16-.87.83,0,1.56.09,2.18.27.6.17,1.14.37,1.61.59.45.21.85.4,1.2.57.5.25.96.24,1.19.11.08-.05.2-.15.36-.4h0s1.18-1.88,1.18-1.88c-.87-.78-1.93-1.42-3.17-1.92-1.38-.56-2.94-.84-4.64-.84-1.52,0-2.87.21-4.02.61-1.14.4-2.1.94-2.86,1.6-.75.66-1.32,1.44-1.71,2.31-.39.88-.58,1.82-.58,2.8,0,1.06.17,1.96.49,2.7.33.74.77,1.36,1.31,1.86.55.51,1.19.94,1.9,1.28.74.35,1.5.66,2.27.92.79.26,1.55.51,2.31.73.78.23,1.49.5,2.1.79.64.31,1.17.68,1.57,1.11.45.48.67,1.09.67,1.82,0,.47-.09.92-.28,1.36-.19.45-.49.84-.89,1.18-.39.32-.88.58-1.46.78-.58.19-1.26.29-2.05.29-.99,0-1.82-.12-2.48-.35-.63-.22-1.19-.47-1.66-.73-.46-.25-.86-.49-1.21-.71-.53-.33-1.18-.3-1.51-.09-.18.11-.35.28-.49.49l-1.2,1.98Z"/>
    </g>
    <g>
      <path class="cls-1" d="m559.42,510.1c1-.93,2.1-1.69,3.3-2.27,1.2-.58,2.61-.88,4.22-.88,1.4,0,2.64.24,3.72.71,1.08.48,1.99,1.14,2.71,2,.72.86,1.28,1.88,1.65,3.08.38,1.19.56,2.5.56,3.94v16.33h-6.18v-16.33c0-1.57-.36-2.78-1.07-3.64-.72-.86-1.81-1.29-3.28-1.29-1.07,0-2.07.24-3,.72-.93.48-1.82,1.14-2.65,1.98v18.55h-6.17v-37.15h6.17v14.25Z"/>
      <path class="cls-2" d="m576.09,533.5h-7.18v-16.83c0-1.44-.32-2.55-.96-3.32-.62-.75-1.57-1.11-2.89-1.11-.98,0-1.91.22-2.77.67-.83.43-1.63,1.01-2.38,1.74v18.84h-7.17v-38.15h7.17v13.66c.8-.64,1.67-1.19,2.58-1.63,1.26-.61,2.76-.92,4.44-.92,1.46,0,2.78.25,3.93.75,1.15.5,2.12,1.22,2.89,2.14.77.91,1.35,2,1.75,3.25.39,1.24.59,2.61.59,4.09v16.83Zm-6.18-1h5.18v-15.83c0-1.38-.18-2.65-.54-3.79-.35-1.12-.88-2.1-1.56-2.9-.67-.79-1.52-1.42-2.53-1.86-1.01-.44-2.2-.67-3.52-.67-1.53,0-2.88.28-4.01.82-1.15.56-2.22,1.3-3.18,2.19l-.84.79v-14.9h-5.17v36.15h5.17v-18.26l.15-.15c.87-.87,1.8-1.56,2.77-2.07,1-.52,2.09-.78,3.23-.78,1.61,0,2.85.49,3.66,1.47.79.95,1.19,2.28,1.19,3.96v15.83Z"/>
    </g>
    <g>
      <path class="cls-1" d="m588.69,499.88c0,.53-.11,1.03-.33,1.5s-.5.88-.86,1.22c-.36.35-.78.63-1.26.84-.48.21-1,.31-1.55.31s-1.04-.1-1.51-.31c-.47-.21-.89-.49-1.24-.84s-.63-.76-.84-1.22c-.21-.47-.31-.97-.31-1.5s.1-1.07.31-1.55c.21-.48.49-.9.84-1.25s.76-.63,1.24-.84c.48-.21.98-.31,1.51-.31s1.07.1,1.55.31c.48.21.9.49,1.26.84.36.35.65.77.86,1.25s.33,1,.33,1.55Zm-.85,7.47v25.65h-6.2v-25.65h6.2Z"/>
      <path class="cls-2" d="m588.34,533.5h-7.2v-26.65h7.2v26.65Zm-6.2-1h5.2v-24.65h-5.2v24.65Zm2.55-28.25c-.6,0-1.18-.12-1.71-.35-.53-.23-1-.55-1.39-.94s-.71-.85-.94-1.38c-.24-.53-.36-1.1-.36-1.7s.12-1.21.35-1.75c.23-.54.55-1.01.94-1.41s.86-.71,1.39-.94c1.09-.48,2.39-.46,3.46,0,.54.23,1.02.55,1.42.94.4.39.73.86.97,1.4.25.55.37,1.14.37,1.75s-.12,1.18-.37,1.71c-.24.52-.57.98-.97,1.37-.4.39-.88.71-1.42.94-.54.23-1.13.35-1.75.35Zm0-7.83c-.46,0-.9.09-1.31.27-.42.18-.78.43-1.08.73s-.55.67-.73,1.09c-.18.42-.27.87-.27,1.35s.09.9.27,1.3c.18.41.43.77.73,1.08s.67.55,1.08.73c.83.37,1.84.35,2.66,0,.42-.18.8-.43,1.11-.74.31-.31.57-.67.76-1.08.18-.4.28-.83.28-1.29s-.09-.93-.28-1.34c-.19-.42-.44-.79-.76-1.1-.31-.31-.68-.55-1.11-.74-.42-.18-.87-.27-1.35-.27Z"/>
    </g>
    <g>
      <path class="cls-1" d="m599.99,510.85c1.05-1.18,2.24-2.14,3.57-2.88,1.33-.73,2.9-1.1,4.7-1.1,1.4,0,2.68.29,3.84.88,1.16.58,2.16,1.43,3,2.54.84,1.11,1.49,2.48,1.95,4.1.46,1.62.69,3.49.69,5.59,0,1.92-.26,3.69-.78,5.33-.52,1.63-1.25,3.05-2.21,4.25-.96,1.2-2.12,2.14-3.47,2.81s-2.88,1.01-4.56,1.01c-1.43,0-2.66-.22-3.67-.66s-1.92-1.05-2.73-1.84v10.5h-6.17v-34.03h3.78c.8,0,1.33.38,1.58,1.12l.5,2.38Zm.32,15.5c.7.85,1.46,1.45,2.29,1.8.83.35,1.72.52,2.69.52s1.77-.17,2.52-.52c.75-.35,1.39-.88,1.91-1.6.52-.72.93-1.62,1.21-2.71s.43-2.38.43-3.86-.12-2.77-.36-3.81c-.24-1.04-.59-1.89-1.04-2.54s-1-1.12-1.64-1.42-1.37-.45-2.19-.45c-1.28,0-2.38.27-3.27.81-.9.54-1.75,1.3-2.55,2.29v11.5Z"/>
      <path class="cls-2" d="m600.82,541.88h-7.17v-35.03h4.28c1.02,0,1.73.51,2.05,1.47l.32,1.5c.92-.91,1.94-1.67,3.04-2.28,1.4-.77,3.07-1.16,4.94-1.16,1.47,0,2.84.31,4.06.93,1.22.62,2.29,1.52,3.17,2.68.88,1.16,1.56,2.59,2.03,4.27.47,1.66.71,3.59.71,5.72,0,1.96-.27,3.8-.8,5.48-.53,1.68-1.31,3.17-2.3,4.41-1,1.25-2.22,2.24-3.64,2.95-1.42.71-3.03,1.06-4.79,1.06-1.5,0-2.8-.24-3.87-.7-.72-.31-1.4-.72-2.03-1.2v9.9Zm-6.17-1h5.17v-11.19l.85.83c.75.74,1.62,1.32,2.58,1.74.95.41,2.12.62,3.48.62,1.6,0,3.06-.32,4.34-.96,1.29-.64,2.4-1.54,3.31-2.68.92-1.15,1.63-2.52,2.13-4.09.5-1.58.75-3.32.75-5.17,0-2.04-.22-3.88-.67-5.45-.44-1.56-1.07-2.88-1.87-3.93-.79-1.04-1.74-1.85-2.83-2.39-1.08-.54-2.3-.82-3.61-.82-1.71,0-3.21.35-4.46,1.04-1.28.7-2.43,1.63-3.44,2.77l-.66.74-.7-3.35c-.17-.49-.5-.73-1.09-.73h-3.28v33.03Zm10.65-11.7c-1.03,0-2-.19-2.88-.56-.9-.38-1.73-1.03-2.48-1.94l-.11-.14v-11.86l.11-.14c.83-1.02,1.74-1.83,2.68-2.4.98-.59,2.16-.88,3.53-.88.89,0,1.69.17,2.4.5.72.34,1.34.87,1.84,1.59.48.7.86,1.61,1.11,2.71.25,1.07.38,2.4.38,3.93s-.15,2.86-.44,3.99c-.3,1.15-.73,2.12-1.29,2.88-.57.78-1.28,1.37-2.1,1.76-.81.38-1.73.57-2.74.57Zm-4.48-3.01c.61.71,1.28,1.22,1.98,1.52,1.48.63,3.41.65,4.81,0,.67-.31,1.25-.8,1.72-1.44.48-.66.87-1.52,1.13-2.54.27-1.05.41-2.31.41-3.74s-.12-2.7-.35-3.7c-.23-.97-.55-1.77-.96-2.37-.4-.57-.88-1-1.44-1.26-.57-.27-1.24-.4-1.98-.4-1.18,0-2.2.25-3.02.74-.8.48-1.58,1.17-2.31,2.04v11.14Z"/>
    </g>
  </g>
  <g>
    <path class="cls-3" d="m460.29,284.35c-8.33,4.99-16.77,10.09-25.18,15.27-8.11-6.99-20.35-6.08-27.34,2.03-3.06,3.55-4.73,8.1-4.7,12.79.02,1.68.25,3.34.67,4.97-32.25,20.54-63.15,43.12-92.52,67.61-19.29-43.12-44.34-88.89-75.92-132.17-3.26,3.62-6.42,7.33-9.48,11.12,26.44,43.72,48.48,91.96,65.67,137.57-38.23,32.64-77.83,76.07-107.36,121.09,5.17,13.75,11.44,26.97,18.72,39.52,4.5-8.96,9.37-17.74,14.6-26.3h67.18c5.01-.27,8.84-4.55,8.57-9.56-.25-4.63-3.95-8.32-8.57-8.57h-55.64c6.94-10.36,14.71-21.36,23.47-32.6h32.04c5.01-.27,8.84-4.55,8.57-9.56-.25-4.63-3.95-8.32-8.57-8.57h-17.81c10.15-12.46,21.4-25.42,33.75-38.88l.32-.37c24.62,71.34,36.53,132.17,33.91,152.46-.62,7.25-4.93,13.68-11.4,17.01-4.59,2.16-6.49,8.52.72,10.68,22.94,6.76,37.09-16.02,39.62-34.31s-9.99-85.95-43.12-166.45c28.83-28.15,59.64-54.21,92.2-77.97,2.93,1.73,6.26,2.65,9.67,2.67,10.7,0,19.38-8.66,19.41-19.36,0-1.28-.13-2.56-.4-3.82,8.69-6.03,17.29-11.89,25.82-17.57,11.34,9.19,27.99,7.45,37.18-3.9,5.27-6.51,7.15-15.12,5.06-23.23,8.51-5.34,16.74-10.36,24.7-15.06,12.69,13.66,34.04,14.44,47.7,1.76,9.54-8.86,13.13-22.42,9.23-34.84,14.42-8.01,24.94-13.72,30.09-16.63,14.11,20.72,42.35,26.08,63.07,11.96,20.72-14.11,26.08-42.35,11.96-63.07-8.45-12.4-22.48-19.83-37.49-19.84-25.07,0-45.39,20.32-45.39,45.39-.02,7.57,1.87,15.02,5.5,21.65-4.51,2.27-15.03,7.53-29.77,15.19-7.83-16.96-27.93-24.36-44.88-16.53-16.96,7.83-24.36,27.93-16.53,44.88.61,1.27,1.28,2.5,2.03,3.68-7.58,4.2-15.42,8.58-23.52,13.14-7.37-12.65-23.61-16.93-36.26-9.56s-16.93,23.61-9.56,36.26Z"/>
    <path class="cls-3" d="m293.82,581.21c0-5-4.05-9.05-9.05-9.06h-77.07c3.9,6.21,8.05,12.25,12.44,18.1h64.62c5,0,9.05-4.05,9.06-9.05Z"/>
    <path class="cls-3" d="m214.06,719.62c-1.14-.66-36.25-19.68-35.02-73.04-12.29-14.43-23.36-29.92-33.06-46.33-18.68,56.08-10.46,106.36,48.51,131.7,19.09,8.2,27.8-7.5,19.57-12.34Z"/>
    <path class="cls-3" d="m167.52,187.05c6.39,6.88,12.62,14.14,18.68,21.69,1.98-2.17,3.99-4.32,6.03-6.44-6.41-6.95-13.02-13.76-19.85-20.41l-.19-.19c-7.37-7.26-13.35-4.06-4.99,4.99l.32.35Z"/>
  </g>
</svg>